<?xml version="1.0" standalone="no"?>
<!DOCTYPE svg PUBLIC "-//W3C//DTD SVG 20010904//EN"
 "http://www.w3.org/TR/2001/REC-SVG-20010904/DTD/svg10.dtd">
<svg version="1.0" xmlns="http://www.w3.org/2000/svg"
 width="1024.000000pt" height="1024.000000pt" viewBox="0 0 1024.000000 1024.000000"
 preserveAspectRatio="xMidYMid meet">

<g transform="translate(0.000000,1024.000000) scale(0.100000,-0.100000)"
fill="#000000" stroke="none">
<path d="M2 9198 l3 -1042 109 -32 c191 -56 187 -50 184 -286 l-1 -173 -7 164
c-7 137 -11 167 -27 190 -23 32 -89 66 -188 96 l-75 23 0 -994 c0 -938 1 -995
18 -1001 9 -3 103 -39 207 -80 218 -86 360 -151 401 -186 16 -13 47 -33 69
-45 22 -11 117 -85 211 -164 94 -79 184 -154 199 -166 l29 -23 -28 -27 c-16
-16 -25 -20 -21 -10 5 12 -2 21 -22 32 -34 17 -61 46 -44 46 24 0 7 21 -77 92
-168 143 -233 181 -377 218 -44 12 -122 32 -173 46 -51 14 -153 38 -225 55
-73 16 -140 32 -150 35 -16 5 -17 -8 -17 -185 0 -213 -8 -194 85 -207 28 -3
54 -9 58 -11 5 -3 31 -7 59 -9 28 -1 53 -6 56 -9 9 -8 -111 1 -177 14 -29 6
-60 11 -67 11 -12 0 -14 -109 -14 -656 l0 -656 32 6 c37 6 306 23 478 29 69 3
97 2 70 -3 -25 -4 -97 -16 -160 -28 -63 -11 -184 -28 -267 -37 l-153 -18 0
-1829 c0 -1460 3 -1828 12 -1822 7 4 22 15 33 24 31 26 94 60 112 60 21 0 -40
-57 -71 -66 -12 -4 -27 -14 -34 -23 -8 -9 -11 -10 -7 -3 3 6 2 12 -4 12 -5 0
-13 -9 -16 -20 -3 -11 -11 -20 -16 -20 -5 0 -9 -106 -9 -260 l0 -260 1329 0
1329 0 34 58 c18 31 35 62 37 67 2 6 7 12 10 15 4 3 26 37 49 75 81 134 148
241 226 360 80 121 109 161 86 115 -26 -49 -328 -576 -359 -624 -17 -28 -31
-54 -31 -58 0 -4 1132 -8 2515 -8 2389 0 2515 1 2515 18 0 9 -23 41 -50 71
-28 29 -50 60 -50 68 0 8 -5 11 -10 8 -6 -3 -10 -2 -10 3 0 6 -18 40 -40 76
-22 36 -40 70 -40 76 0 6 -5 8 -12 4 -7 -4 -8 -3 -4 4 6 11 -76 187 -125 268
-10 17 -16 34 -12 37 3 4 1 7 -5 7 -6 0 -9 7 -5 17 4 11 3 14 -6 9 -8 -6 -11
-2 -9 10 2 11 -2 18 -10 16 -9 -1 -11 6 -6 25 4 20 3 24 -4 14 -8 -11 -12 -10
-20 5 -5 11 -13 34 -17 51 -3 18 -11 35 -16 38 -5 4 -9 13 -9 22 0 9 17 -8 38
-38 51 -73 318 -491 426 -666 l88 -143 1204 0 1204 0 0 264 0 264 -32 7 c-43
9 -145 44 -182 62 -40 21 -98 84 -128 140 -50 91 -60 254 -21 328 11 22 40 76
63 120 23 44 46 84 51 90 5 5 9 18 9 30 -1 20 -50 59 -339 260 -188 131 -470
347 -516 394 -44 46 -32 53 30 18 41 -24 405 -288 531 -387 90 -69 294 -218
328 -239 37 -23 60 -5 66 51 3 24 16 57 28 72 12 16 22 34 22 41 0 9 13 11 45
7 l45 -5 0 866 -1 866 -22 17 c-21 15 -21 16 -2 12 19 -5 21 0 23 59 2 45 -1
64 -10 67 -85 25 -597 196 -673 224 -72 27 -101 42 -103 56 -3 16 0 18 25 12
28 -7 192 -59 702 -222 61 -19 61 -19 61 25 0 34 -3 39 -31 47 -18 5 -39 20
-47 33 l-16 24 47 -7 47 -7 -2 322 -3 323 -175 38 c-491 107 -801 170 -807
165 -2 -2 -5 -203 -8 -446 l-4 -443 -26 -25 c-14 -14 -25 -22 -25 -18 0 4 -8
-3 -19 -16 -16 -19 -21 -21 -34 -11 -10 9 -17 10 -22 2 -3 -5 2 -10 12 -10 17
-1 17 -2 -1 -15 -24 -18 -40 -20 -30 -3 4 7 3 8 -5 4 -8 -5 -9 -12 -2 -20 7
-8 4 -12 -10 -14 -42 -4 -48 -6 -43 -14 3 -4 15 -3 27 4 20 10 21 10 8 -6 -9
-10 -23 -15 -35 -12 -12 3 -30 -2 -40 -10 -11 -8 -15 -14 -9 -14 7 0 15 4 18
10 3 5 10 10 16 10 19 0 8 -16 -30 -42 -34 -24 -40 -26 -51 -13 -7 8 -20 14
-29 14 -14 -1 -14 -2 1 -6 39 -10 26 -33 -53 -90 -68 -50 -86 -58 -127 -59
-26 -1 -41 0 -34 3 6 3 10 9 7 14 -4 5 2 6 11 2 12 -5 15 -3 9 6 -6 10 -3 11
15 1 12 -6 24 -9 28 -6 3 3 1 6 -5 6 -6 0 -13 7 -16 14 -4 11 -1 13 10 9 11
-4 14 -2 9 5 -4 7 -1 12 8 12 8 0 18 5 22 12 5 7 2 8 -7 3 -8 -5 -11 -4 -6 1
11 12 30 12 39 0 9 -14 79 42 76 60 -2 9 10 21 29 29 27 11 32 11 37 -1 3 -8
10 -14 16 -14 6 0 4 7 -5 16 -9 9 -15 22 -13 29 5 23 152 124 164 114 8 -7 11
-4 10 8 0 11 5 18 14 17 9 -1 17 8 18 20 5 55 0 1292 -6 1298 -9 8 -194 59
-323 88 l-95 22 -13 196 c-7 108 -18 300 -25 426 l-13 229 -40 36 c-21 20 -48
41 -58 47 -18 10 -18 15 -7 63 24 104 14 164 -33 207 l-24 20 26 75 c30 91 41
225 23 298 -6 28 -15 51 -19 51 -4 0 -16 -26 -26 -57 l-19 -58 -12 100 c-16
133 -40 233 -65 273 -22 38 -87 71 -137 72 -46 0 -96 -25 -133 -68 -36 -41
-27 -50 -106 105 -34 67 -57 125 -57 145 0 18 8 80 18 137 37 205 25 232 -256
584 -67 84 -153 202 -193 262 -135 208 -261 312 -388 322 -52 5 -66 2 -87 -15
-48 -39 -32 -102 111 -427 51 -116 114 -284 100 -269 -4 5 -35 43 -68 84 -116
144 -256 263 -441 374 -247 149 -404 201 -497 166 -36 -14 -75 -59 -75 -87 0
-24 0 -24 -43 11 -23 19 -75 50 -114 69 -40 19 -92 54 -117 79 -24 24 -76 61
-114 81 -68 36 -107 43 -146 28 -14 -5 -36 2 -74 25 -236 143 -846 324 -1327
394 -482 70 -926 71 -1063 1 -66 -34 -94 -99 -72 -166 20 -59 66 -82 315 -151
l60 -17 -145 -37 c-369 -95 -614 -205 -693 -312 -21 -28 -29 -105 -14 -145 7
-20 -1 -26 -85 -68 -175 -88 -374 -235 -464 -342 -200 -238 -238 -449 -95
-523 75 -38 139 -21 253 68 90 70 173 124 246 161 34 17 62 30 62 27 0 -2 -37
-32 -82 -67 -260 -200 -486 -478 -645 -792 -135 -269 -287 -790 -322 -1109 -9
-76 -14 -92 -45 -133 -43 -56 -50 -81 -43 -148 5 -43 13 -58 42 -85 32 -29 35
-37 35 -87 l0 -54 -37 -10 c-21 -6 -123 -31 -228 -56 -104 -25 -194 -50 -200
-56 -6 -6 -12 -222 -16 -582 -4 -315 -9 -592 -13 -615 -5 -35 -2 -51 17 -83
13 -21 26 -38 28 -37 2 2 1 -1 -4 -7 -5 -6 -14 -3 -23 9 -11 16 -14 17 -14 4
0 -17 26 -32 40 -23 15 9 60 -14 60 -31 0 -11 -5 -14 -17 -9 -14 5 -15 3 -7
-5 8 -8 18 -9 30 -2 15 8 32 1 79 -29 33 -21 59 -43 58 -49 -2 -5 6 -14 17
-20 11 -6 20 -8 20 -4 0 4 8 0 18 -9 10 -10 22 -15 25 -12 4 3 5 2 2 -2 -3 -3
1 -13 8 -21 10 -13 9 -15 -5 -10 -9 4 -19 4 -22 1 -5 -6 5 -17 38 -43 18 -14
19 -13 13 3 -6 15 -4 16 13 7 13 -7 21 -7 26 2 4 6 3 8 -4 4 -6 -3 -13 -2 -16
3 -4 5 2 8 11 6 10 -1 17 -8 15 -15 -2 -8 3 -10 13 -6 10 3 14 2 10 -5 -4 -6
-13 -8 -21 -5 -16 6 -19 -10 -3 -20 6 -3 16 -1 22 5 15 15 30 14 21 -1 -5 -8
-2 -9 9 -5 9 3 19 2 21 -2 9 -14 -6 -21 -25 -10 -13 6 -25 6 -37 0 -15 -8 -36
2 -108 50 -49 33 -88 64 -87 69 2 5 -3 7 -10 4 -7 -2 -22 5 -34 16 -12 11 -26
20 -30 20 -4 0 -19 9 -32 19 -18 14 -21 20 -11 26 8 5 11 4 7 -2 -4 -6 1 -10
11 -9 9 0 16 -5 14 -12 -1 -8 2 -11 8 -7 8 5 6 13 -4 24 -9 10 -13 21 -9 26 5
4 -6 0 -24 -9 -23 -12 -34 -13 -39 -4 -5 7 -3 8 6 3 9 -5 11 -4 6 4 -4 6 -12
9 -17 6 -12 -8 -80 45 -73 56 3 5 -1 6 -9 3 -32 -12 -37 69 -40 711 -2 596 -1
632 16 659 10 15 34 34 54 42 27 12 377 94 398 94 11 0 3 28 -17 60 -13 19
-29 60 -38 90 l-15 55 -80 2 c-44 1 -87 2 -96 2 -25 1 -32 31 -13 52 16 17 15
19 -7 28 -27 10 -111 27 -181 36 -26 3 -50 10 -53 14 -5 9 59 21 142 26 54 4
84 15 118 45 19 16 24 16 113 -13 50 -16 92 -34 92 -40 0 -5 -7 -7 -15 -4 -8
4 -53 15 -100 27 l-87 20 -25 -20 c-14 -11 -21 -20 -15 -20 6 0 14 5 17 10 3
6 18 10 33 10 18 0 23 -3 14 -8 -18 -12 17 -27 103 -45 75 -16 70 -18 110 38
8 11 21 70 30 130 35 242 110 543 190 770 86 242 228 506 393 727 23 31 42 62
42 67 0 6 -12 13 -27 17 -88 18 -139 59 -174 138 -68 154 72 416 341 639 112
93 172 133 284 193 l83 44 -5 54 c-8 100 30 158 158 241 122 79 317 162 490
206 51 13 47 16 -52 44 -153 42 -195 184 -90 305 80 94 175 114 537 115 149 0
354 -4 458 -8 103 -4 204 -5 224 -1 36 7 36 7 12 19 -13 7 -42 16 -64 20 -22
4 -48 11 -59 17 -17 9 -18 11 -3 20 21 11 22 48 2 48 -8 0 -15 9 -15 21 0 11
-5 17 -10 14 -6 -4 -7 -13 -1 -24 6 -10 6 -23 0 -32 -7 -11 -9 -11 -9 4 0 9
-6 17 -14 17 -8 0 -17 -8 -19 -17 -3 -11 -5 -6 -6 11 -1 16 -14 43 -33 65 -27
30 -29 36 -14 39 20 4 17 22 -7 34 -9 4 -25 12 -34 17 -10 4 -19 18 -21 30 -2
12 -18 31 -35 42 -18 10 -26 19 -19 19 6 0 12 5 12 10 0 6 -9 10 -20 10 -17 0
-20 7 -20 50 0 39 -4 53 -20 62 -11 7 -20 21 -20 30 0 11 -8 18 -20 18 -11 0
-20 4 -20 9 0 5 -9 11 -20 14 -12 3 -20 14 -20 26 0 14 5 19 15 15 10 -4 15 0
15 14 0 11 -7 22 -15 26 -9 3 -15 18 -15 34 0 16 -9 37 -20 47 -19 17 -20 17
-20 0 0 -17 -1 -17 -20 0 -11 10 -20 26 -20 36 0 9 -6 20 -12 23 -7 3 5 4 27
2 22 -3 32 -2 23 0 -10 3 -18 10 -18 15 0 5 -11 14 -25 19 -37 14 -30 38 8 31
5 -1 6 3 2 9 -3 5 -13 10 -21 10 -8 0 -14 7 -14 15 0 8 7 15 15 15 20 0 19 10
-2 26 -17 12 -16 13 5 14 19 0 22 5 22 39 0 33 -4 40 -22 43 -23 3 -23 3 5 30
19 18 24 28 15 31 -10 4 -10 8 2 16 10 7 11 11 3 11 -7 0 -13 7 -13 15 0 8 9
15 19 15 28 0 35 17 12 29 -14 8 -607 11 -1905 11 l-1886 0 2 -1042z m3758
842 c0 -11 -4 -20 -9 -20 -14 0 -23 18 -16 30 10 17 25 11 25 -10z m-1598
-622 c49 -63 126 -148 133 -148 3 0 -22 42 -56 93 l-61 92 91 -95 c50 -52 119
-128 154 -168 34 -40 84 -89 110 -108 69 -50 88 -110 42 -140 -23 -15 -27 -15
-62 3 -48 23 -53 45 -13 60 35 13 47 37 30 58 -18 22 -57 18 -74 -7 l-15 -21
-21 24 c-48 56 -210 270 -264 349 -64 93 -62 96 6 8z m1063 16 c0 -10 -8 -20
-17 -22 -18 -3 -26 27 -11 42 12 11 28 0 28 -20z m722 0 c-3 -3 -12 -4 -19 -1
-8 3 -5 6 6 6 11 1 17 -2 13 -5z m-376 -37 c55 -37 78 -109 44 -137 -21 -17
-39 -8 -71 41 -16 23 -38 47 -49 53 -26 14 -35 27 -35 49 0 26 68 23 111 -6z
m584 -307 c-3 -5 -12 -7 -20 -3 -21 7 -19 13 6 13 11 0 18 -4 14 -10z m-2380
-383 c94 -98 174 -185 178 -193 6 -10 2 -14 -11 -14 -35 0 -380 378 -465 510
-14 20 94 -89 298 -303z m-1558 196 c18 -26 1 -40 -21 -17 -19 18 -21 47 -4
42 6 -2 18 -14 25 -25z m4258 -49 c294 -43 654 -168 1095 -382 102 -49 186
-88 188 -87 2 1 -5 19 -14 39 -10 19 -15 39 -11 42 8 8 88 -43 169 -108 34
-27 99 -71 145 -99 75 -46 84 -54 94 -92 43 -164 213 -335 550 -554 126 -81
314 -223 398 -301 l36 -32 -78 40 c-81 42 -114 49 -55 11 18 -11 27 -21 19
-21 -11 0 -9 -4 5 -15 22 -17 38 -20 29 -5 -3 6 1 7 9 4 9 -3 16 -10 16 -15 0
-5 3 -8 8 -7 17 3 40 -15 35 -28 -3 -10 0 -12 10 -8 18 7 60 -13 52 -26 -3 -4
0 -10 7 -12 10 -4 10 -10 0 -29 -7 -13 -11 -17 -8 -8 2 9 -1 22 -7 28 -14 14
-50 15 -42 1 3 -5 2 -10 -4 -10 -5 0 -13 5 -16 10 -3 6 -12 10 -18 10 -7 0 -6
-4 3 -10 9 -6 10 -10 3 -10 -7 0 -27 13 -45 28 -45 38 -88 64 -88 53 0 -4 7
-14 15 -21 8 -7 15 -19 15 -26 0 -8 5 -14 10 -14 15 0 54 -42 55 -60 1 -12 -8
-16 -34 -17 -20 -1 -38 2 -41 5 -8 11 -62 42 -92 53 -16 6 -28 17 -28 24 0 7
-7 18 -15 25 -14 12 -14 15 0 30 15 16 14 18 -12 18 -15 0 -29 5 -31 11 -2 6
-10 11 -18 11 -8 0 -23 9 -34 20 -16 16 -17 20 -5 20 8 0 15 -4 15 -9 0 -9 52
-23 59 -16 4 5 -18 28 -44 44 l-20 13 20 -8 c11 -4 32 -9 48 -12 22 -3 26 -1
21 13 -4 10 -14 15 -25 12 -10 -3 -17 -2 -16 3 1 4 -17 23 -40 42 -31 26 -39
38 -30 47 8 8 8 11 -2 11 -61 0 -424 330 -576 524 -48 60 -89 103 -109 111
-32 14 -48 3 -27 -18 29 -29 -2 -77 -49 -77 -31 0 -70 39 -70 70 0 30 35 53
72 45 l33 -6 -32 21 c-62 41 -149 39 -172 -3 -11 -20 -10 -29 2 -53 33 -64
116 -127 468 -357 103 -67 209 -141 235 -164 27 -23 90 -74 139 -113 110 -87
120 -97 75 -75 -49 25 -123 76 -133 92 -4 7 -18 13 -31 13 -17 0 -22 6 -22 22
1 16 -6 24 -24 28 -14 3 -25 12 -25 20 0 8 -15 19 -35 24 -19 5 -38 15 -42 21
-9 15 -151 110 -230 154 -55 31 -56 31 -51 9 3 -13 33 -51 66 -84 69 -71 120
-153 108 -173 -8 -12 -91 52 -236 183 -27 25 -53 46 -57 46 -5 0 -39 21 -76
48 -82 57 -79 54 -222 139 -63 37 -124 73 -135 80 -11 7 -30 17 -42 22 -28 13
-43 37 -17 28 18 -7 18 -7 0 8 -20 15 -20 15 1 15 11 0 33 -4 49 -9 106 -34
109 -19 17 70 -124 119 -227 200 -389 308 -246 165 -487 280 -809 388 -123 41
-127 43 -70 37 33 -3 105 -12 160 -20z m-655 -14 c125 -37 170 -87 85 -96 -33
-4 -214 25 -270 42 -66 21 -93 40 -77 56 31 31 152 30 262 -2z m423 -296 c223
-24 495 -88 681 -160 141 -54 276 -115 272 -123 -2 -3 7 -7 20 -7 14 -1 31 -8
40 -15 13 -11 10 -15 -24 -30 l-40 -18 -123 39 c-115 37 -275 84 -376 110 -45
11 -51 18 -32 37 15 15 -28 27 -202 54 -169 27 -477 36 -644 20 -66 -7 -160
-14 -210 -17 -140 -7 -459 -68 -489 -93 -20 -17 -166 -69 -166 -60 0 13 103
77 187 116 81 38 252 95 353 119 188 45 498 56 753 28z m-2726 -257 c-1 -45
-3 -5 -3 88 0 94 2 130 3 82 2 -48 2 -125 0 -170z m-698 143 c72 -81 83 -100
57 -100 -16 0 -126 129 -138 161 -14 37 12 18 81 -61z m1217 39 c57 -27 99
-106 88 -165 -9 -51 -67 -112 -117 -124 -139 -31 -242 131 -157 248 16 23 40
44 52 46 13 3 32 7 43 9 38 9 49 7 91 -14z m5432 -444 c47 -71 113 -164 147
-205 97 -116 189 -259 214 -330 29 -85 38 -241 21 -358 -17 -117 -29 -143 -29
-69 -1 57 -15 87 -37 80 -18 -6 -65 62 -114 162 -24 50 -47 92 -51 95 -4 3
-12 48 -19 101 -12 105 -48 261 -74 323 -18 44 -31 44 -17 0 5 -16 12 -51 15
-79 5 -49 5 -49 -9 -20 -7 17 -14 26 -14 20 -1 -5 -19 42 -40 105 -20 63 -70
179 -109 257 -40 78 -72 146 -72 150 1 21 113 -117 188 -232z m-2163 185 c3
-5 2 -10 -4 -10 -5 0 -13 5 -16 10 -3 6 -2 10 4 10 5 0 13 -4 16 -10z m1370
-96 c139 -70 264 -154 321 -217 55 -60 133 -198 189 -332 80 -191 108 -252
142 -315 76 -141 568 -824 585 -814 4 3 -3 27 -17 54 -34 67 -106 248 -107
268 0 9 1 24 3 32 2 9 -2 14 -9 12 -8 -1 -11 2 -8 7 4 5 -5 43 -18 83 -29 86
-45 195 -27 184 6 -4 11 -14 11 -22 0 -21 64 -158 102 -219 18 -27 66 -97 107
-155 l76 -105 5 52 c7 71 16 74 24 9 7 -59 51 -193 145 -438 94 -247 142 -398
148 -465 4 -38 -1 -97 -11 -150 -8 -48 -21 -124 -26 -168 -15 -108 -46 -219
-77 -277 -28 -51 -54 -68 -29 -19 28 53 56 174 66 286 6 60 20 150 32 199 20
86 20 91 4 161 -30 128 -79 214 -215 375 -75 89 -75 89 -68 60 8 -33 -2 -70
-17 -64 -7 3 -18 -5 -24 -18 -10 -20 -10 -19 -5 12 6 33 6 34 -11 17 -22 -21
-27 -22 -19 0 5 12 3 14 -8 8 -8 -4 -11 -5 -7 -1 6 7 -81 168 -103 190 -16 17
-17 2 -4 -39 20 -58 30 -145 16 -145 -6 0 -11 8 -12 18 0 14 -2 14 -9 -3 -8
-18 -9 -17 -9 8 -1 15 -5 27 -11 27 -5 0 -10 8 -10 19 0 22 -23 44 -35 33 -5
-4 -5 -1 -1 6 8 14 -2 54 -12 48 -7 -4 -29 24 -91 118 -22 32 -71 94 -110 138
-39 43 -71 83 -71 87 0 4 -11 14 -25 21 -14 7 -25 19 -25 27 0 7 -7 13 -15 13
-8 0 -19 9 -25 20 -7 12 -16 18 -23 13 -9 -5 -9 -3 0 8 9 11 7 19 -8 38 -17
21 -24 20 -20 -1 0 -5 -4 -8 -9 -8 -6 0 -8 10 -4 24 3 13 1 27 -5 30 -14 9
-14 26 0 26 6 0 31 -14 56 -31 25 -18 44 -28 41 -23 -19 42 -32 64 -38 64 -4
0 -18 26 -31 58 -12 31 -27 60 -33 64 -6 4 -6 15 2 32 7 16 8 28 2 31 -6 4
-10 16 -10 27 0 12 -3 19 -6 15 -15 -14 -29 19 -27 64 0 27 -3 47 -7 44 -10
-6 -22 24 -14 36 3 5 0 9 -5 9 -6 0 -10 3 -10 8 4 17 -25 73 -42 83 -10 5 -19
13 -19 18 0 11 -86 101 -150 157 -66 57 -119 124 -159 204 -54 106 -77 139
-177 253 -14 16 -30 25 -37 21 -6 -4 -9 -4 -5 1 4 4 -12 23 -35 41 -41 33
-137 142 -137 156 0 9 81 -26 205 -88z m-5855 15 c0 -24 -23 -21 -28 4 -2 10
3 17 12 17 10 0 16 -9 16 -21z m2230 -77 c-19 -9 -118 -57 -220 -106 -102 -49
-188 -89 -193 -88 -4 1 -40 -15 -80 -35 -39 -20 -75 -36 -78 -35 -3 0 -61 -55
-129 -124 -68 -68 -125 -122 -128 -120 -8 9 52 107 105 171 101 123 262 231
423 285 71 24 271 68 310 68 23 1 22 -1 -10 -16z m1263 -109 c-7 -2 -21 -2
-30 0 -10 3 -4 5 12 5 17 0 24 -2 18 -5z m296 -43 c123 -30 308 -94 326 -112
7 -7 5 -9 -5 -5 -158 59 -301 97 -545 146 -46 10 -45 10 27 5 42 -2 131 -18
197 -34z m-954 -14 c-106 -43 -134 -58 -235 -124 -280 -183 -427 -372 -495
-635 -23 -90 -24 -91 -25 -42 0 62 38 202 75 275 121 239 349 436 605 523 141
48 188 50 75 3z m895 -61 c52 -7 120 -19 150 -26 l55 -12 -35 -9 c-19 -5 -75
-11 -124 -13 -48 -3 -93 -9 -100 -14 -6 -5 -49 -8 -96 -6 -71 2 -77 1 -35 -5
28 -5 84 -9 125 -10 43 -1 67 -5 57 -9 -12 -4 31 -14 111 -25 164 -22 263 -43
276 -57 8 -9 2 -10 -23 -5 -19 3 -84 9 -145 12 -88 5 -118 3 -146 -9 l-35 -15
35 -1 c96 -3 366 -64 485 -109 44 -17 77 -31 74 -31 -4 -1 -50 10 -104 24
-164 41 -390 75 -505 75 -45 0 -89 4 -98 9 -9 4 -44 11 -77 14 -41 3 -54 2
-40 -4 14 -7 7 -8 -27 -4 -59 6 -207 -32 -296 -76 -85 -41 -180 -136 -216
-215 -38 -80 -52 -182 -36 -257 6 -31 17 -63 23 -70 7 -7 21 -29 31 -49 10
-21 27 -45 37 -54 17 -16 18 -15 9 16 -7 25 -6 31 4 27 10 -4 14 20 15 114 3
168 29 240 123 340 121 130 295 189 555 189 124 0 286 -18 353 -40 l55 -18
-105 -2 c-118 -2 -113 -8 25 -35 84 -16 188 -45 183 -51 -3 -2 -61 6 -338 47
-128 19 -398 -3 -490 -40 -14 -5 -18 -10 -10 -11 12 0 11 -3 -3 -11 -9 -6 -15
-14 -12 -18 2 -5 -13 -16 -35 -26 -48 -22 -52 -37 -7 -28 29 6 31 5 18 -10 -7
-9 -10 -17 -5 -17 5 0 2 -5 -6 -10 -13 -9 -13 -10 0 -10 11 -1 10 -4 -5 -16
-19 -15 -19 -15 10 -9 24 5 20 0 -20 -21 -110 -59 -158 -115 -176 -207 -10
-49 -9 -64 6 -102 64 -170 317 -334 670 -436 131 -37 442 -99 650 -129 625
-89 1148 -226 1505 -396 124 -59 340 -198 407 -262 23 -22 45 -37 48 -33 4 3
6 1 5 -4 -1 -6 -2 -12 0 -15 1 -3 3 -16 6 -29 4 -20 2 -22 -11 -11 -8 7 -15 9
-15 6 0 -4 -19 8 -42 27 -53 43 -274 187 -287 187 -5 0 -11 5 -13 11 -2 5 -11
11 -20 12 -9 2 -24 9 -34 17 -14 12 -16 12 -9 1 6 -11 2 -13 -21 -7 -16 4 -49
9 -73 13 -42 6 -43 5 -36 -18 4 -13 11 -25 16 -27 50 -19 367 -256 377 -282 1
-4 -23 -26 -54 -50 l-56 -43 6 -53 6 -54 -37 16 c-21 8 -117 45 -213 80 -96
35 -215 80 -265 99 -472 182 -661 247 -800 276 -27 6 -135 30 -240 54 -104 23
-248 55 -320 70 -672 139 -1046 283 -1550 594 -175 108 -268 199 -314 306 -12
29 -15 42 -6 30 48 -64 129 -147 187 -193 l68 -53 -22 38 c-12 21 -34 54 -48
73 -45 58 -107 181 -130 255 -12 41 -24 112 -27 171 -10 179 32 269 194 411
69 59 85 83 35 47 -13 -9 -25 -14 -28 -11 -6 6 75 57 151 95 91 46 263 101
362 116 119 19 394 20 513 1z m-3357 -177 c33 -26 51 -68 29 -68 -5 0 -44 34
-88 76 l-79 76 50 -28 c28 -15 67 -40 88 -56z m-236 -5 c26 -14 74 -44 107
-67 32 -23 68 -48 80 -56 96 -66 155 -113 160 -125 5 -14 -2 -45 -10 -45 -8 0
-212 157 -296 227 -117 99 -126 114 -41 66z m-61 -123 c198 -102 320 -175 317
-188 -1 -5 9 -20 22 -32 24 -22 34 -60 17 -60 -4 0 -16 6 -27 14 -11 8 -81 45
-154 82 -105 54 -150 84 -208 137 -40 38 -90 82 -110 99 -47 37 -48 38 -38 38
4 0 86 -40 181 -90z m2558 42 c-60 -43 -162 -160 -199 -227 -89 -158 -87 -403
5 -585 17 -34 29 -64 27 -66 -7 -7 -56 55 -79 99 -79 155 -94 286 -49 425 40
122 156 274 265 348 61 41 85 46 30 6z m2970 -17 c3 -9 0 -15 -9 -15 -8 0 -15
7 -15 15 0 8 4 15 9 15 5 0 11 -7 15 -15z m-5549 -104 c28 -19 70 -53 95 -76
45 -42 205 -161 249 -184 12 -7 20 -15 17 -18 -14 -14 -501 317 -546 373 -18
20 110 -45 185 -95z m4142 53 c-3 -3 -12 -4 -19 -1 -8 3 -5 6 6 6 11 1 17 -2
13 -5z m-4530 -101 c30 -32 60 -67 65 -78 6 -11 6 -15 1 -10 -5 6 -38 40 -73
78 -35 37 -60 67 -56 67 5 0 33 -26 63 -57z m4640 11 c-3 -3 -12 -4 -19 -1 -8
3 -5 6 6 6 11 1 17 -2 13 -5z m1598 -119 c33 -15 50 -24 37 -21 -19 4 -21 2
-11 -10 7 -8 18 -13 26 -10 15 6 63 -13 63 -26 0 -12 -10 -10 -26 7 -9 8 -21
15 -27 15 -7 0 38 -47 98 -104 61 -57 108 -106 105 -109 -3 -3 -59 45 -125
105 -66 61 -138 119 -160 129 -35 16 -43 16 -74 3 -19 -8 -35 -13 -37 -12 -6
7 52 67 61 63 6 -2 37 -16 70 -30z m-4045 -100 c-104 -137 -180 -300 -212
-453 -37 -180 -9 -349 87 -517 41 -71 94 -140 102 -132 1 2 -7 27 -18 56 -33
89 -51 182 -50 267 1 128 17 147 24 28 9 -141 49 -269 123 -394 108 -183 411
-353 789 -440 135 -32 396 -68 615 -85 351 -28 388 -34 185 -30 -365 7 -792
69 -1070 155 -280 85 -597 302 -756 514 -60 80 -118 179 -119 201 0 5 15 -13
34 -40 19 -28 53 -68 76 -90 l42 -40 -27 40 c-48 71 -83 150 -104 231 -34 139
-35 191 -7 419 4 29 3 29 -40 -20 -25 -27 -61 -76 -82 -108 -49 -77 -54 -55
-7 31 49 89 99 153 198 253 77 78 243 218 259 219 4 0 -15 -29 -42 -65z m4083
-5 l40 -41 -23 -24 c-32 -34 -56 -31 -96 9 -40 40 -42 59 -12 80 33 24 46 20
91 -24z m-1428 -48 c62 -31 186 -114 205 -137 13 -16 10 -15 -25 2 -59 30 -90
38 -79 22 5 -8 10 -24 12 -36 10 -73 -199 35 -249 128 -10 20 -9 25 11 41 26
21 51 17 125 -20z m1815 18 c0 -5 -4 -10 -9 -10 -6 0 -13 5 -16 10 -3 6 1 10
9 10 9 0 16 -4 16 -10z m-5633 -182 c-2 -29 -3 -8 -3 47 0 55 1 79 3 53 2 -26
2 -71 0 -100z m5518 112 c3 -6 -1 -7 -9 -4 -18 7 -21 14 -7 14 6 0 13 -4 16
-10z m-144 -20 c16 -9 49 -58 49 -74 0 -2 -14 -7 -30 -11 -42 -9 -80 16 -80
54 0 42 20 52 61 31z m242 -14 c4 -10 1 -13 -8 -9 -8 3 -12 9 -9 14 7 12 11
11 17 -5z m-6642 -173 c13 -16 12 -17 -3 -4 -17 13 -22 21 -14 21 2 0 10 -8
17 -17z m6799 -48 c0 -8 -2 -15 -4 -15 -2 0 -6 7 -10 15 -3 8 -1 15 4 15 6 0
10 -7 10 -15z m1066 -172 c23 -84 26 -275 5 -343 -10 -31 -16 -39 -18 -25 -2
11 -16 80 -30 154 -18 94 -23 148 -19 183 7 52 24 98 36 98 5 0 16 -30 26 -67z
m-7086 32 c0 -8 -6 -15 -14 -15 -17 0 -28 14 -19 24 12 12 33 6 33 -9z m4628
-70 c158 -80 192 -104 97 -70 -83 31 -200 88 -235 115 -52 40 11 20 138 -45z
m-528 30 c46 -16 251 -127 246 -133 -5 -5 -201 55 -233 71 -16 8 -54 23 -86
32 -56 16 -58 16 -92 -5 -48 -30 -44 -17 7 20 47 34 91 39 158 15z m1385 -205
c22 -15 78 -48 125 -75 135 -76 220 -137 300 -214 60 -58 68 -68 40 -54 -19
10 -49 27 -65 39 -17 12 -84 50 -150 84 -126 67 -223 139 -315 236 l-55 57 40
-23 c22 -13 58 -36 80 -50z m-3140 -114 c33 -21 76 -49 95 -62 19 -13 125 -69
235 -124 198 -100 224 -120 70 -53 -169 73 -435 229 -477 280 -15 19 -18 21
77 -41z m-272 -161 c31 -21 57 -40 57 -42 0 -16 -160 97 -195 138 -11 13 3 5
30 -17 28 -23 76 -58 108 -79z m4688 -68 c-13 -13 -14 5 -3 43 l7 25 3 -29 c2
-16 -1 -33 -7 -39z m-74 1 c-3 -8 -6 -5 -6 6 -1 11 2 17 5 13 3 -3 4 -12 1
-19z m-355 -153 c11 -12 17 -35 17 -60 l-2 -40 -6 43 c-5 26 -19 55 -37 74
-16 18 -20 26 -9 18 11 -8 28 -23 37 -35z m497 -43 c0 -19 -11 -67 -25 -109
-26 -75 -30 -151 -9 -198 9 -19 9 -19 -11 0 -38 37 -48 80 -34 142 7 31 19 63
26 71 8 7 14 22 14 32 0 10 5 22 10 25 6 3 11 34 11 68 1 50 3 56 9 32 4 -16
8 -45 9 -63z m98 -172 c15 -52 8 -107 -18 -141 l-19 -24 -20 24 c-12 13 -20
38 -20 58 0 42 39 135 54 130 6 -2 16 -23 23 -47z m-90 -42 c-2 -13 -4 -5 -4
17 -1 22 1 32 4 23 2 -10 2 -28 0 -40z m-7567 -9 c0 -6 -4 -7 -10 -4 -5 3 -10
11 -10 16 0 6 5 7 10 4 6 -3 10 -11 10 -16z m102 -195 c363 -57 425 -68 435
-78 14 -14 -9 -12 -127 10 -69 14 -172 31 -230 39 -197 29 -415 67 -430 76 -8
5 -12 9 -8 9 4 0 166 -25 360 -56z m7280 -138 c16 -29 -7 -11 -33 27 l-23 32
23 -20 c13 -11 27 -28 33 -39z m-7212 -5 c42 -8 43 -9 10 -9 -19 -1 -53 3 -75
7 -35 8 -36 9 -10 9 17 0 50 -3 75 -7z m4490 -416 l0 -115 -97 0 c-54 0 -149
-3 -210 -7 l-113 -6 0 -117 0 -117 180 5 c103 3 180 1 180 -4 0 -5 -35 -54
-78 -109 l-78 -100 -102 -3 -102 -3 0 -111 0 -111 210 7 210 7 0 -121 0 -120
-167 0 c-93 0 -246 -3 -340 -7 l-173 -6 0 571 0 572 183 3 c100 1 253 3 340 5
l157 2 0 -115z m807 101 c5 -5 6 -39 4 -138 l-1 -88 -223 0 -223 0 2 -27 c1
-16 2 -74 3 -130 l1 -103 138 -1 c75 0 156 -4 180 -7 l42 -7 -80 -102 -81
-103 -99 0 -100 0 -2 -207 -3 -208 -132 -3 -133 -3 0 572 0 572 352 -7 c194
-4 354 -8 355 -10z m332 -12 l44 -6 -4 -446 -4 -447 210 -20 210 -20 3 -117
c1 -65 1 -118 0 -118 -2 0 -104 9 -228 19 -124 11 -278 23 -342 27 l-118 7 0
566 0 566 92 -3 c51 -1 113 -5 137 -8z m-1919 -563 l0 -569 -92 -7 c-51 -4
-111 -5 -133 -3 l-40 3 -5 300 c-4 228 -8 294 -16 275 -6 -14 -55 -147 -108
-297 -54 -150 -103 -279 -110 -287 -8 -11 -41 -17 -116 -22 l-105 -6 -66 183
c-37 101 -84 232 -105 291 -22 60 -42 108 -46 108 -5 0 -8 -137 -8 -305 l0
-304 -32 -5 c-41 -7 -209 -26 -225 -26 -10 0 -13 124 -13 585 l0 584 33 5 c71
11 302 25 309 18 6 -7 165 -414 230 -589 17 -46 34 -83 38 -83 4 0 10 10 13
23 5 22 76 218 190 517 l62 165 95 6 c52 3 130 6 173 7 l77 2 0 -569z m2961
489 c172 -20 208 -30 245 -72 51 -55 54 -73 54 -306 l0 -219 -122 19 c-67 10
-126 24 -130 31 -4 7 -8 78 -8 159 l0 147 -42 6 c-74 10 -219 21 -223 16 -3
-2 -5 -69 -5 -148 l0 -143 -27 1 c-16 0 -73 6 -128 12 l-100 12 0 212 c0 198
1 213 21 240 11 15 36 36 55 46 40 22 131 19 410 -13z m-4487 -32 c3 -13 28
-133 56 -268 94 -454 170 -832 170 -850 0 -22 -11 -26 -120 -40 -47 -5 -99
-12 -116 -15 l-31 -5 -17 82 c-9 46 -16 93 -16 106 0 12 -2 22 -4 22 -13 0
-259 -40 -262 -42 -2 -2 -11 -53 -21 -113 l-19 -110 -94 -17 c-192 -33 -180
-33 -175 -1 61 350 241 1212 257 1229 7 6 287 41 345 43 37 1 43 -2 47 -21z
m5025 -23 c57 -8 107 -18 111 -22 7 -7 29 -154 86 -571 10 -67 20 -119 24
-115 8 10 68 274 111 492 l32 163 51 -6 c77 -11 95 -16 100 -34 3 -10 19 -82
36 -162 16 -80 51 -232 77 -339 40 -162 49 -188 54 -161 4 19 20 168 35 332
17 186 32 298 38 298 18 -1 258 -49 263 -53 2 -2 -6 -76 -16 -163 -40 -320
-81 -672 -91 -779 -14 -142 -27 -191 -58 -215 -31 -25 -52 -25 -176 1 l-101
21 -58 242 c-32 132 -62 252 -66 265 -5 18 -21 -32 -60 -195 -29 -120 -55
-227 -57 -236 -6 -22 -31 -22 -139 -3 -44 8 -91 15 -105 15 -14 0 -30 4 -37 8
-12 8 -42 173 -123 677 -23 143 -55 325 -71 404 -16 79 -29 148 -29 153 0 5
15 6 33 3 17 -3 79 -12 136 -20z m-5772 -81 c35 -26 54 -65 61 -119 l4 -42
-58 -11 c-399 -74 -498 -96 -515 -113 -18 -18 -19 -42 -19 -395 l0 -376 23 4
c12 3 75 15 140 29 l117 24 0 137 c0 76 -1 138 -2 138 -2 0 -41 -7 -88 -15
-47 -8 -88 -15 -92 -15 -7 0 -12 230 -5 230 1 0 103 18 227 39 l225 38 3 -360
c2 -281 -1 -364 -10 -373 -11 -9 -415 -95 -601 -127 -78 -13 -127 2 -164 50
l-28 36 -3 497 -3 497 29 54 c48 92 83 107 382 164 219 41 330 44 377 9z
m4888 -439 c33 -3 72 -8 88 -11 l27 -6 0 -152 0 -153 108 -12 c59 -7 121 -15
137 -17 l30 -5 -3 145 -4 146 27 0 c14 0 73 -7 131 -16 l104 -17 0 -209 c0
-230 -5 -255 -60 -283 -40 -21 -112 -19 -354 10 -289 35 -307 41 -349 118 -20
39 -22 57 -25 260 l-4 218 44 -5 c23 -3 70 -8 103 -11z m-2030 -670 c47 -46
37 -61 -162 -229 -107 -90 -163 -144 -163 -156 0 -22 122 -128 158 -137 26 -6
65 17 167 104 157 132 274 223 299 233 43 16 61 12 109 -22 88 -63 286 -238
292 -258 12 -37 -5 -58 -98 -125 -51 -36 -139 -102 -197 -146 -58 -45 -118
-91 -134 -102 -16 -12 -45 -34 -64 -50 -21 -16 -42 -25 -53 -22 -9 3 -20 1
-24 -4 -4 -7 1 -9 12 -5 10 3 1 -9 -21 -27 -21 -18 -45 -47 -52 -64 -8 -19
-13 -23 -14 -12 0 23 26 74 42 81 7 3 3 3 -9 0 -27 -6 -31 11 -5 25 9 6 13 11
8 11 -6 0 -1 7 10 15 19 15 19 15 -1 31 -20 15 -20 16 8 40 15 13 24 24 20 24
-5 0 -14 -5 -21 -12 -7 -7 -12 -9 -12 -6 0 7 174 157 305 262 l99 80 -69 62
c-38 35 -77 65 -86 67 -25 7 -53 -13 -259 -182 -196 -161 -230 -180 -284 -157
-28 12 -226 165 -288 223 -29 27 -40 63 -26 87 10 17 347 324 405 369 44 33
77 34 108 2z m-699 -110 c84 -35 77 -154 -11 -171 -97 -18 -163 90 -96 157 33
33 56 36 107 14z m5224 -16 c10 -6 4 -7 -15 -3 -16 4 -37 11 -45 15 -10 6 -4
7 15 3 17 -4 37 -11 45 -15z m55 -19 c13 -6 15 -9 5 -9 -8 0 -22 4 -30 9 -18
12 -2 12 25 0z m73 -24 c3 -3 0 -6 -6 -6 -7 0 -12 -5 -12 -11 0 -5 6 -7 13 -3
8 6 8 3 -1 -9 -12 -14 -11 -15 15 -10 43 10 88 6 125 -10 18 -9 44 -18 58 -22
14 -4 36 -14 50 -23 13 -8 39 -16 56 -18 18 -2 52 -12 75 -23 24 -12 49 -21
57 -21 8 0 12 -6 9 -14 -3 -8 -1 -17 6 -20 7 -3 -2 -3 -20 0 -17 3 -46 7 -65
9 -18 3 -34 9 -36 15 -2 5 -10 10 -18 10 -9 0 -12 -4 -9 -10 3 -5 -1 -10 -9
-10 -20 0 -29 17 -14 24 7 3 2 3 -11 0 -13 -3 -29 -7 -35 -8 -6 -1 -17 -5 -24
-10 -8 -5 -18 -4 -25 3 -6 6 -21 11 -33 11 -13 0 -29 7 -37 15 -8 8 -17 12
-20 9 -2 -3 -16 -2 -31 2 -27 6 -27 24 0 24 8 0 12 -5 8 -11 -4 -6 1 -10 12
-8 11 1 32 -3 47 -9 35 -15 77 -16 77 -2 0 6 -9 10 -20 10 -11 0 -36 9 -55 20
-20 11 -34 16 -30 10 7 -12 -2 -12 -30 0 -14 6 -15 9 -5 10 8 1 -11 9 -43 20
-32 10 -64 26 -70 35 -7 9 -22 17 -34 18 -12 0 -19 5 -16 11 4 5 -3 7 -15 4
-12 -4 -20 -2 -17 2 6 9 123 5 133 -4z m-134 -27 c-6 -10 44 -32 60 -26 10 4
13 1 10 -8 -5 -11 -12 -11 -44 0 -21 7 -51 20 -65 28 l-27 14 35 -1 c19 -1 33
-4 31 -7z m56 -9 c0 -5 -7 -7 -15 -4 -8 4 -15 8 -15 10 0 2 7 4 15 4 8 0 15
-4 15 -10z m-8927 -20 c35 -28 42 -56 23 -85 -21 -31 -63 -33 -100 -4 -33 26
-35 71 -4 93 30 21 50 20 81 -4z m5183 -40 c9 0 13 -4 10 -9 -7 -11 -44 -3
-53 12 -4 7 0 8 11 4 10 -4 24 -7 32 -7z m3114 -44 c0 -2 -7 -7 -16 -10 -8 -3
-12 -2 -9 4 6 10 25 14 25 6z m1226 -48 c5 4 2 -1 -5 -10 -15 -20 -9 -23 20
-8 10 6 19 8 19 6 0 -14 -41 -26 -58 -17 -13 8 -13 10 -3 11 11 0 10 4 -5 16
-18 15 -18 15 2 5 12 -6 25 -7 30 -3z m-230 -25 c-3 -3 -17 -2 -33 1 -20 6
-23 10 -13 16 14 9 57 -7 46 -17z m-1073 -3 c-7 -8 -52 -7 -47 1 2 4 15 6 28
5 13 0 22 -3 19 -6z m-6220 -131 c5 -4 6 -12 2 -19 -5 -8 -4 -11 3 -6 6 3 45
-39 92 -100 45 -58 127 -157 182 -220 l100 -115 34 31 c28 24 44 30 82 30 130
0 301 -171 259 -259 -41 -86 -235 -64 -314 35 -15 20 -78 88 -140 152 -152
160 -259 291 -248 306 3 3 2 4 -2 1 -3 -3 -33 31 -65 76 l-59 80 -47 -7 c-26
-3 -103 -19 -172 -35 -69 -16 -147 -33 -175 -39 -86 -19 -219 -51 -250 -60
-16 -5 -57 -14 -90 -21 -52 -10 -65 -10 -90 4 l-30 16 25 10 25 10 -24 0 c-46
2 -13 12 42 14 37 1 53 -1 47 -8 -6 -7 -2 -11 8 -12 9 -1 31 -2 47 -3 31 -2
119 20 132 33 4 5 -1 5 -11 1 -13 -5 -17 -4 -13 3 4 6 28 14 54 18 33 5 42 9
32 16 -11 7 -10 9 6 7 58 -4 146 3 140 12 -3 6 -3 10 2 10 13 0 134 27 181 39
23 7 40 16 38 20 -7 11 108 35 129 28 8 -4 15 -1 15 5 0 6 10 -2 22 -18 12
-16 26 -32 31 -35z m-1168 21 c-3 -5 -10 -10 -16 -10 -5 0 -9 5 -9 10 0 6 7
10 16 10 8 0 12 -4 9 -10z m4620 -26 c-53 -47 -124 -102 -104 -80 21 22 132
115 139 115 3 0 -13 -16 -35 -35z m-4587 14 c-2 -7 7 -17 20 -23 20 -9 30 -25
16 -25 -12 0 -63 48 -57 54 11 10 23 7 21 -6z m32 8 c0 -3 -4 -8 -10 -11 -5
-3 -10 -1 -10 4 0 6 5 11 10 11 6 0 10 -2 10 -4z m6285 -10 c11 -2 26 -5 33
-5 7 -1 10 -6 6 -13 -4 -7 -3 -8 5 -4 15 9 44 -20 35 -35 -4 -7 -3 -9 4 -5 6
3 14 1 18 -5 5 -9 0 -10 -17 -5 -13 4 -44 9 -69 12 -25 3 -61 9 -80 15 -51 13
-110 11 -110 -3 0 -10 -2 -10 -8 -1 -4 6 -20 15 -35 18 -26 7 -27 9 -12 25 13
14 31 16 113 14 53 -2 106 -5 117 -8z m915 -11 c-5 -5 -22 -18 -38 -27 -26
-16 -31 -16 -48 -2 -18 14 -18 15 6 9 23 -6 24 -5 7 9 -18 14 -17 15 15 18 58
5 67 4 58 -7z m-8213 -11 c-3 -3 -12 -4 -19 -1 -8 3 -5 6 6 6 11 1 17 -2 13
-5z m1113 -31 c0 -7 -39 17 -46 28 -3 6 5 3 20 -6 14 -10 26 -19 26 -22z
m7008 -2 c11 -6 7 -13 -15 -29 -23 -16 -30 -17 -40 -7 -10 10 -9 14 2 19 8 3
22 3 30 0 8 -4 15 -1 15 4 0 6 -8 13 -17 15 -13 3 -14 5 -3 6 8 0 21 -3 28 -8z
m-6733 -71 c-3 -5 -14 -10 -23 -9 -14 0 -13 2 3 9 27 11 27 11 20 0z m4032
-10 c-14 -11 -28 -20 -32 -20 -10 0 38 39 49 40 5 0 -3 -9 -17 -20z m-4237
-10 c0 -5 -2 -10 -4 -10 -3 0 -8 5 -11 10 -3 6 -1 10 4 10 6 0 11 -4 11 -10z
m6740 -39 c14 -12 21 -20 15 -20 -5 0 -26 14 -45 31 -37 32 -13 23 30 -11z
m588 8 c-2 -6 -8 -10 -13 -10 -5 0 -11 4 -13 10 -2 6 4 11 13 11 9 0 15 -5 13
-11z m-1497 -183 c-13 -13 -43 -37 -67 -52 -24 -15 -44 -31 -44 -35 0 -16 -72
-31 -120 -24 l-50 7 -82 -74 c-46 -40 -91 -80 -101 -89 -10 -9 -15 -23 -11
-32 13 -34 -16 -16 -31 19 -8 19 -25 44 -37 54 -25 21 -18 26 12 10 21 -11 54
15 204 162 l59 57 29 -24 c46 -39 139 -29 218 21 45 29 48 29 21 0z m-2451 4
c13 -8 12 -11 -5 -25 -41 -31 -53 -35 -59 -19 -3 8 -2 12 3 9 5 -3 12 -1 16 5
3 5 1 10 -6 10 -7 0 -4 7 7 15 23 17 25 17 44 5z m-75 -123 c-4 -20 -1 -43 9
-62 9 -17 16 -24 16 -17 0 7 -4 22 -10 32 -11 20 12 91 23 73 4 -6 0 -19 -8
-29 -18 -24 -18 -29 1 -48 14 -15 13 -19 -20 -52 -27 -27 -41 -34 -57 -29 -14
5 -19 3 -15 -3 3 -6 2 -13 -4 -17 -5 -3 -10 -2 -10 3 0 5 -18 8 -40 7 -22 -1
-37 2 -34 7 3 5 14 6 25 3 10 -4 26 -2 35 3 15 9 15 10 -5 17 -11 3 -18 11
-15 17 4 6 9 5 15 -3 7 -11 11 -10 24 6 14 17 16 17 11 3 -6 -21 5 -23 22 -6
9 9 7 14 -6 25 -16 12 -16 13 1 7 9 -3 17 -2 17 4 0 6 -6 12 -12 15 -7 2 -9 8
-5 13 4 5 12 2 17 -6 8 -12 10 -10 10 8 0 15 -4 21 -12 16 -11 -7 -5 8 15 34
15 19 18 14 12 -21z m-2507 -37 c-20 -11 -50 -36 -67 -57 -25 -31 -31 -47 -31
-86 0 -27 5 -58 11 -70 10 -22 10 -22 -6 -2 -12 15 -16 35 -13 80 4 71 32 118
81 140 48 20 67 17 25 -5z m-1084 -153 c-16 -12 -40 -32 -54 -44 -62 -56 -204
-153 -216 -149 -8 3 -13 1 -11 -3 3 -13 -71 -61 -94 -61 -11 0 -18 -4 -14 -9
3 -5 0 -13 -6 -17 -8 -5 -9 -3 -4 6 5 8 3 11 -4 9 -7 -3 -12 -8 -11 -13 2 -11
-33 -35 -43 -29 -15 9 12 30 171 133 86 56 189 124 227 151 71 49 114 68 59
26z m5632 -52 c-9 -13 -16 -31 -16 -39 0 -17 -32 -76 -41 -76 -4 0 2 17 12 37
10 21 19 45 19 54 0 29 11 49 27 49 13 0 13 -3 -1 -25z m-2366 -73 c0 -9 -64
45 -68 58 -3 7 12 -2 32 -20 20 -18 36 -35 36 -38z m-2242 13 c-3 -3 -9 2 -12
12 -6 14 -5 15 5 6 7 -7 10 -15 7 -18z m116 -47 l51 -1 -44 -4 c-48 -5 -96 11
-105 34 -4 10 2 8 20 -6 18 -14 43 -22 78 -23z m1188 -45 c447 -361 1308 -963
1377 -963 15 0 55 17 91 38 129 76 503 329 677 459 62 46 114 83 118 83 3 0 5
-26 5 -57 0 -78 15 -128 47 -153 52 -41 150 -12 172 52 6 17 12 92 12 167 1
75 4 149 8 165 5 24 37 52 161 142 85 62 158 113 161 114 4 0 9 -16 11 -35 4
-35 1 -38 -86 -103 -50 -38 -115 -85 -143 -106 l-53 -38 0 -128 c0 -179 -11
-223 -69 -282 -37 -37 -55 -47 -92 -53 -80 -12 -157 42 -179 126 -6 22 -16 39
-23 39 -7 0 -55 -30 -107 -66 -254 -174 -579 -382 -664 -424 -60 -30 -109 -8
-376 170 -227 151 -449 306 -730 509 -286 207 -310 222 -320 216 -6 -3 -10
-47 -10 -101 0 -90 -1 -96 -27 -120 -15 -14 -33 -22 -40 -20 -7 3 -13 1 -13
-5 0 -6 -6 -9 -12 -6 -7 2 -24 -4 -38 -13 -14 -9 -45 -24 -70 -33 -112 -40
-184 -69 -242 -98 -55 -28 -107 -51 -255 -115 -18 -8 -33 -12 -33 -8 0 10 397
198 527 250 115 46 123 51 123 77 0 30 -4 32 -50 16 -40 -14 -49 -3 -50 61 -1
25 -10 77 -21 115 -11 39 -21 78 -22 87 -2 16 107 116 128 117 6 1 54 -34 107
-76z m-393 23 c-2 -2 -33 -18 -69 -34 -107 -51 -189 -99 -182 -108 4 -4 2 -4
-4 -1 -12 7 -171 -61 -331 -142 -57 -28 -103 -49 -103 -47 0 5 119 74 222 130
99 53 460 215 467 210 2 -2 2 -6 0 -8z m877 -54 c-4 -3 -14 2 -24 12 -16 18
-16 18 6 6 13 -6 21 -14 18 -18z m199 -136 c33 -22 94 -65 136 -96 42 -31 157
-110 255 -175 305 -202 296 -197 324 -190 19 5 22 4 13 -5 -7 -8 -22 -9 -45
-4 -18 4 -37 7 -41 6 -5 -2 -5 3 -1 9 5 9 2 10 -10 6 -10 -4 -15 -3 -11 3 3 6
2 10 -4 10 -20 0 -731 495 -771 538 -8 8 10 -2 40 -23 30 -22 82 -57 115 -79z
m2385 74 c0 -5 -2 -10 -4 -10 -3 0 -8 5 -11 10 -3 6 -1 10 4 10 6 0 11 -4 11
-10z m-3643 -75 c27 -8 58 -24 68 -35 10 -11 22 -17 28 -13 6 3 7 1 3 -5 -4
-6 0 -24 8 -39 8 -16 15 -24 16 -20 0 5 -5 17 -10 28 -6 11 -7 19 -2 19 16 0
21 -40 10 -73 -13 -38 -27 -57 -40 -57 -7 0 -7 4 -1 13 6 6 13 27 16 44 12 64
-67 123 -165 123 -21 0 -38 -3 -38 -8 0 -4 25 -18 55 -31 88 -38 111 -84 53
-105 -57 -20 -178 51 -178 104 0 62 75 85 177 55z m57 7 c3 -5 -1 -9 -9 -9 -8
0 -12 4 -9 9 3 4 7 8 9 8 2 0 6 -4 9 -8z m31 -32 c3 -5 2 -10 -4 -10 -5 0 -13
5 -16 10 -3 6 -2 10 4 10 5 0 13 -4 16 -10z m-2815 -10 c0 -5 -8 -10 -17 -10
-15 0 -16 2 -3 10 19 12 20 12 20 0z m-40 -14 c0 -2 -7 -7 -16 -10 -8 -3 -12
-2 -9 4 6 10 25 14 25 6z m-35 -26 c3 -5 2 -10 -4 -10 -5 0 -13 5 -16 10 -3 6
-2 10 4 10 5 0 13 -4 16 -10z m5286 -203 c-5 -5 -15 -6 -21 -2 -16 10 -8 132
11 165 13 23 14 18 17 -64 2 -49 -1 -93 -7 -99z m-251 -31 c0 -5 -122 -85
-184 -120 -91 -51 -23 3 80 65 106 62 104 61 104 55z m-1578 -56 c36 -22 100
-26 142 -10 33 12 35 -4 4 -24 -55 -34 -118 -28 -165 16 -21 20 -30 38 -18 38
2 0 19 -9 37 -20z m498 -136 c0 -33 -33 -30 -38 4 -3 17 2 22 17 22 16 0 21
-6 21 -26z m-2824 -202 c-17 -16 -18 -16 -5 5 7 12 15 20 18 17 3 -2 -3 -12
-13 -22z m-635 -268 c62 -31 109 -103 109 -166 0 -26 -13 -22 -64 17 -25 19
-46 32 -46 29 0 -3 -20 11 -45 32 -33 27 -43 40 -35 49 8 9 4 11 -15 7 -21 -4
-24 -1 -18 14 5 14 3 16 -11 11 -12 -5 -16 -3 -14 5 10 29 85 30 139 2z m1398
-63 c11 -7 10 -14 -5 -37 -17 -28 -16 -28 20 6 32 29 24 15 -39 -75 -89 -126
-323 -428 -384 -495 -32 -35 -43 -42 -50 -31 -5 8 -7 20 -4 28 4 9 -4 13 -23
13 -67 1 -62 19 39 130 55 60 55 76 0 33 -60 -47 -146 -100 -173 -108 -24 -7
-24 -7 -5 9 19 15 19 15 -10 16 -25 1 -27 2 -12 11 21 12 22 38 2 45 -11 5
-13 10 -5 19 8 9 7 14 -2 17 -7 3 23 29 67 58 44 30 127 91 184 136 58 46 109
81 113 78 5 -3 7 -2 6 3 -5 13 90 95 97 83 3 -5 11 -10 17 -10 7 0 6 6 -2 15
-16 20 -6 19 28 -2 l27 -17 -25 28 c-21 24 -22 27 -5 18 25 -13 37 -13 52 0 7
5 16 7 21 4 5 -3 16 4 25 15 19 21 26 23 46 10z m-1813 -35 c58 -58 43 -135
-28 -142 -28 -3 -41 1 -61 22 -15 15 -24 30 -21 35 3 5 -2 19 -10 31 -35 50
-12 87 53 88 25 0 42 -9 67 -34z m8417 -182 c91 -46 121 -130 67 -184 -30 -30
-66 -35 -112 -14 -93 42 -128 155 -60 197 34 21 64 21 105 1z m-7733 -71 c42
-38 51 -97 21 -135 -19 -24 -29 -27 -76 -27 -40 1 -58 6 -71 20 -10 11 -12 19
-6 19 7 0 12 -5 12 -12 0 -6 2 -9 4 -7 8 8 -26 99 -35 93 -13 -8 -11 3 6 36
17 33 27 38 77 39 28 1 46 -6 68 -26z m5429 -93 c-1 -16 -48 78 -48 95 0 6 11
-10 24 -35 13 -25 24 -52 24 -60z m39 -84 c0 -5 5 -12 10 -15 9 -6 184 -348
202 -397 10 -25 -12 -58 -34 -51 -12 4 -205 482 -205 507 0 16 27 -28 27 -44z
m-4254 -201 c-4 -8 -1 -15 6 -15 6 0 8 -5 4 -11 -4 -8 -9 -7 -16 2 -7 10 -8 8
-5 -8 8 -35 -124 -220 -146 -206 -6 4 -8 0 -4 -10 4 -11 2 -14 -9 -10 -36 14
1 80 125 221 50 57 53 59 45 37z"/>
<path d="M7070 7249 c0 -5 5 -7 10 -4 6 3 10 8 10 11 0 2 -4 4 -10 4 -5 0 -10
-5 -10 -11z"/>
<path d="M6860 7241 c0 -5 5 -13 10 -16 6 -3 10 -2 10 4 0 5 -4 13 -10 16 -5
3 -10 2 -10 -4z"/>
<path d="M7065 7220 c3 -5 11 -10 16 -10 6 0 7 5 4 10 -3 6 -11 10 -16 10 -6
0 -7 -4 -4 -10z"/>
<path d="M1923 8439 c-47 -14 -73 -53 -73 -108 0 -26 7 -56 16 -69 76 -109
266 -23 224 102 -6 19 -18 40 -27 48 -14 12 -14 10 0 -19 25 -48 22 -99 -8
-127 -29 -27 -72 -38 -97 -25 -29 16 -60 67 -56 96 5 45 32 35 32 -11 1 -45
20 -62 59 -52 67 16 86 85 40 135 -32 35 -65 44 -110 30z"/>
<path d="M4368 7710 c24 -3 60 -3 80 1 28 5 16 7 -43 7 -66 0 -72 -2 -37 -8z"/>
<path d="M4058 7693 c7 -3 16 -2 19 1 4 3 -2 6 -13 5 -11 0 -14 -3 -6 -6z"/>
<path d="M3965 7670 c-3 -5 1 -10 9 -10 8 0 18 5 21 10 3 6 -1 10 -9 10 -8 0
-18 -4 -21 -10z"/>
<path d="M3768 7585 c-134 -67 -180 -98 -241 -164 -106 -113 -131 -246 -73
-386 32 -78 52 -108 40 -60 -13 49 -10 206 5 260 20 69 60 147 72 140 5 -4 7
-15 4 -26 -4 -10 0 -33 9 -49 8 -17 11 -28 7 -25 -5 2 -13 -6 -19 -19 -9 -20
-8 -24 6 -21 9 1 20 -3 24 -9 4 -6 8 0 8 14 0 32 11 48 43 65 16 8 29 9 35 3
6 -6 8 -1 5 15 -3 16 1 29 14 38 10 8 23 23 30 34 6 11 16 19 22 18 6 -2 11 1
11 6 0 4 14 22 30 39 17 18 30 41 30 52 0 12 5 18 10 15 6 -4 7 -11 4 -17 -4
-6 -2 -8 4 -5 5 4 8 16 5 27 -4 13 1 22 13 26 11 3 27 9 36 14 11 6 18 5 21
-3 3 -7 6 -6 6 4 1 10 13 19 32 23 44 9 51 8 43 -6 -5 -7 -3 -8 5 -3 15 9 4
21 -24 28 -18 4 -18 5 3 6 12 0 22 6 22 11 0 11 -74 3 -102 -11 -28 -15 -45
-9 -18 6 22 13 23 14 5 14 -11 0 -68 -24 -127 -54z m52 -37 c0 -6 -6 -5 -15 2
-8 7 -15 14 -15 16 0 2 7 1 15 -2 8 -4 15 -11 15 -16z m-225 -158 c0 -25 -2
-27 -14 -15 -12 11 -12 17 -1 29 16 20 15 21 15 -14z"/>
<path d="M3950 7570 c-8 -5 -10 -10 -5 -10 6 0 17 5 25 10 8 5 11 10 5 10 -5
0 -17 -5 -25 -10z"/>
<path d="M3703 7345 c-3 -9 -3 -18 -1 -21 3 -3 8 4 11 16 6 23 -1 27 -10 5z"/>
<path d="M3587 7190 c3 -11 7 -20 9 -20 2 0 4 9 4 20 0 11 -4 20 -9 20 -5 0
-7 -9 -4 -20z"/>
<path d="M3562 7175 c0 -16 2 -22 5 -12 2 9 2 23 0 30 -3 6 -5 -1 -5 -18z"/>
<path d="M5470 6231 c0 -4 33 -12 73 -15 39 -4 103 -14 140 -22 79 -16 121
-18 97 -5 -16 10 -252 51 -289 51 -11 0 -21 -4 -21 -9z"/>
<path d="M5414 6175 c-8 -19 3 -35 25 -35 9 0 22 -5 28 -11 5 -5 21 -11 34
-13 13 -2 31 -6 39 -9 8 -3 74 -24 145 -47 152 -49 328 -136 396 -198 46 -41
57 -46 176 -72 123 -28 239 -60 332 -94 24 -9 46 -16 49 -16 12 0 -75 84 -159
155 -208 174 -448 288 -669 315 -41 6 -128 17 -193 25 -151 19 -196 19 -203 0z"/>
<path d="M7276 5642 c-3 -5 1 -9 9 -9 8 0 12 4 9 9 -3 4 -7 8 -9 8 -2 0 -6 -4
-9 -8z"/>
<path d="M1170 7345 c14 -8 30 -14 35 -14 6 0 -1 6 -15 14 -14 8 -29 14 -35
14 -5 0 1 -6 15 -14z"/>
<path d="M8311 6534 c0 -11 3 -14 6 -6 3 7 2 16 -1 19 -3 4 -6 -2 -5 -13z"/>
<path d="M2641 4390 c-24 -138 -41 -253 -39 -256 3 -3 45 0 93 7 86 12 87 13
82 38 -3 14 -22 116 -42 226 -20 110 -40 208 -43 218 -4 10 -26 -90 -51 -233z"/>
<path d="M2486 3201 c-4 -5 3 -7 14 -4 23 6 26 13 6 13 -8 0 -17 -4 -20 -9z"/>
<path d="M1788 3013 c7 -3 16 -2 19 1 4 3 -2 6 -13 5 -11 0 -14 -3 -6 -6z"/>
<path d="M5070 2820 c0 -5 5 -10 10 -10 6 0 10 5 10 10 0 6 -4 10 -10 10 -5 0
-10 -4 -10 -10z"/>
<path d="M5006 2645 c-3 -8 -1 -15 4 -15 6 0 10 7 10 15 0 8 -2 15 -4 15 -2 0
-6 -7 -10 -15z"/>
<path d="M5000 2605 c-20 -24 -6 -28 15 -5 10 11 13 20 8 20 -6 0 -16 -7 -23
-15z"/>
<path d="M2250 1100 c0 -5 5 -10 10 -10 6 0 10 5 10 10 0 6 -4 10 -10 10 -5 0
-10 -4 -10 -10z"/>
<path d="M1668 722 c-16 -9 -28 -21 -28 -26 0 -5 8 -2 18 6 9 8 26 20 37 26
11 6 16 11 10 11 -5 0 -22 -7 -37 -17z"/>
<path d="M1760 544 c0 -8 5 -12 10 -9 6 4 8 11 5 16 -9 14 -15 11 -15 -7z"/>
<path d="M1045 720 c3 -5 11 -10 16 -10 6 0 7 5 4 10 -3 6 -11 10 -16 10 -6 0
-7 -4 -4 -10z"/>
<path d="M2210 240 c0 -5 5 -10 11 -10 5 0 7 5 4 10 -3 6 -8 10 -11 10 -2 0
-4 -4 -4 -10z"/>
<path d="M6735 10224 c-20 -15 -20 -15 -1 -26 19 -11 19 -11 1 -24 -16 -12
-16 -14 -3 -14 9 0 21 -13 27 -30 5 -16 17 -30 25 -30 9 0 16 -4 16 -10 0 -5
-10 -10 -21 -10 -18 0 -19 -2 -9 -15 11 -13 9 -20 -10 -40 -13 -14 -18 -25
-12 -25 7 0 12 -16 12 -40 0 -33 -3 -40 -20 -40 -24 0 -26 -9 -3 -25 18 -13
10 -35 -13 -35 -8 0 -14 -4 -14 -10 0 -5 7 -10 15 -10 8 0 15 -4 15 -8 0 -15
-22 -30 -36 -25 -9 3 -14 -2 -14 -16 0 -22 16 -29 22 -9 5 13 28 2 28 -14 0
-7 -15 -9 -41 -5 l-40 5 16 -25 c20 -29 12 -42 -15 -25 -17 10 -20 10 -20 -3
0 -8 5 -15 10 -15 6 0 10 -4 10 -10 0 -5 -9 -10 -20 -10 -17 0 -18 -3 -10 -26
21 -55 8 -65 -52 -39 -11 4 -18 3 -18 -4 0 -6 9 -11 20 -11 11 0 20 -4 20 -10
0 -5 -9 -15 -20 -22 -11 -7 -20 -21 -20 -30 0 -14 9 -18 43 -19 l42 -2 -35 -6
c-26 -4 -35 -11 -35 -26 0 -11 -4 -26 -8 -32 -5 -7 -5 -13 -1 -13 4 0 -15 -17
-41 -37 -41 -31 -46 -38 -30 -43 19 -6 18 -7 0 -18 -17 -10 -18 -13 -6 -21 12
-8 12 -11 0 -23 -8 -8 -21 -17 -29 -21 -11 -4 -9 -7 8 -12 30 -10 28 -25 -3
-25 -14 0 -25 -4 -25 -10 0 -5 -9 -10 -20 -10 -11 0 -20 -7 -20 -15 0 -9 -13
-18 -31 -22 l-32 -6 23 -17 23 -17 -29 -6 c-16 -3 -31 -1 -32 4 -4 11 -22 2
-22 -12 0 -5 12 -9 26 -9 15 0 23 -4 19 -10 -4 -6 -12 -9 -20 -8 -7 2 -21 -6
-32 -18 -10 -11 -26 -23 -35 -27 -11 -4 -18 -17 -18 -32 0 -14 -4 -25 -10 -25
-5 0 -10 -9 -10 -20 0 -13 -7 -20 -20 -20 -11 0 -20 6 -20 14 0 8 -7 16 -15
20 -10 4 -15 -1 -15 -14 0 -11 -4 -20 -10 -20 -14 0 -60 -49 -60 -65 0 -7 5
-15 12 -17 9 -3 9 -6 0 -12 -7 -4 -12 -3 -12 3 0 11 -70 -26 -82 -43 -4 -6
-10 -7 -15 -3 -4 5 -1 12 7 17 8 5 11 13 6 17 -5 4 -11 2 -13 -4 -3 -7 -13
-13 -23 -13 -10 0 -20 6 -23 13 -2 6 -8 8 -13 4 -5 -4 -2 -12 5 -17 20 -12 -9
-40 -41 -40 -13 0 -29 -5 -36 -12 -7 -7 -12 -8 -12 -4 0 5 -12 1 -26 -9 -14
-9 -32 -14 -40 -11 -9 3 -16 -4 -20 -19 -6 -24 -34 -36 -34 -15 0 15 -27 12
-33 -4 -4 -10 -17 -13 -44 -9 -21 2 -49 0 -63 -6 -18 -7 -20 -10 -7 -10 17 -1
23 -16 10 -24 -5 -2 -3 -2 4 -1 6 2 14 -3 16 -10 3 -8 27 -17 53 -21 35 -5 44
-9 33 -17 -10 -7 -6 -8 16 -4 17 3 24 3 18 0 -26 -11 -12 -23 22 -17 24 4 46
-1 75 -16 22 -11 47 -21 55 -21 8 0 15 -3 15 -8 0 -4 16 -16 36 -27 20 -11 59
-45 88 -76 39 -43 66 -63 116 -83 l65 -26 24 26 c53 58 157 70 277 33 142 -43
442 -213 587 -332 26 -21 47 -37 47 -34 0 3 -23 52 -51 109 -31 64 -55 130
-61 170 -10 59 -10 69 9 104 41 79 121 97 246 55 136 -46 253 -154 374 -346
31 -49 99 -144 152 -210 85 -106 137 -174 234 -307 68 -93 86 -229 48 -375
l-19 -72 24 -48 c13 -26 28 -72 34 -101 5 -30 12 -58 15 -63 3 -5 24 4 47 19
33 22 55 27 115 31 91 4 137 -14 182 -70 37 -45 50 -76 61 -145 5 -28 22 -73
38 -100 55 -89 75 -167 69 -269 -2 -51 -13 -115 -24 -148 l-20 -57 24 -28 c36
-42 46 -86 39 -171 l-6 -76 35 -28 c53 -42 65 -76 75 -205 5 -65 10 -120 10
-124 0 -11 60 12 105 40 22 14 85 60 140 102 88 66 117 82 219 118 64 23 121
42 125 42 5 0 95 23 200 51 106 27 197 49 203 47 6 -2 -45 -21 -113 -42 -491
-151 -507 -158 -599 -236 -71 -61 -141 -107 -188 -126 -20 -8 -26 -12 -12 -9
115 25 117 26 199 100 45 40 101 83 124 94 40 19 487 142 511 140 6 0 0 -5
-14 -9 -174 -59 -279 -105 -475 -207 -266 -140 -280 -149 -268 -180 8 -22 8
-22 97 18 107 48 122 48 119 -6 -3 -40 -21 -61 -37 -45 -6 6 -15 10 -20 10 -6
0 -5 -4 2 -9 10 -6 7 -10 -13 -15 -15 -4 -29 -5 -32 -2 -13 13 -94 -31 -170
-91 l-85 -68 6 -135 c6 -144 12 -160 62 -160 40 0 328 -80 346 -97 30 -27 38
-81 38 -259 l0 -170 133 -23 c72 -13 276 -51 452 -86 176 -35 339 -66 363 -70
l42 -7 0 2971 0 2971 -1742 0 c-1543 -1 -1745 -3 -1763 -16z m379 -577 c-2
-46 -14 -61 -43 -52 -48 15 -33 99 17 93 24 -3 27 -7 26 -41z m344 -146 c7
-46 -62 -141 -102 -141 -19 0 0 58 37 110 43 61 60 69 65 31z m-975 -298 c-7
-2 -19 -2 -25 0 -7 3 -2 5 12 5 14 0 19 -2 13 -5z m2131 -31 c-176 -158 -535
-453 -620 -509 l-27 -18 7 35 c10 52 87 119 441 381 76 56 219 148 230 148 6
0 -9 -16 -31 -37z m-542 -47 c0 -5 -5 -11 -11 -13 -6 -2 -11 4 -11 13 0 9 5
15 11 13 6 -2 11 -8 11 -13z m-1333 -162 c13 -25 -5 -53 -34 -53 -30 0 -33 24
-8 52 20 22 29 23 42 1z m2071 -7 c0 -3 -4 -8 -10 -11 -5 -3 -10 -1 -10 4 0 6
5 11 10 11 6 0 10 -2 10 -4z m-216 -114 c-72 -68 -134 -115 -134 -104 0 13
165 151 180 151 3 0 -18 -21 -46 -47z m-1729 -13 c0 -17 -6 -24 -20 -24 -23 0
-33 34 -13 46 20 13 33 5 33 -22z m1054 -28 c32 -32 36 -82 12 -129 -33 -65
-89 -90 -141 -62 -29 16 -45 79 -30 124 24 72 115 111 159 67z m-2289 -95 c0
-9 -30 -14 -35 -6 -4 6 3 10 14 10 12 0 21 -2 21 -4z m21 -25 c-8 -13 -17 -18
-28 -14 -14 6 -14 8 5 16 12 6 22 15 22 20 0 6 3 8 6 5 3 -4 1 -16 -5 -27z
m2409 -69 c-82 -68 -161 -151 -174 -183 -16 -39 -7 -82 24 -109 26 -22 25 -30
-2 -22 -14 3 -19 2 -14 -6 13 -22 -20 -12 -43 12 -63 67 -17 196 101 283 88
64 182 86 108 25z m1319 -46 c-43 -40 -189 -160 -202 -168 -16 -8 -17 -7 -8
10 11 20 190 161 205 162 5 0 7 -2 5 -4z m-1290 -112 c-13 -16 -39 -19 -39 -4
0 12 32 30 43 23 4 -3 3 -11 -4 -19z m341 -188 c0 -134 -4 -166 -21 -166 -10
0 -12 283 -2 293 19 19 23 -5 23 -127z m62 -308 c-1 -216 -3 -442 -5 -503 -1
-60 -4 116 -5 393 -1 276 1 502 6 502 4 0 6 -177 4 -392z m1558 142 c-8 -6
-59 -33 -112 -61 -53 -29 -108 -64 -123 -79 -29 -30 -44 -102 -46 -210 0 -36
-4 -74 -9 -85 -10 -24 -11 238 -1 275 8 29 86 79 206 133 80 35 114 46 85 27z
m-400 -214 c0 -2 -39 -26 -87 -52 -526 -284 -785 -426 -943 -517 -58 -33 -136
-76 -173 -97 -89 -48 -110 -67 -104 -91 3 -10 1 -17 -4 -13 -5 3 -9 20 -9 38
0 38 27 59 205 162 335 192 585 324 935 491 183 87 180 85 180 79z m380 -300
c-33 -23 -50 -25 -50 -6 0 4 12 13 28 18 48 18 57 13 22 -12z m-782 -343 c-2
-12 -34 -23 -124 -44 -141 -32 -217 -62 -244 -96 -12 -16 -21 -49 -26 -94 -4
-38 -11 -69 -15 -69 -5 0 -9 33 -9 73 0 129 30 153 264 213 154 39 158 39 154
17z m-590 -216 c4 -22 -27 -35 -38 -16 -10 15 7 42 24 36 6 -2 12 -11 14 -20z
m908 -739 c4 -7 3 -8 -4 -4 -6 4 -28 0 -49 -9 l-38 -15 24 20 c26 22 56 26 67
8z m648 -578 c-10 -10 -273 -71 -297 -69 -11 1 276 76 298 78 5 1 5 -3 -1 -9z
m-636 -126 c-18 -18 -320 -85 -332 -73 -5 5 -8 11 -5 13 2 2 76 19 164 37 142
30 161 37 170 57 l10 23 3 -22 c2 -12 -2 -27 -10 -35z m126 33 c25 8 34 8 29
0 -4 -7 9 -8 42 -4 59 8 55 1 -6 -13 -24 -5 -66 -16 -94 -23 -27 -8 -51 -14
-52 -13 -1 1 3 19 9 39 10 32 13 34 23 20 11 -15 18 -15 49 -6z m159 6 c-7 -2
-19 -2 -25 0 -7 3 -2 5 12 5 14 0 19 -2 13 -5z m-838 -293 c18 -8 18 -9 -6 -9
-35 -1 -97 -58 -115 -106 l-15 -40 5 42 c4 47 37 100 70 113 26 11 36 11 61 0z
m482 -766 c-3 -3 -12 -4 -19 -1 -8 3 -5 6 6 6 11 1 17 -2 13 -5z m113 -14 c20
-6 21 -8 5 -8 -11 -1 -38 3 -60 7 l-40 9 35 0 c19 0 46 -4 60 -8z m100 -20
c10 -6 2 -7 -25 -3 -49 7 -58 13 -19 13 16 0 36 -5 44 -10z"/>
<path d="M7815 8767 c-51 -44 -41 -137 15 -137 29 0 77 46 84 81 13 69 -46
102 -99 56z m55 -26 c0 -10 -7 -24 -15 -31 -13 -10 -15 -9 -15 12 0 14 3 28 7
31 12 13 23 7 23 -12z"/>
<path d="M3790 9890 c0 -5 5 -10 10 -10 6 0 10 5 10 10 0 6 -4 10 -10 10 -5 0
-10 -4 -10 -10z"/>
<path d="M3900 9635 c0 -9 5 -15 11 -13 6 2 11 8 11 13 0 5 -5 11 -11 13 -6 2
-11 -4 -11 -13z"/>
<path d="M6190 9025 c0 -9 6 -12 15 -9 8 4 15 10 15 15 0 5 -7 9 -15 9 -8 0
-15 -7 -15 -15z"/>
<path d="M5378 8783 c7 -3 16 -2 19 1 4 3 -2 6 -13 5 -11 0 -14 -3 -6 -6z"/>
<path d="M5415 8770 c-3 -5 -2 -10 4 -10 5 0 13 5 16 10 3 6 2 10 -4 10 -5 0
-13 -4 -16 -10z"/>
<path d="M5520 8760 c0 -6 -10 -9 -22 -7 -13 2 -18 2 -11 0 6 -2 15 -16 19
-31 6 -23 8 -24 12 -7 2 11 8 25 14 32 6 7 5 14 -2 18 -5 3 -10 1 -10 -5z"/>
<path d="M5585 8760 c3 -5 8 -10 11 -10 2 0 4 5 4 10 0 6 -5 10 -11 10 -5 0
-7 -4 -4 -10z"/>
<path d="M5390 8750 c8 -5 24 -10 34 -10 26 0 18 6 -19 14 -22 5 -26 4 -15 -4z"/>
<path d="M5535 8730 c3 -5 14 -10 23 -10 15 0 15 2 2 10 -20 13 -33 13 -25 0z"/>
<path d="M0 6076 c0 -62 -9 -56 120 -81 72 -14 397 -93 456 -110 44 -13 -105
52 -296 130 -113 46 -222 91 -242 99 l-38 16 0 -54z"/>
<path d="M8850 5478 c-14 -5 -33 -7 -42 -4 -16 4 -18 -3 -18 -55 0 -70 11 -75
65 -28 36 32 72 88 58 90 -5 0 -15 2 -23 3 -8 2 -26 -1 -40 -6z"/>
<path d="M8805 3245 c-16 -8 -23 -14 -14 -15 8 0 24 7 35 15 23 18 18 18 -21
0z"/>
<path d="M10182 1152 c-101 -120 -126 -238 -69 -323 22 -33 101 -99 118 -99 5
0 9 98 9 235 0 134 -4 235 -9 235 -5 0 -27 -21 -49 -48z"/>
</g>
</svg>
