<?xml version="1.0" standalone="no"?>
<!DOCTYPE svg PUBLIC "-//W3C//DTD SVG 20010904//EN"
 "http://www.w3.org/TR/2001/REC-SVG-20010904/DTD/svg10.dtd">
<svg version="1.0" xmlns="http://www.w3.org/2000/svg"
 width="1024.000000pt" height="1024.000000pt" viewBox="0 0 1024.000000 1024.000000"
 preserveAspectRatio="xMidYMid meet">

<g transform="translate(0.000000,1024.000000) scale(0.100000,-0.100000)"
fill="#000000" stroke="none">
<path d="M0 5120 l0 -5120 5120 0 5120 0 0 5120 0 5120 -5120 0 -5120 0 0
-5120z m7384 3694 c240 -42 498 -166 706 -339 326 -272 565 -682 634 -1084 17
-100 20 -282 6 -316 -8 -18 -9 -17 -9 7 -1 41 -36 113 -74 153 -28 30 -38 52
-52 118 -21 101 -78 275 -111 342 -13 28 -22 41 -19 31 42 -147 45 -484 6
-653 -43 -187 -157 -424 -197 -409 -8 3 -14 0 -14 -7 0 -9 -2 -9 -8 0 -4 6
-35 13 -69 15 l-62 3 48 90 c209 387 219 887 27 1260 -152 295 -461 534 -816
630 -207 56 -565 94 -767 81 -57 -3 -103 -4 -103 -1 0 18 293 84 440 99 83 8
344 -4 434 -20z m-114 -424 c60 -59 82 -88 98 -133 23 -60 28 -139 13 -179
-18 -46 -89 -115 -153 -145 -55 -27 -196 -63 -245 -63 -10 0 24 27 74 59 80
52 113 83 113 106 0 10 -58 -2 -157 -30 -102 -30 -273 -44 -418 -35 -93 6 -99
7 -40 8 121 3 288 21 350 37 131 35 231 101 266 180 37 82 16 196 -52 280 -54
67 -54 68 11 29 35 -21 98 -73 140 -114z m335 -14 c141 -114 217 -235 244
-393 27 -158 -8 -315 -104 -469 -90 -144 -243 -272 -400 -334 -83 -34 -155
-51 -120 -29 102 63 237 198 315 313 196 292 198 677 6 929 -20 26 -32 47 -28
47 4 0 44 -29 87 -64z m-1651 -8 c43 -38 40 -100 -5 -124 -43 -22 -90 -12
-117 26 -28 38 -28 52 4 89 32 39 80 42 118 9z m791 9 c21 -16 15 -61 -10 -71
-40 -15 -69 32 -39 65 20 23 25 23 49 6z m-2120 -216 c256 -45 257 -46 17 -54
-659 -22 -1134 -123 -1571 -333 -398 -191 -713 -441 -1013 -802 l-27 -32 -141
81 c-77 46 -140 85 -140 89 0 3 60 64 133 136 505 492 1166 815 1867 913 207
29 199 29 490 26 217 -2 287 -7 385 -24z m450 -221 c303 -20 625 -67 1065
-157 124 -25 286 -56 360 -69 l135 -24 -240 5 c-243 4 -333 12 -707 65 -392
55 -503 64 -813 65 -305 0 -401 -7 -655 -51 -382 -66 -711 -182 -995 -349 -76
-45 -100 -54 -106 -44 -4 8 -19 30 -34 49 l-26 35 28 23 c47 37 351 187 480
236 446 168 1002 248 1508 216z m2325 -264 c0 -15 -75 -91 -120 -122 -154
-104 -370 -163 -596 -164 -46 0 -51 -2 -50 -22 1 -20 -9 -26 -67 -45 -105 -34
-258 -45 -402 -28 -172 21 -244 32 -295 45 -25 7 -67 16 -95 21 -70 12 -272
46 -320 53 l-40 6 46 -15 c25 -8 53 -23 63 -34 16 -18 16 -19 -9 -25 -14 -4
-29 -4 -34 -2 -4 3 -100 15 -212 27 -366 40 -714 28 -1034 -37 -200 -40 -225
-46 -225 -56 0 -5 -4 -7 -9 -4 -5 3 -22 -1 -37 -10 l-29 -16 26 6 c17 4 31 1
38 -8 9 -11 6 -16 -19 -24 -16 -6 -30 -15 -30 -21 0 -6 23 -2 53 8 88 31 225
59 374 76 114 14 193 16 405 12 423 -9 681 -51 1233 -202 223 -61 496 -129
650 -161 113 -24 153 -28 310 -28 197 -1 265 8 410 56 273 91 469 258 594 506
17 34 33 62 36 62 8 0 -27 -104 -56 -168 -112 -249 -385 -436 -728 -498 -47
-9 -96 -18 -109 -20 -19 -4 -21 -8 -12 -24 5 -10 10 -28 10 -39 0 -43 -97 -86
-143 -63 -12 6 -71 13 -132 16 -170 8 -376 56 -610 143 -131 49 -148 58 -95
49 398 -66 540 -86 615 -91 l90 -5 -90 15 c-104 16 -369 79 -670 158 -712 188
-980 230 -1470 230 -307 0 -438 -15 -651 -77 -146 -43 -192 -61 -173 -70 8 -3
4 -3 -7 -1 -12 3 -45 -6 -75 -20 -49 -23 -45 -28 6 -10 16 5 17 5 5 -4 -8 -6
-37 -18 -65 -27 -87 -29 -254 -112 -339 -168 -74 -50 -236 -187 -245 -208 -1
-5 23 8 55 28 167 107 470 210 674 228 71 7 68 4 -45 -38 -191 -71 -375 -208
-516 -384 -96 -119 -89 -123 26 -14 210 203 466 331 773 388 119 22 402 29
543 15 174 -18 414 -65 451 -87 6 -4 24 -8 39 -9 49 -4 298 -88 292 -98 -3 -6
-1 -7 6 -3 12 8 192 -64 186 -74 -2 -3 7 -6 18 -6 26 -2 150 -58 190 -86 15
-11 27 -17 27 -14 0 3 105 -47 233 -110 550 -271 773 -327 1345 -335 89 -2
159 -6 155 -10 -5 -3 -84 -12 -178 -18 -93 -7 -289 -23 -434 -37 -146 -13
-294 -22 -330 -20 -48 4 -56 3 -31 -3 25 -6 0 -9 -87 -10 -68 0 -144 4 -170
10 -143 33 -185 45 -257 75 -43 18 -87 41 -97 50 -11 9 -19 14 -19 10 0 -4
-13 1 -29 10 -17 10 -27 22 -24 28 4 5 0 7 -9 4 -8 -4 -28 4 -44 18 -16 13
-32 23 -35 24 -3 0 -66 35 -140 78 -74 43 -187 105 -251 137 -64 32 -115 62
-112 67 3 4 -1 5 -9 2 -8 -3 -41 8 -73 24 -33 16 -74 33 -92 37 -19 4 -30 11
-25 18 4 7 0 8 -12 4 -9 -4 -23 -4 -29 1 -15 12 -125 45 -267 81 -147 38 -156
40 -264 51 -49 6 -102 13 -118 16 -99 21 -498 -10 -590 -45 -35 -14 -34 -14
-34 4 0 10 10 15 27 15 15 0 33 7 40 15 7 8 16 15 21 15 4 0 20 5 36 11 22 8
24 12 13 19 -20 13 -30 12 -27 -2 1 -6 -6 -14 -17 -16 -13 -3 -16 0 -11 9 5 8
4 10 -4 5 -6 -4 -8 -12 -5 -18 5 -7 -2 -9 -19 -5 -27 7 -92 -15 -80 -27 4 -4
0 -4 -9 -1 -17 7 -64 -13 -54 -22 8 -9 -26 -32 -47 -33 -10 0 -15 -4 -12 -10
3 -5 0 -10 -7 -11 -11 0 -11 -2 0 -6 8 -3 -24 -30 -75 -63 -191 -127 -321
-293 -407 -523 -40 -106 -88 -280 -87 -313 0 -12 -6 -28 -14 -34 -18 -15 -129
-20 -165 -8 -24 8 -24 8 3 4 31 -4 25 9 -8 17 -11 3 -4 5 15 4 72 -2 111 3
105 13 -3 6 -26 10 -51 10 -25 0 -44 5 -44 11 0 13 79 10 98 -4 7 -6 15 -7 18
-4 15 14 -47 29 -118 29 -65 -1 -78 1 -78 15 0 12 7 14 28 10 31 -6 62 6 43
17 -6 4 -15 5 -21 1 -18 -11 -104 -8 -108 4 -3 8 -8 6 -17 -5 -8 -12 -18 -15
-31 -10 -18 7 -17 8 5 25 32 25 20 43 -19 30 -23 -9 -35 -7 -60 7 -16 10 -30
22 -30 27 0 5 -7 7 -14 4 -11 -4 -13 -1 -9 10 4 10 2 14 -4 10 -6 -4 -16 7
-23 23 -7 16 -15 28 -19 26 -4 -3 -6 12 -4 32 l2 37 -14 -40 c-9 -27 -14 -33
-14 -18 -1 12 -6 25 -11 28 -6 4 -7 13 -2 23 5 9 10 35 11 57 2 22 7 48 13 58
5 10 8 21 5 23 -4 5 -21 -33 -82 -183 -35 -84 -74 -208 -96 -303 -7 -30 -17
-60 -23 -66 -6 -7 -37 -14 -69 -16 -55 -4 -57 -4 -57 20 0 58 53 279 93 388
119 324 286 575 554 834 588 571 1341 833 2272 790 237 -11 329 -20 786 -74
641 -77 890 -82 1125 -24 126 31 332 127 370 173 12 14 20 19 20 11z m1746
-212 c78 -51 69 -161 -17 -205 -48 -24 -83 -19 -122 17 -34 31 -43 66 -28 114
23 77 106 113 167 74z m-3428 -129 c2 -1 -8 -5 -22 -7 -14 -3 -23 -2 -21 3 3
4 -1 10 -7 13 -7 3 1 3 17 -1 17 -3 31 -7 33 -8z m49 -11 c-3 -3 -12 -4 -19
-1 -8 3 -5 6 6 6 11 1 17 -2 13 -5z m-2894 -110 c3 -6 -16 -27 -42 -48 -144
-117 -317 -293 -439 -450 -21 -27 -61 -48 -46 -25 3 5 10 7 15 4 5 -3 6 1 3
10 -9 22 -25 5 -28 -29 -3 -23 -1 -25 13 -14 9 7 3 -3 -13 -22 -16 -19 -34
-34 -39 -32 -5 2 -7 -4 -4 -13 4 -8 3 -15 -1 -15 -4 0 -16 -18 -26 -40 -12
-25 -26 -40 -38 -40 -22 0 -24 16 -3 28 9 4 17 18 18 30 1 14 8 22 19 22 10 0
18 5 18 10 0 6 -8 10 -17 8 -12 -2 -18 3 -18 17 0 15 7 20 25 20 56 0 64 26
21 73 -16 17 -26 34 -21 37 4 3 10 -2 14 -10 3 -8 10 -15 16 -15 6 0 9 4 6 9
-8 12 4 41 16 41 7 0 6 -5 -1 -14 -13 -16 -4 -49 11 -40 6 4 8 23 4 44 -4 26
-2 40 7 43 7 4 6 6 -5 6 -9 1 -18 6 -20 13 -3 7 -7 5 -11 -6 -4 -10 -3 -15 3
-11 6 3 10 3 10 -2 -1 -12 -26 -43 -36 -43 -4 0 -3 5 4 12 15 15 16 32 1 22
-15 -9 3 24 28 51 10 11 26 33 36 48 10 15 23 25 29 21 7 -4 8 -3 4 4 -9 15
168 199 292 303 l94 78 48 -37 c27 -20 51 -42 53 -48z m1172 46 c-28 -12 -37
-12 -30 0 3 6 16 10 28 9 21 0 21 -1 2 -9z m4627 -80 c4 0 4 -7 1 -17 -4 -11
-3 -14 5 -9 17 10 15 -9 -3 -24 -8 -7 -15 -9 -15 -5 0 4 -7 2 -15 -5 -18 -15
-20 -71 -3 -88 8 -8 8 -15 -2 -27 -8 -10 -9 -15 -2 -15 6 0 16 -8 21 -19 9
-15 7 -18 -12 -17 -21 1 -22 4 -24 134 -1 81 2 130 8 127 5 -4 9 0 10 7 1 7 6
1 12 -14 6 -16 14 -28 19 -28z m-23 -262 c-15 -28 -26 -29 -26 -4 0 18 5 24
17 23 14 -1 16 -5 9 -19z m-6955 -22 c18 -8 46 -31 62 -52 25 -32 29 -47 29
-97 -1 -45 -5 -62 -19 -72 -9 -7 -18 -17 -18 -22 -1 -21 -12 -34 -24 -29 -8 3
-13 0 -11 -6 3 -16 -71 -40 -97 -31 -12 4 -24 6 -28 5 -5 -1 -7 3 -5 9 1 6 -4
14 -12 17 -8 3 -11 0 -7 -7 11 -17 2 -13 -16 8 -16 19 -15 19 10 18 15 -1 29
-7 32 -13 3 -8 13 -9 30 -2 l25 10 -22 9 c-24 9 -31 29 -11 29 16 0 -23 29
-39 30 -7 0 -13 -12 -13 -26 0 -22 -2 -25 -15 -14 -17 14 -20 40 -5 40 6 0 10
7 10 16 0 8 -4 13 -8 10 -4 -2 -9 7 -10 20 l-2 25 26 -28 c17 -19 14 -10 -11
26 -20 29 -32 50 -26 46 6 -3 11 2 11 13 0 33 65 80 113 81 10 1 33 -5 51 -13z
m7491 -80 c106 -81 90 -238 -30 -296 -110 -53 -225 20 -225 143 0 57 14 94 48
131 59 62 142 71 207 22z m-7657 -36 c3 -7 0 -10 -6 -6 -6 4 -9 -9 -7 -36 l3
-43 -13 31 c-15 33 -10 77 8 71 6 -2 13 -9 15 -17z m708 -49 c-13 -15 -14 -20
-4 -25 10 -5 10 -7 0 -12 -6 -3 -9 -11 -5 -17 4 -7 -1 -6 -10 2 -19 15 -23 26
-6 16 6 -4 9 -1 8 6 -3 15 22 61 30 54 2 -3 -4 -13 -13 -24z m-717 -76 c0 -5
-6 1 -14 15 -8 14 -14 30 -14 35 0 6 6 -1 14 -15 8 -14 14 -29 14 -35z m668 2
c0 -8 -6 -14 -14 -14 -9 0 -10 4 -2 14 6 7 12 13 14 13 1 0 2 -6 2 -13z m37
-5 c3 -5 -1 -9 -9 -9 -8 0 -12 4 -9 9 3 4 7 8 9 8 2 0 6 -4 9 -8z m1491 -27
c-16 -7 -41 -16 -55 -20 -24 -7 -24 -6 -5 8 18 13 50 23 80 25 6 0 -3 -5 -20
-13z m-1565 -89 c0 -12 -5 -7 -19 24 -11 24 -11 24 3 6 9 -11 16 -24 16 -30z
m-30 17 c-1 -5 -12 -21 -26 -38 -23 -27 -24 -27 -14 -5 20 40 41 62 40 43z
m34 -59 c3 -8 2 -12 -4 -9 -6 3 -10 10 -10 16 0 14 7 11 14 -7z m-78 -26 c5
-7 3 -8 -6 -3 -9 6 -12 4 -8 -7 4 -8 0 -15 -7 -15 -10 0 -11 5 -4 19 11 21 15
22 25 6z m112 -60 c-22 -37 -44 -70 -49 -74 -15 -9 -10 6 13 39 24 33 37 83
19 72 -7 -3 -8 0 -5 10 6 14 8 14 20 -2 12 -17 13 -16 7 4 -4 17 -1 22 14 20
18 -1 16 -8 -19 -69z m7815 -25 c-3 -21 -20 -123 -39 -228 -31 -177 -52 -293
-123 -670 -16 -82 -48 -253 -71 -380 -33 -180 -47 -233 -61 -244 -21 -15 -25
-37 -8 -43 11 -4 -23 -207 -38 -232 -7 -10 -10 -32 -14 -106 -1 -14 -4 -19 -6
-12 -7 19 -26 14 -20 -7 2 -10 -7 -65 -22 -122 -22 -89 -29 -104 -46 -104 -17
0 -20 8 -23 45 -2 43 -1 44 12 21 l14 -24 6 21 c4 12 11 22 15 22 23 0 3 166
-22 182 -6 4 -8 10 -4 14 3 4 14 -3 24 -15 l18 -22 0 30 c0 18 -5 31 -12 31
-7 0 -13 6 -13 13 0 6 -3 23 -6 37 -5 23 -4 23 8 -3 13 -28 13 -27 14 25 1 42
0 47 -6 23 -5 -21 -8 -24 -9 -10 -2 18 -3 17 -12 -5 -5 -13 -9 -33 -8 -45 1
-11 -1 -28 -6 -37 -4 -10 -13 -37 -21 -60 l-14 -43 6 50 c3 28 11 53 16 56 6
4 8 11 5 16 -3 5 5 61 19 124 13 63 24 124 24 137 0 12 18 114 39 225 78 400
231 1210 231 1220 0 6 -355 -28 -725 -68 -60 -6 -467 -45 -477 -45 -11 0 -10
84 1 113 8 21 18 25 68 30 32 3 218 22 413 42 727 75 806 83 842 84 l37 1 -6
-37z m-7987 -11 c-15 -15 -15 -15 -4 10 7 15 15 23 17 17 2 -6 -4 -18 -13 -27z
m124 13 c0 -8 -4 -15 -10 -15 -5 0 -7 7 -4 15 4 8 8 15 10 15 2 0 4 -7 4 -15z
m2104 -25 l38 -12 -73 -32 c-115 -50 -186 -87 -237 -126 -26 -20 -49 -36 -52
-37 -22 -4 -98 -48 -94 -55 3 -4 0 -8 -6 -8 -6 0 -8 -5 -5 -10 5 -8 12 -7 23
1 10 7 -5 -11 -33 -39 -27 -29 -68 -61 -91 -72 -42 -21 -114 -27 -114 -10 0 6
-3 9 -8 8 -26 -9 -82 70 -82 114 0 20 32 5 42 -19 l11 -28 7 25 6 25 11 -30
c10 -29 10 -29 9 13 0 23 -4 42 -7 42 -4 0 -13 16 -21 36 l-15 37 -6 -33 c-4
-17 -4 -36 -1 -41 3 -5 1 -9 -5 -9 -23 0 -22 25 4 76 55 108 159 170 330 197
55 9 329 -1 369 -13z m-2109 -48 c-1 -1 -12 -4 -23 -7 -18 -3 -20 -1 -10 14 9
14 14 16 24 7 6 -6 11 -12 9 -14z m-20 -31 c3 -5 1 -12 -5 -16 -5 -3 -10 1
-10 9 0 18 6 21 15 7z m-29 -63 c-9 -12 -16 -19 -16 -15 0 11 24 47 28 42 2
-2 -3 -14 -12 -27z m3007 3 c70 -24 134 -68 182 -123 40 -47 79 -110 90 -146
l7 -23 -36 23 c-19 13 -73 49 -118 80 -100 68 -227 135 -286 150 -23 6 -45 14
-47 19 -7 10 75 32 136 38 9 0 41 -8 72 -18z m-3192 -108 c-12 -20 -14 -14 -5
12 4 9 9 14 11 11 3 -2 0 -13 -6 -23z m-476 7 c17 0 85 -58 85 -72 0 -6 -12 1
-26 15 -30 31 -76 42 -140 34 -30 -3 -42 -1 -36 5 13 13 73 27 90 22 8 -2 20
-4 27 -4z m2455 -5 c-7 -8 -20 -15 -29 -15 -11 0 -8 5 9 14 33 19 35 19 20 1z
m-1977 -40 c-3 -9 -8 -14 -10 -11 -3 3 -2 9 2 15 9 16 15 13 8 -4z m118 -12
c-12 -20 -14 -14 -5 12 4 9 9 14 11 11 3 -2 0 -13 -6 -23z m2299 -76 c36 -12
96 -42 133 -67 l68 -45 -73 -9 c-81 -9 -180 3 -288 36 -105 32 -126 67 -56 92
60 21 141 19 216 -7z m-2327 -7 c-3 -12 -8 -19 -11 -16 -5 6 5 36 12 36 2 0 2
-9 -1 -20z m7543 -17 c-23 -130 -290 -1463 -295 -1471 -3 -5 -82 -18 -174 -28
-136 -15 -170 -16 -176 -5 -10 15 -49 206 -95 461 -22 124 -35 177 -40 160 -3
-14 -24 -119 -46 -235 -39 -199 -87 -426 -93 -430 -6 -6 -339 -37 -343 -33 -5
5 -16 56 -129 593 -36 171 -90 420 -119 555 -30 135 -56 259 -59 276 l-6 31
132 12 c73 7 146 14 163 17 l31 6 77 -394 c42 -216 84 -431 93 -478 l17 -85
12 60 c7 33 27 139 44 236 33 190 113 595 130 658 l10 38 90 9 90 10 10 -36
c12 -46 157 -800 166 -865 6 -44 8 -47 15 -25 5 14 42 210 84 435 41 226 80
438 87 473 10 52 15 62 32 63 12 0 73 6 136 13 177 20 163 22 156 -21z m-7681
-24 c0 -17 33 -49 51 -49 7 0 17 12 23 28 l11 27 -5 -27 c-3 -14 -7 -33 -10
-40 -4 -9 0 -15 10 -15 11 0 15 6 12 19 -3 10 -1 16 3 13 5 -3 10 0 13 7 2 7
2 2 0 -12 -2 -14 -13 -32 -23 -40 -15 -11 -17 -19 -9 -30 9 -13 10 -12 5 3 -3
9 0 17 5 17 7 0 9 -9 5 -22 -5 -20 -43 -208 -52 -264 -4 -23 22 -19 -469 -69
-132 -14 -284 -30 -337 -36 l-98 -11 0 -363 c0 -405 7 -365 -70 -380 -19 -4
-41 -12 -48 -17 -10 -9 -12 77 -10 433 l3 443 45 8 c77 14 496 56 678 69 106
8 175 17 177 23 1 6 10 52 19 101 25 129 48 206 60 202 6 -2 11 -10 11 -18z
m669 -45 c3 -8 2 -12 -4 -9 -6 3 -10 10 -10 16 0 14 7 11 14 -7z m5370 -771
c-3 -390 -7 -727 -10 -749 -6 -50 49 -39 -459 -94 -203 -22 -515 -56 -693 -75
-177 -19 -336 -35 -352 -35 l-30 0 0 94 0 93 88 11 c48 7 200 23 337 37 452
46 1009 106 1012 109 1 1 6 253 9 560 l7 559 -79 -7 c-43 -4 -194 -18 -334
-32 -140 -14 -298 -29 -350 -35 -52 -5 -121 -12 -152 -15 l-58 -7 0 96 0 96
33 5 c17 3 154 17 302 31 149 15 353 34 455 44 102 10 206 19 232 20 l47 1 -5
-707z m-1434 437 c0 -117 -2 -130 -17 -131 -10 0 -123 -10 -252 -22 l-234 -22
2 -175 c1 -96 3 -176 5 -177 3 -4 351 25 444 36 72 9 72 8 46 -80 -8 -30 -24
-84 -35 -120 l-19 -65 -207 -18 c-115 -9 -216 -20 -227 -23 -16 -4 -18 -12
-12 -57 3 -28 3 -169 -1 -313 -5 -228 -8 -263 -22 -267 -9 -3 -46 -8 -83 -12
l-68 -6 0 674 c0 371 3 715 6 765 l7 89 286 24 c157 12 288 24 290 26 2 2 24
4 48 4 l43 0 0 -130z m-3787 113 c-7 -2 -19 -2 -25 0 -7 3 -2 5 12 5 14 0 19
-2 13 -5z m136 -2 c11 -7 9 -10 -8 -16 -13 -4 -25 -4 -28 -1 -4 3 2 7 13 7 12
1 7 4 -11 9 -28 7 -28 8 -5 9 14 0 31 -3 39 -8z m-136 -18 c-7 -2 -19 -2 -25
0 -7 3 -2 5 12 5 14 0 19 -2 13 -5z m143 -22 c-3 -5 -15 -7 -26 -4 -28 7 -25
13 6 13 14 0 23 -4 20 -9z m2914 -13 c0 -7 -12 -69 -25 -138 -14 -69 -25 -126
-25 -126 0 -1 -33 -5 -72 -9 -40 -3 -137 -13 -215 -21 -78 -8 -145 -14 -148
-14 -3 0 -5 -81 -5 -180 0 -165 1 -180 18 -180 9 0 76 7 147 15 169 19 158 20
150 -12 -10 -43 -98 -247 -108 -255 -6 -3 -54 -9 -109 -13 l-98 -7 0 -173 0
-173 38 4 c20 3 117 13 215 23 171 17 177 16 177 -1 0 -30 -51 -252 -60 -262
-7 -7 -280 -39 -622 -72 l-68 -7 0 769 0 770 263 23 c144 13 314 30 377 36
156 17 170 17 170 3z m-3012 -5 c-16 -2 -40 -2 -55 0 -16 2 -3 4 27 4 30 0 43
-2 28 -4z m2052 -841 l0 -769 -112 -12 c-62 -6 -134 -14 -160 -18 l-48 -6 -2
449 -3 449 -39 -130 c-21 -71 -56 -191 -77 -265 -45 -152 -156 -496 -171 -522
-32 -63 -69 30 -243 627 -26 88 -53 178 -60 200 -12 35 -14 -21 -14 -416 l-1
-457 -32 -5 c-80 -14 -269 -29 -276 -23 -4 4 -8 356 -10 781 l-3 773 68 7 c38
3 121 12 186 18 108 12 119 11 127 -4 5 -9 50 -142 99 -295 120 -373 134 -414
142 -414 4 0 17 33 29 73 86 288 217 681 230 688 12 6 246 32 343 37 l27 2 0
-768z m-1657 498 c15 -63 47 -205 72 -315 26 -110 75 -328 110 -485 35 -157
80 -357 100 -444 19 -87 34 -161 31 -163 -7 -7 -306 -36 -312 -30 -3 3 -19 61
-35 128 -16 68 -31 125 -34 127 -2 2 -67 -1 -145 -8 -130 -12 -141 -14 -145
-34 -2 -12 -14 -70 -26 -131 -11 -60 -24 -114 -29 -118 -8 -9 -226 -36 -291
-37 l-37 0 10 48 c75 367 328 1544 333 1550 7 7 360 38 366 33 3 -3 18 -58 32
-121z m4207 110 c25 -13 57 -53 64 -80 l7 -25 -15 26 c-33 56 -162 84 -206 44
-11 -10 -20 -14 -20 -8 0 17 38 45 72 53 33 8 71 4 98 -10z m-5155 -74 c19 -8
44 -30 55 -48 18 -30 20 -50 20 -229 l0 -195 -142 -12 c-79 -7 -151 -12 -160
-12 -16 0 -18 11 -18 95 0 84 -2 95 -17 95 -10 0 -81 -7 -158 -15 -77 -8 -148
-15 -157 -15 -17 0 -18 -31 -18 -500 l0 -500 33 1 c17 0 97 8 177 17 l145 17
3 134 3 133 -33 -5 c-18 -3 -63 -9 -100 -13 l-68 -6 0 153 0 154 198 18 c108
10 225 21 260 24 l62 6 -2 -429 -3 -429 -60 -7 c-325 -37 -792 -79 -820 -74
-44 9 -91 48 -104 89 -7 21 -11 271 -13 707 l-2 676 22 36 c41 65 68 72 462
111 428 42 393 40 435 23z m4872 -242 c18 -14 33 -29 33 -34 0 -5 -12 2 -26
15 -26 24 -45 26 -94 8 -8 -3 -25 -7 -37 -9 -18 -2 -20 0 -10 11 9 10 15 10
26 1 12 -9 14 -8 8 6 -13 35 54 37 100 2z m387 -99 c35 -33 33 -51 -3 -24 -16
12 -50 24 -76 27 -54 6 -42 22 16 22 25 0 45 -8 63 -25z m-191 -156 c15 -16
27 -37 27 -47 0 -15 -2 -15 -10 -2 -5 8 -10 11 -10 6 0 -6 -6 -2 -13 9 -10 13
-16 15 -21 6 -6 -9 -20 -5 -52 14 -41 24 -49 24 -45 2 1 -5 -3 -6 -9 -2 -5 3
-10 1 -10 -6 0 -7 -3 -9 -7 -6 -13 13 41 59 64 54 13 -2 20 0 16 6 -13 21 44
-6 70 -34z m-6366 -471 c-1 -57 -3 -11 -3 102 0 113 2 159 3 103 2 -57 2 -149
0 -205z m8646 72 c3 -11 1 -18 -4 -14 -5 3 -9 12 -9 20 0 20 7 17 13 -6z m104
-92 c-3 -8 -6 -5 -6 6 -1 11 2 17 5 13 3 -3 4 -12 1 -19z m-130 -20 c-3 -7 -5
-2 -5 12 0 14 2 19 5 13 2 -7 2 -19 0 -25z m28 12 c3 -5 1 -10 -4 -10 -6 0
-11 5 -11 10 0 6 2 10 4 10 3 0 8 -4 11 -10z m-5 -45 c0 -8 -2 -15 -4 -15 -2
0 -6 7 -10 15 -3 8 -1 15 4 15 6 0 10 -7 10 -15z m-67 -2 c-7 -2 -19 -2 -25 0
-7 3 -2 5 12 5 14 0 19 -2 13 -5z m-90 -10 c-7 -2 -19 -2 -25 0 -7 3 -2 5 12
5 14 0 19 -2 13 -5z m-96 -9 c-3 -3 -12 -4 -19 -1 -8 3 -5 6 6 6 11 1 17 -2
13 -5z m270 -46 c-3 -8 -6 -5 -6 6 -1 11 2 17 5 13 3 -3 4 -12 1 -19z m30 -25
c-3 -10 -5 -2 -5 17 0 19 2 27 5 18 2 -10 2 -26 0 -35z m-20 -15 c-3 -8 -6 -5
-6 6 -1 11 2 17 5 13 3 -3 4 -12 1 -19z m-52 -8 c-3 -5 -16 -10 -28 -9 -21 0
-21 1 -2 9 28 12 37 12 30 0z m-879 -57 c-61 -119 -404 -407 -696 -586 -258
-158 -467 -242 -805 -325 -202 -50 -308 -63 -515 -63 -187 0 -364 24 -490 68
-106 36 -111 39 -70 51 19 6 28 11 20 11 -16 2 127 61 147 61 6 0 13 -3 16 -7
2 -5 2 -2 1 5 -2 6 0 12 4 13 24 2 45 8 50 15 4 3 -38 4 -93 0 -55 -3 -282
-10 -505 -15 -531 -13 -649 -25 -851 -92 -195 -65 -335 -159 -444 -299 -61
-79 -107 -175 -74 -154 8 4 9 -4 5 -27 -6 -29 -5 -31 5 -14 12 19 12 19 20 0
7 -17 8 -18 8 -2 1 9 6 17 11 17 6 0 10 6 10 14 0 7 7 20 17 27 14 12 14 10
-2 -21 -50 -97 -59 -250 -20 -366 14 -41 32 -86 41 -99 9 -13 12 -30 8 -36 -4
-7 -3 -9 3 -6 6 4 13 -2 16 -12 8 -31 125 -117 232 -171 198 -99 392 -127 830
-117 266 6 449 21 642 52 130 21 344 62 415 80 31 8 64 12 75 9 15 -5 15 -4 3
5 -12 8 -6 11 27 11 51 0 80 -9 63 -20 -9 -6 -6 -10 8 -14 41 -13 32 -33 -31
-64 -241 -119 -561 -221 -851 -271 -392 -68 -846 -50 -1131 45 -163 54 -324
143 -444 246 -41 35 -61 46 -76 41 -18 -5 -19 -4 -5 13 14 18 14 18 -3 5 -13
-10 -15 -17 -6 -27 7 -9 8 -14 1 -14 -22 0 -18 -37 8 -68 25 -31 28 -32 41
-15 13 16 12 17 -3 4 -10 -7 -18 -9 -18 -3 0 5 7 13 16 16 8 3 13 9 11 13 -3
5 0 13 7 19 8 7 17 5 31 -8 15 -15 16 -18 3 -13 -12 5 -21 -2 -32 -23 -15 -29
-14 -30 16 -56 35 -28 33 -32 -6 -15 -14 7 -23 16 -20 20 3 5 -1 9 -8 9 -8 0
-36 22 -63 50 -27 27 -46 50 -42 50 5 0 -5 12 -20 26 -15 15 -21 21 -12 15 9
-6 19 -8 22 -4 4 3 7 1 7 -6 0 -19 20 -2 31 26 5 13 13 22 18 18 15 -9 20 9 7
25 -6 8 -21 21 -33 27 -20 11 -22 11 -16 -5 3 -11 0 -9 -11 6 -10 12 -22 20
-27 17 -10 -7 -12 8 -2 18 3 4 12 -1 19 -11 12 -15 14 -14 14 13 0 3 -3 5 -6
4 -4 0 -11 5 -15 13 -7 10 -9 10 -9 1 0 -27 -18 -12 -22 19 -4 26 -3 28 7 15
25 -34 24 -15 -3 37 -26 53 -27 54 -40 33 -13 -21 -13 -21 -6 3 10 32 9 39
-12 139 l-18 85 -15 -35 c-9 -21 -15 -65 -16 -115 0 -72 -1 -78 -12 -53 -38
91 -42 298 -8 424 28 106 89 213 168 298 40 43 71 79 69 82 -4 4 41 30 46 26
1 -1 39 18 85 43 175 95 347 153 551 186 106 17 337 43 399 45 64 2 70 4 57
25 -13 20 -572 21 -675 1 -68 -13 -200 -60 -240 -85 -11 -7 -38 -22 -60 -35
l-40 -23 39 35 c94 83 316 173 513 207 142 25 359 26 678 5 329 -23 760 -30
970 -16 499 32 945 135 1295 298 89 41 128 64 247 140 45 30 69 36 215 59 89
15 199 32 243 39 44 7 90 13 103 14 21 1 22 0 8 -26z m521 -5 c-3 -8 -6 -5 -6
6 -1 11 2 17 5 13 3 -3 4 -12 1 -19z m73 18 c0 -2 -11 -6 -25 -8 -13 -3 -22
-1 -19 3 5 9 44 13 44 5z m-79 -123 c-12 -20 -14 -14 -5 12 4 9 9 14 11 11 3
-2 0 -13 -6 -23z m-150 -19 c-11 -15 -21 -24 -21 -20 0 10 34 55 39 51 2 -2
-6 -16 -18 -31z m439 -79 c17 -9 30 -17 30 -19 0 -1 -24 2 -54 7 -43 8 -59 7
-86 -6 -29 -15 -31 -15 -19 -1 29 35 83 43 129 19z m-367 -60 c-3 -9 -8 -14
-10 -11 -3 3 -2 9 2 15 9 16 15 13 8 -4z m-4958 -175 c-17 -11 -39 -17 -50
-14 -15 4 -16 3 -6 -4 21 -15 -18 -34 -43 -20 -9 5 -20 7 -23 4 -4 -3 -1 -6 5
-6 7 0 12 -7 12 -15 0 -13 -4 -14 -20 -5 -25 13 -44 4 -36 -17 4 -10 -10 -30
-41 -56 -120 -104 -249 -250 -329 -372 -121 -187 -222 -480 -225 -654 0 -41
-1 -43 -11 -21 -6 15 -8 86 -5 185 6 189 27 287 89 415 49 101 173 260 271
345 37 33 75 66 83 73 62 57 203 152 227 152 15 0 27 5 27 10 0 7 13 8 36 4
22 -4 35 -3 31 3 -3 5 4 10 16 10 18 2 17 -1 -8 -17z m4655 -34 c0 -2 -8 -10
-17 -17 -16 -13 -17 -12 -4 4 13 16 21 21 21 13z m-5748 -63 c50 -48 31 -150
-33 -172 -39 -13 -49 -14 -29 -1 13 8 12 10 -4 10 -12 0 -16 5 -12 15 3 9 0
15 -8 15 -8 0 -25 13 -39 29 -18 22 -27 27 -36 18 -8 -8 -10 -3 -8 19 12 95
102 131 169 67z m963 27 c3 -5 2 -10 -4 -10 -5 0 -13 5 -16 10 -3 6 -2 10 4
10 5 0 13 -4 16 -10z m4905 -33 c0 -2 -12 -14 -27 -28 l-28 -24 24 28 c23 25
31 32 31 24z m-910 -157 c-8 -5 -19 -10 -25 -10 -5 0 -3 5 5 10 8 5 20 10 25
10 6 0 3 -5 -5 -10z m-125 -40 c13 -6 15 -9 5 -9 -8 0 -22 4 -30 9 -18 12 -2
12 25 0z m45 -14 c0 -2 -7 -7 -16 -10 -8 -3 -12 -2 -9 4 6 10 25 14 25 6z
m-203 -82 c-3 -3 -12 -4 -19 -1 -8 3 -5 6 6 6 11 1 17 -2 13 -5z m-193 -73 c4
-5 -3 -7 -14 -4 -23 6 -26 13 -6 13 8 0 17 -4 20 -9z m53 -5 c0 -8 -6 -12 -15
-9 -11 5 -11 7 0 14 7 5 13 9 14 9 0 0 1 -6 1 -14z m-187 -86 c-8 -5 -22 -9
-30 -9 -10 0 -8 3 5 9 27 12 43 12 25 0z m-5809 -15 c36 -19 69 -70 69 -107 0
-38 -21 -82 -32 -66 -5 9 -8 4 -8 -13 0 -15 -7 -32 -15 -39 -10 -9 -15 -9 -15
-1 0 6 5 11 12 11 6 0 8 3 5 6 -4 4 -12 2 -19 -3 -7 -5 -24 -7 -38 -3 -17 4
-21 8 -12 14 6 4 18 4 25 0 8 -5 8 -2 -2 9 -7 9 -23 17 -35 17 -27 1 -52 20
-71 56 l-15 29 0 -27 c0 -16 5 -28 10 -28 6 0 10 -5 10 -11 0 -7 -8 -6 -22 3
-30 20 -32 60 -6 104 35 60 99 80 159 49z m5752 -2 c-7 -2 -19 -2 -25 0 -7 3
-2 5 12 5 14 0 19 -2 13 -5z m-276 -9 c-3 -3 -12 -4 -19 -1 -8 3 -5 6 6 6 11
1 17 -2 13 -5z m-37 -14 c8 -5 11 -13 6 -17 -5 -4 -11 -2 -13 5 -5 14 -33 17
-33 3 0 -4 -19 -8 -42 -8 l-43 1 40 12 c49 15 66 16 85 4z m148 -25 c4 -4 -5
-5 -21 -1 -15 3 -37 1 -48 -5 -13 -7 -19 -7 -15 -1 3 6 -2 13 -11 15 -10 2 6
3 35 2 29 -2 56 -6 60 -10z m-263 -5 c18 -4 -14 -7 -80 -7 -82 0 -97 2 -60 7
66 9 104 9 140 0z m-1380 -14 c18 -13 14 -16 -45 -46 -88 -44 -181 -106 -264
-174 -105 -87 -137 -101 -227 -99 -106 1 -122 12 -61 41 26 13 88 52 137 88
106 76 246 148 354 180 93 28 83 27 106 10z m1490 4 c3 -6 -1 -7 -9 -4 -18 7
-21 14 -7 14 6 0 13 -4 16 -10z m-165 -17 c3 -3 -34 -3 -82 -1 -80 3 -103 -4
-53 -15 11 -2 4 -3 -15 0 -19 2 -66 5 -105 8 -57 3 -61 2 -25 -4 73 -13 6 -12
-119 2 l-116 12 140 5 c140 6 366 1 375 -7z m1757 -8 l28 -25 -30 15 c-35 17
-107 20 -138 4 -21 -10 -21 -9 2 10 34 31 102 28 138 -4z m-7181 -92 c-7 -7
-26 7 -26 19 0 6 6 6 15 -2 9 -7 13 -15 11 -17z m79 -13 c3 -5 1 -10 -4 -10
-6 0 -11 5 -11 10 0 6 2 10 4 10 3 0 8 -4 11 -10z m-70 -10 c3 -5 11 -10 16
-10 6 0 8 4 5 9 -3 4 16 1 41 -7 38 -13 43 -17 27 -23 -35 -14 -63 -9 -90 16
-15 14 -22 25 -16 25 6 0 14 -4 17 -10z m1056 -91 c-18 -8 -17 -8 57 -28 23
-7 40 -16 37 -21 -4 -6 0 -11 7 -11 20 -2 32 -5 48 -11 8 -4 33 -9 55 -12 22
-3 49 -7 60 -8 13 -2 22 -14 27 -33 4 -18 6 -5 3 33 -2 35 -1 62 1 59 3 -2 11
-50 20 -106 32 -218 151 -511 292 -721 72 -108 136 -191 231 -300 l55 -62 -85
42 c-421 211 -788 616 -894 985 -28 96 -45 245 -23 193 7 -16 16 -28 21 -28 4
0 6 4 3 9 -3 5 2 8 12 7 11 -1 18 7 20 24 6 51 11 54 40 24 23 -24 25 -30 13
-35z m1213 -377 c35 -163 90 -291 182 -425 30 -43 51 -83 48 -88 -3 -5 0 -8 8
-7 7 2 12 -3 10 -10 -1 -8 1 -11 6 -8 15 9 85 -70 77 -86 -5 -7 -5 -10 0 -6
12 12 77 -43 70 -60 -4 -12 -2 -12 8 -4 11 9 19 6 38 -15 19 -21 20 -25 6 -20
-11 4 -16 3 -12 -4 4 -5 16 -7 27 -3 16 5 20 3 15 -9 -4 -10 0 -13 12 -10 10
2 24 -4 32 -13 12 -16 12 -17 -1 -9 -13 8 -13 7 -1 -8 14 -18 36 -24 26 -7 -3
6 -4 10 -1 10 3 0 10 -9 17 -21 11 -21 9 -21 -48 -16 -77 6 -101 17 -197 87
-91 68 -88 65 -137 117 -113 121 -182 238 -225 380 -25 80 -27 104 -28 258 -1
138 3 185 19 250 l19 80 8 -140 c3 -77 14 -173 22 -213z m346 -164 c0 -10 4
-18 9 -18 5 0 12 -9 16 -19 4 -12 12 -18 21 -14 8 3 14 -1 14 -11 0 -9 4 -16
8 -16 4 0 8 -12 7 -27 0 -48 -18 -31 -62 57 -44 87 -54 119 -28 84 8 -10 15
-27 15 -36z m26 26 c-4 -9 -9 -15 -11 -12 -3 3 -3 13 1 22 4 9 9 15 11 12 3
-3 3 -13 -1 -22z m2974 -34 c-46 -38 -60 -39 -18 0 18 16 37 30 43 30 5 0 -6
-13 -25 -30z m-2960 10 c0 -5 -5 -10 -11 -10 -5 0 -7 5 -4 10 3 6 8 10 11 10
2 0 4 -4 4 -10z m2845 -60 c3 -6 -1 -7 -9 -4 -18 7 -21 14 -7 14 6 0 13 -4 16
-10z m-38 -6 c-3 -3 -12 -4 -19 -1 -8 3 -5 6 6 6 11 1 17 -2 13 -5z m-30 -21
c13 -12 58 -12 70 0 3 4 11 7 17 7 5 0 1 -6 -9 -14 -11 -8 -26 -11 -35 -8 -8
3 -12 2 -8 -3 12 -13 -12 -35 -29 -28 -9 4 -14 2 -10 -3 3 -6 -3 -11 -14 -11
-10 -1 -19 2 -19 8 0 5 6 9 14 9 9 0 14 9 13 20 -1 11 -7 20 -14 20 -7 0 -13
5 -13 10 0 13 20 9 37 -7z m-43 -9 c3 -9 6 -17 6 -18 0 -1 -17 -3 -37 -3 l-37
-1 24 19 c31 23 36 23 44 3z m-2550 -103 c-7 -9 -34 10 -34 24 0 13 3 12 18
-2 10 -10 17 -20 16 -22z m-19 -29 c-3 -3 -11 0 -18 7 -9 10 -8 11 6 5 10 -3
15 -9 12 -12z m108 -103 c-8 -8 -2 -19 22 -40 18 -16 37 -29 43 -29 15 0 24
-17 13 -25 -6 -3 -26 9 -45 27 -20 18 -41 34 -46 34 -6 1 -13 2 -17 3 -7 1 27
41 36 41 3 0 0 -5 -6 -11z m112 -99 c-3 -5 1 -10 9 -10 9 0 16 -4 16 -10 0
-14 -11 -12 -33 4 -14 11 -15 15 -5 19 19 8 20 8 13 -3z m-185 -245 c-14 -17
-30 -20 -30 -6 0 5 8 12 18 14 9 3 19 5 21 6 2 0 -2 -6 -9 -14z m40 0 c0 -2
-10 -10 -22 -16 -21 -11 -22 -11 -9 4 13 16 31 23 31 12z"/>
<path d="M3915 7190 c-3 -5 -1 -10 4 -10 6 0 11 5 11 10 0 6 -2 10 -4 10 -3 0
-8 -4 -11 -10z"/>
<path d="M3985 6771 c3 -5 -3 -11 -12 -13 -10 -3 5 -4 32 -5 32 0 39 2 20 5
-30 5 -30 5 -5 12 23 7 23 8 -8 9 -18 1 -31 -3 -27 -8z"/>
<path d="M3940 6720 c0 -5 5 -10 11 -10 5 0 7 5 4 10 -3 6 -8 10 -11 10 -2 0
-4 -4 -4 -10z"/>
<path d="M3875 6694 c-26 -13 -27 -14 -5 -10 14 3 31 6 38 6 6 0 12 5 12 10 0
13 -8 12 -45 -6z"/>
<path d="M3530 6575 c-7 -8 -18 -15 -25 -15 -6 0 -20 -9 -30 -20 -10 -11 -22
-20 -26 -20 -13 0 -49 -33 -49 -44 0 -5 10 0 23 11 12 11 32 24 43 27 12 4 36
20 53 37 17 16 37 27 43 23 7 -4 8 -3 4 4 -10 16 -21 15 -36 -3z"/>
<path d="M3370 6460 c0 -5 5 -10 10 -10 6 0 10 5 10 10 0 6 -4 10 -10 10 -5 0
-10 -4 -10 -10z"/>
<path d="M6203 6209 c-2 -23 3 -25 10 -4 4 8 3 16 -1 19 -4 3 -9 -4 -9 -15z"/>
<path d="M2521 6154 c0 -11 3 -14 6 -6 3 7 2 16 -1 19 -3 4 -6 -2 -5 -13z"/>
<path d="M6330 6150 c-9 -6 -10 -10 -3 -10 6 0 15 5 18 10 8 12 4 12 -15 0z"/>
<path d="M6325 6120 c-3 -6 1 -7 9 -4 18 7 21 14 7 14 -6 0 -13 -4 -16 -10z"/>
<path d="M6350 6105 c-7 -8 -9 -15 -6 -15 4 0 14 7 22 15 9 8 11 15 6 15 -5 0
-15 -7 -22 -15z"/>
<path d="M6390 6100 c0 -5 5 -10 11 -10 5 0 7 5 4 10 -3 6 -8 10 -11 10 -2 0
-4 -4 -4 -10z"/>
<path d="M6598 6063 c7 -3 16 -2 19 1 4 3 -2 6 -13 5 -11 0 -14 -3 -6 -6z"/>
<path d="M6710 6040 c-9 -6 -10 -10 -3 -10 6 0 15 5 18 10 8 12 4 12 -15 0z"/>
<path d="M2496 6004 c-4 -14 -5 -28 -3 -31 3 -2 8 8 11 23 4 14 5 28 3 31 -3
2 -8 -8 -11 -23z"/>
<path d="M6440 5993 l-45 -13 40 5 c22 3 51 5 64 5 13 0 21 3 17 7 -11 11 -28
10 -76 -4z"/>
<path d="M6310 5981 c0 -6 5 -13 12 -17 6 -4 8 -3 4 4 -3 6 3 12 16 15 20 4
19 4 -4 6 -16 0 -28 -3 -28 -8z"/>
<path d="M6568 5983 c7 -3 16 -2 19 1 4 3 -2 6 -13 5 -11 0 -14 -3 -6 -6z"/>
<path d="M6678 5983 c7 -3 16 -2 19 1 4 3 -2 6 -13 5 -11 0 -14 -3 -6 -6z"/>
<path d="M6465 5970 c-13 -6 -15 -9 -5 -9 8 0 22 4 30 9 18 12 2 12 -25 0z"/>
<path d="M2933 5663 c15 -2 39 -2 55 0 15 2 2 4 -28 4 -30 0 -43 -2 -27 -4z"/>
<path d="M9020 7316 c0 -3 9 -10 20 -16 11 -6 20 -8 20 -6 0 3 -9 10 -20 16
-11 6 -20 8 -20 6z"/>
<path d="M2439 6973 c-12 -16 -12 -17 2 -6 9 7 20 9 24 5 5 -4 5 -1 1 6 -9 16
-11 15 -27 -5z"/>
<path d="M2381 6870 c0 -8 4 -22 9 -30 12 -18 12 -2 0 25 -6 13 -9 15 -9 5z"/>
<path d="M2325 6840 c-3 -5 1 -10 9 -10 9 0 16 5 16 10 0 6 -4 10 -9 10 -6 0
-13 -4 -16 -10z"/>
<path d="M2414 6835 c-10 -26 1 -35 13 -10 6 14 7 25 2 25 -5 0 -12 -7 -15
-15z"/>
<path d="M2361 6824 c0 -11 3 -14 6 -6 3 7 2 16 -1 19 -3 4 -6 -2 -5 -13z"/>
<path d="M2409 6773 c-13 -16 -12 -17 4 -4 9 7 17 15 17 17 0 8 -8 3 -21 -13z"/>
<path d="M2305 6629 c-4 -6 -5 -12 -2 -15 2 -3 7 2 10 11 7 17 1 20 -8 4z"/>
<path d="M2250 6620 c0 -5 5 -10 10 -10 6 0 10 5 10 10 0 6 -4 10 -10 10 -5 0
-10 -4 -10 -10z"/>
<path d="M2257 6563 c-4 -3 -7 -11 -7 -17 0 -6 5 -5 12 2 6 6 9 14 7 17 -3 3
-9 2 -12 -2z"/>
<path d="M8635 7197 c-4 -9 -4 -29 0 -44 5 -21 8 -24 16 -12 7 12 9 12 9 0 0
-8 2 -12 5 -9 3 2 -1 22 -9 44 -11 31 -15 35 -21 21z"/>
<path d="M1615 6690 c27 -12 43 -12 25 0 -8 5 -22 9 -30 9 -10 0 -8 -3 5 -9z"/>
<path d="M1677 6669 c7 -7 15 -10 18 -7 3 3 -2 9 -12 12 -14 6 -15 5 -6 -5z"/>
<path d="M1618 6603 c6 -2 18 -2 25 0 6 3 1 5 -13 5 -14 0 -19 -2 -12 -5z"/>
<path d="M9643 4843 c9 -2 23 -2 30 0 6 3 -1 5 -18 5 -16 0 -22 -2 -12 -5z"/>
<path d="M9608 4813 c7 -3 16 -2 19 1 4 3 -2 6 -13 5 -11 0 -14 -3 -6 -6z"/>
<path d="M9576 4725 c-3 -9 -6 -22 -5 -28 0 -7 5 -1 10 12 5 13 8 26 5 28 -2
2 -6 -3 -10 -12z"/>
<path d="M9561 4664 c0 -11 3 -14 6 -6 3 7 2 16 -1 19 -3 4 -6 -2 -5 -13z"/>
<path d="M9632 4580 c0 -14 2 -19 5 -12 2 6 2 18 0 25 -3 6 -5 1 -5 -13z"/>
<path d="M9602 4420 c0 -19 2 -27 5 -17 2 9 2 25 0 35 -3 9 -5 1 -5 -18z"/>
<path d="M3600 6080 c0 -5 5 -10 11 -10 5 0 7 5 4 10 -3 6 -8 10 -11 10 -2 0
-4 -4 -4 -10z"/>
<path d="M3527 6060 c3 -11 7 -20 9 -20 2 0 4 9 4 20 0 11 -4 20 -9 20 -5 0
-7 -9 -4 -20z"/>
<path d="M3636 6061 c5 -5 36 -11 69 -14 33 -3 53 -2 45 2 -21 12 -126 22
-114 12z"/>
<path d="M3620 6022 c-27 -13 -20 -29 11 -24 24 4 27 7 18 18 -6 8 -12 14 -13
13 0 0 -8 -3 -16 -7z"/>
<path d="M2901 4895 c-1 -5 -21 -120 -46 -255 -24 -135 -46 -255 -48 -268 -4
-23 -3 -23 62 -17 36 3 82 8 102 11 l35 5 -38 197 c-22 108 -45 229 -52 267
-8 39 -14 66 -15 60z"/>
<path d="M6978 5073 c7 -3 16 -2 19 1 4 3 -2 6 -13 5 -11 0 -14 -3 -6 -6z"/>
<path d="M7140 3469 c-55 -22 -333 -80 -455 -95 -71 -9 -136 -21 -143 -26 -7
-6 -29 -8 -50 -5 -25 5 -32 3 -22 -3 8 -5 25 -10 38 -10 12 0 22 -4 22 -9 0
-13 -84 -23 -133 -17 l-42 5 40 -10 c22 -5 52 -13 68 -18 16 -6 25 -6 21 0 -3
5 3 9 13 9 10 0 29 3 43 7 22 6 24 5 11 -10 -12 -16 -9 -17 35 -17 38 0 45 3
34 11 -11 8 -8 9 15 5 21 -5 26 -4 15 3 -20 14 -3 28 18 14 20 -12 96 -8 121
7 12 7 7 8 -19 5 -29 -4 -31 -3 -10 4 14 5 34 7 45 4 21 -4 87 19 86 30 -2 19
0 21 8 8 8 -12 14 -12 43 1 18 9 44 19 58 23 26 8 143 66 170 84 19 13 3 13
-30 0z"/>
<path d="M6378 3333 c7 -3 16 -2 19 1 4 3 -2 6 -13 5 -11 0 -14 -3 -6 -6z"/>
<path d="M6252 3311 c-10 -6 -7 -10 13 -15 15 -4 30 -5 33 -1 3 3 -3 6 -14 7
-10 0 1 4 26 8 l45 7 -45 1 c-25 1 -51 -2 -58 -7z"/>
<path d="M6228 3283 c-21 -5 -24 -23 -4 -23 8 0 16 7 20 15 3 8 4 14 3 14 -1
-1 -10 -3 -19 -6z"/>
<path d="M6716 3231 c-4 -5 12 -7 36 -4 57 8 61 13 10 13 -22 0 -43 -4 -46 -9z"/>
<path d="M6733 3203 c9 -2 23 -2 30 0 6 3 -1 5 -18 5 -16 0 -22 -2 -12 -5z"/>
<path d="M6668 2103 c7 -3 16 -2 19 1 4 3 -2 6 -13 5 -11 0 -14 -3 -6 -6z"/>
<path d="M4132 2068 c-12 -12 -5 -38 11 -38 6 0 7 3 4 7 -4 3 -2 12 4 19 13
15 -4 27 -19 12z"/>
<path d="M6694 2065 c10 -8 23 -12 29 -8 11 7 -12 23 -33 23 -12 -1 -11 -4 4
-15z"/>
<path d="M6458 2053 c7 -3 16 -2 19 1 4 3 -2 6 -13 5 -11 0 -14 -3 -6 -6z"/>
<path d="M3892 3553 c-7 -3 -40 -31 -74 -63 -34 -33 -65 -57 -70 -54 -4 3 -5
-2 -2 -11 5 -13 11 -11 33 13 14 15 52 49 84 75 55 44 62 53 29 40z"/>
<path d="M1410 2850 c0 -5 12 -10 28 -9 24 0 25 1 7 9 -27 12 -35 12 -35 0z"/>
<path d="M2475 2730 c-3 -6 1 -7 9 -4 18 7 21 14 7 14 -6 0 -13 -4 -16 -10z"/>
<path d="M3959 1783 c-13 -16 -12 -17 4 -4 9 7 17 15 17 17 0 8 -8 3 -21 -13z"/>
<path d="M4075 1620 c-2 -3 7 -7 20 -8 13 -1 26 2 29 6 2 4 -7 7 -21 7 -14 0
-26 -2 -28 -5z"/>
<path d="M4041 2155 c0 -5 6 -19 14 -29 8 -11 15 -15 15 -10 0 6 -7 19 -15 30
-8 10 -14 15 -14 9z"/>
<path d="M6822 2126 c7 -8 17 -12 22 -9 4 3 2 9 -5 14 -22 13 -31 11 -17 -5z"/>
</g>
</svg>
