<?xml version="1.0" standalone="no"?>
<!DOCTYPE svg PUBLIC "-//W3C//DTD SVG 20010904//EN"
 "http://www.w3.org/TR/2001/REC-SVG-20010904/DTD/svg10.dtd">
<svg version="1.0" xmlns="http://www.w3.org/2000/svg"
 width="500.000000pt" height="500.000000pt" viewBox="0 0 500.000000 500.000000"
 preserveAspectRatio="xMidYMid meet">

<g transform="translate(0.000000,500.000000) scale(0.100000,-0.100000)"
fill="#000000" stroke="none">
<path d="M2469 4475 c54 -59 54 -83 -2 -53 -15 8 -11 -1 15 -30 21 -23 44 -64
54 -96 10 -31 21 -56 26 -56 4 0 8 -34 8 -75 0 -93 -24 -150 -93 -219 -60 -60
-74 -53 -18 10 63 72 49 73 -19 1 -32 -35 -67 -64 -76 -64 -15 0 -15 2 2 16
11 9 45 50 77 91 63 82 84 149 73 229 -7 48 -41 115 -76 146 l-23 20 24 -45
c17 -35 24 -66 27 -138 4 -89 3 -96 -28 -159 -56 -114 -138 -178 -268 -209
-31 -7 -70 -13 -87 -13 l-30 1 35 9 c62 17 220 101 258 138 58 57 95 143 96
221 1 54 -4 74 -29 119 -66 119 -203 152 -327 77 -58 -35 -93 -79 -109 -140
-12 -45 -5 -122 16 -173 15 -36 4 -45 -18 -13 -8 11 -17 17 -21 13 -4 -4 -4 0
0 10 3 9 2 17 -4 17 -18 0 -33 82 -24 133 10 48 1 62 -18 27 -6 -10 -17 -45
-24 -77 -8 -33 -15 -47 -15 -33 -1 22 -3 23 -12 8 -7 -12 -7 -30 0 -55 6 -21
11 -41 11 -45 0 -5 -34 -8 -75 -8 -58 0 -77 4 -81 15 -4 8 -10 13 -14 10 -4
-3 -15 6 -24 20 -11 16 -26 25 -42 25 -15 0 -47 11 -73 23 -91 47 -141 67
-141 56 0 -5 20 -22 45 -37 52 -32 56 -42 15 -42 -16 0 -30 -4 -30 -10 0 -5 6
-10 14 -10 23 0 30 -20 14 -37 -13 -12 -19 -12 -51 3 -32 15 -35 20 -23 33 16
18 27 71 15 71 -4 0 -11 -10 -15 -22 -9 -28 -35 -70 -41 -65 -2 3 5 28 16 56
27 71 8 54 -34 -31 l-35 -70 23 -19 c12 -11 40 -29 62 -40 22 -12 42 -23 45
-26 10 -9 -28 -23 -67 -23 -29 0 -66 -13 -123 -42 -66 -34 -96 -58 -154 -121
-86 -95 -104 -128 -114 -209 l-7 -63 -6 60 -6 60 -1 -70 c-1 -39 2 -85 7 -103
9 -29 7 -34 -11 -41 -15 -5 -27 0 -47 18 -35 35 -114 131 -107 131 3 0 -2 8
-11 18 -10 9 -25 29 -34 42 -9 14 -20 22 -25 17 -9 -9 34 -103 55 -120 12 -9
13 -9 7 1 -4 6 -5 12 -2 12 6 0 36 -55 36 -65 0 -3 -8 -2 -17 4 -12 6 -26 5
-44 -5 -25 -12 -26 -17 -19 -50 5 -20 17 -46 28 -57 29 -33 44 -67 37 -85 -5
-14 -7 -14 -15 -2 -7 10 -10 11 -10 3 0 -18 -30 -16 -51 3 -16 14 -18 14 -29
-5 -6 -12 -8 -26 -5 -31 4 -6 1 -9 -7 -8 -25 6 -40 39 -36 83 3 40 1 43 -12
29 -10 -9 -15 -33 -14 -64 0 -28 -1 -50 -2 -50 -2 0 -10 12 -18 28 l-15 27 -1
-48 c0 -61 31 -96 110 -122 30 -9 64 -26 75 -36 11 -9 32 -21 47 -24 15 -4 32
-13 38 -20 9 -11 -4 -14 -67 -20 -43 -3 -102 -13 -132 -22 -53 -14 -141 -66
-141 -82 0 -4 -8 -16 -19 -27 -30 -32 -42 -62 -36 -87 5 -19 0 -25 -33 -40
-63 -28 -83 -110 -41 -169 18 -25 20 -37 14 -76 -19 -117 -6 -166 92 -345 24
-42 43 -88 43 -102 0 -14 8 -33 17 -43 19 -18 24 -58 10 -79 -4 -7 -5 -40 -1
-74 6 -58 9 -62 53 -95 67 -49 183 -107 286 -144 100 -35 325 -94 395 -104 43
-6 42 -5 -20 18 -36 13 -93 37 -128 55 -34 17 -68 29 -74 25 -7 -5 -8 -2 -3 6
6 10 4 12 -9 7 -9 -4 -15 -3 -12 2 3 5 -1 12 -10 15 -8 3 -12 2 -9 -4 3 -6 -1
-7 -9 -4 -9 3 -14 9 -11 14 2 4 -15 16 -38 26 -23 10 -71 38 -107 62 -60 40
-89 63 -65 50 185 -97 360 -159 585 -208 202 -44 310 -71 316 -82 3 -5 -5 -6
-18 -3 -51 12 -230 35 -265 34 -36 0 24 -20 205 -69 27 -7 40 -15 36 -22 -5
-8 3 -9 24 -5 20 4 32 2 32 -4 0 -6 8 -9 18 -8 9 1 24 0 32 -3 72 -27 120 -38
215 -52 124 -18 339 -35 459 -37 l81 -1 -60 -10 c-134 -21 -444 7 -625 56 -47
13 -134 29 -195 35 -156 17 -305 43 -299 53 3 4 -8 8 -23 8 -16 0 -38 6 -49
14 -30 21 -170 63 -239 72 -33 4 -67 9 -75 10 -8 1 -37 12 -65 25 -27 13 -54
25 -60 28 -5 2 -3 -4 5 -14 14 -17 14 -17 -20 0 -19 10 -48 29 -64 42 -16 13
-47 33 -70 45 -107 55 -201 167 -257 308 -23 57 -25 31 -2 -30 20 -54 92 -178
136 -234 54 -71 139 -161 159 -168 36 -14 214 -157 308 -247 52 -50 100 -91
107 -91 7 0 13 -4 13 -10 0 -5 15 -10 33 -11 27 0 29 -2 12 -9 -19 -8 -19 -9
-1 -9 16 -1 17 -3 5 -17 -7 -9 -22 -20 -34 -24 -11 -4 42 -8 120 -8 175 -1
233 -9 304 -38 l56 -23 -80 -3 c-67 -3 -75 -5 -47 -12 48 -13 48 -24 -1 -15
-23 4 -72 8 -109 9 -37 0 -70 5 -73 10 -3 6 -1 10 6 10 7 0 10 3 6 6 -8 8
-108 -25 -129 -43 -19 -17 -45 -7 -92 36 -25 23 -28 24 -25 6 4 -18 30 -36
136 -90 17 -9 49 -36 72 -61 40 -44 40 -44 108 -44 127 -1 182 -54 103 -99
-22 -12 -46 -21 -53 -18 -15 5 -247 -109 -247 -122 0 -15 56 -6 74 12 24 24
62 43 116 57 25 6 68 25 96 40 l52 29 13 -31 c18 -43 67 -62 142 -53 39 4 63
2 72 -5 11 -9 32 -2 96 32 l81 43 -46 5 c-98 12 -76 50 31 54 48 2 86 11 131
31 72 32 93 25 42 -14 -54 -41 -134 -123 -150 -154 -8 -16 -28 -40 -45 -54
-28 -25 -29 -25 -5 -18 14 5 59 9 100 11 94 2 86 0 110 26 11 12 22 19 26 16
3 -3 17 0 32 8 37 19 41 0 8 -31 -14 -13 -26 -26 -26 -29 0 -7 30 4 57 22 14
9 33 12 49 8 15 -4 30 -3 33 3 4 6 22 12 41 13 33 3 34 2 46 -48 44 -195 195
-303 381 -274 36 6 83 20 104 30 21 11 56 20 78 20 119 0 234 276 176 425 -9
26 -16 48 -14 50 2 2 31 -4 63 -12 49 -12 70 -13 120 -3 74 14 181 65 259 124
72 54 137 75 172 56 38 -20 165 -7 187 20 9 11 18 20 21 20 2 0 7 -20 9 -44 6
-46 34 -95 56 -96 10 0 12 9 7 33 -7 30 -6 31 9 12 23 -29 19 -12 -9 47 -37
76 -33 105 9 73 27 -21 36 -19 36 8 0 12 8 31 16 42 15 20 15 20 34 -2 10 -13
23 -23 29 -23 5 0 14 -7 19 -16 18 -33 23 6 10 88 -11 74 -17 90 -61 151 -28
37 -48 70 -45 72 3 3 27 -9 54 -27 44 -30 49 -37 52 -76 3 -41 4 -42 25 -27
12 8 40 15 64 15 l42 0 -21 60 -20 60 -66 1 c-65 1 -66 1 -28 11 36 10 38 12
32 42 -4 17 -20 60 -36 96 -29 63 -29 64 -5 35 14 -16 37 -58 52 -92 15 -35
31 -63 36 -63 16 0 0 95 -23 141 -13 24 -36 62 -53 84 l-30 40 31 -31 c36 -36
94 -125 137 -206 l29 -55 50 20 c28 11 64 32 79 46 34 31 72 90 63 98 -3 4 -6
1 -6 -5 0 -15 -59 -82 -72 -82 -6 0 -4 8 3 18 13 15 12 16 -3 3 -10 -7 -16
-17 -13 -21 5 -8 -65 -40 -85 -40 -22 0 -7 20 41 56 95 70 129 196 94 350 -28
121 -34 196 -16 202 6 2 21 12 33 23 23 19 23 19 -21 4 -24 -8 -64 -15 -90
-14 l-46 1 50 12 c28 7 64 19 80 27 89 46 129 71 142 86 9 11 12 12 7 3 -4 -8
-14 -24 -23 -35 -10 -12 -3 -9 19 8 58 45 80 71 71 80 -6 6 -4 15 5 24 13 14
13 18 -1 39 -8 13 -15 33 -15 44 0 12 -4 18 -10 15 -6 -3 -10 3 -10 15 0 30
-37 132 -55 149 -13 14 -15 13 -15 -3 0 -13 -8 -7 -26 20 -36 53 -93 113 -127
130 -16 9 -25 20 -21 26 4 6 3 8 -4 4 -12 -7 -62 13 -62 26 0 4 -3 7 -7 6 -5
-1 -33 6 -63 15 -30 9 -73 21 -95 27 -31 7 -19 8 50 4 50 -3 105 -9 123 -14
25 -7 32 -5 32 6 0 8 5 14 10 14 6 0 10 10 10 23 0 20 4 22 38 19 33 -3 44 2
86 39 26 23 54 55 62 70 18 36 18 93 0 108 -12 10 -16 3 -27 -44 -12 -52 -16
-59 -65 -90 -85 -55 -195 -73 -242 -39 -31 21 -19 34 33 34 24 0 47 5 50 10 3
6 14 10 25 10 22 0 34 28 19 46 -8 10 -24 12 -53 8 -32 -4 -37 -3 -23 6 20 13
22 38 5 93 -10 32 -10 41 0 45 19 6 14 29 -7 35 -11 2 -28 22 -39 43 -11 22
-36 54 -56 72 -20 18 -36 37 -36 43 0 6 -8 9 -17 7 -10 -2 -28 7 -42 20 -17
16 -35 22 -55 20 -26 -2 -32 -8 -36 -33 -3 -16 -10 -39 -17 -50 -10 -17 -14
-18 -35 -7 -19 11 -31 10 -66 -2 -37 -13 -48 -14 -69 -2 l-26 13 44 17 c24 9
69 24 99 35 41 13 55 23 55 37 1 10 4 25 8 31 6 10 2 11 -18 3 -27 -10 -49 -5
-40 10 3 4 -5 6 -17 3 -15 -3 -10 3 16 20 34 21 36 25 18 29 -11 3 -37 -2 -59
-12 l-38 -17 -1 34 c-1 40 -31 84 -65 97 -18 6 -38 3 -75 -13 -52 -23 -73 -46
-85 -96 -7 -29 -7 -29 -8 9 -1 32 5 44 35 72 l35 34 -43 1 c-24 1 -53 0 -65
-1 -28 -2 -28 6 -3 70 24 61 24 57 5 57 -8 0 -15 -6 -15 -14 0 -7 -4 -12 -9
-10 -17 4 -94 -75 -81 -83 15 -10 -43 -31 -185 -69 -60 -16 -121 -35 -135 -41
-24 -10 -24 -10 5 -6 17 2 59 8 95 11 59 6 63 6 45 -8 -14 -10 -58 -16 -145
-19 -69 -3 -116 -3 -105 -1 11 3 25 11 31 19 6 8 77 46 158 85 80 39 146 73
146 75 0 3 -7 12 -15 21 -14 13 -14 17 -2 27 20 16 30 46 13 40 -8 -3 -17 -1
-21 5 -11 18 -45 12 -72 -13 -26 -25 -53 -25 -53 0 0 7 10 19 23 25 49 26 132
125 149 180 17 51 17 54 -2 86 -27 47 -122 163 -132 163 -5 0 -7 -4 -4 -9 6
-10 -14 -16 -86 -26 l-46 -7 27 -42 c44 -68 94 -136 101 -136 3 0 32 7 64 15
33 9 60 14 61 13 1 -2 -16 -21 -38 -43 -23 -23 -35 -31 -29 -18 7 12 12 25 12
28 0 7 -58 -1 -84 -11 -8 -3 -35 23 -65 61 -29 36 -56 63 -62 60 -20 -13 -49
-86 -49 -127 l0 -43 -26 43 c-25 42 -44 60 -24 23 5 -11 10 -48 9 -83 -1 -63
-1 -63 -10 -21 -6 23 -17 47 -25 54 -12 10 -12 5 3 -32 10 -25 18 -70 18 -104
0 -54 -5 -67 -49 -137 -26 -43 -52 -78 -57 -78 -11 0 -11 3 1 34 13 34 5 33
-14 -1 -24 -45 -18 -7 10 58 20 48 25 78 25 138 0 42 0 78 -1 81 -4 13 -10 58
-13 90 -2 28 -8 37 -30 44 -34 12 -45 2 -24 -22 25 -27 22 -46 -4 -32 -19 11
-20 10 -9 -10 24 -45 3 -27 -37 32 -33 48 -40 65 -32 79 8 17 6 18 -19 13 -26
-5 -37 2 -90 53 -33 32 -78 75 -100 95 -51 46 -71 85 -79 151 -5 41 -13 59
-39 85 -17 17 -42 32 -54 32 -20 0 -19 -4 19 -45z m-190 -188 c33 -16 42 -46
26 -85 -9 -20 -23 -34 -41 -38 -23 -6 -32 -1 -58 27 -18 21 -27 26 -22 14 4
-11 9 -29 11 -40 3 -18 2 -17 -13 4 -26 37 -22 93 8 113 29 21 56 22 89 5z
m438 -192 c25 -45 28 -59 28 -150 0 -87 -3 -106 -25 -149 -30 -58 -98 -129
-149 -155 -68 -35 -175 -62 -302 -76 -165 -18 -235 -37 -344 -92 -106 -54
-114 -59 -188 -140 -59 -65 -69 -71 -40 -25 104 165 296 257 583 282 196 17
301 59 383 153 49 55 67 110 66 195 -1 97 -13 136 -23 73 -3 -23 -17 -64 -31
-90 -52 -104 -158 -148 -440 -186 -167 -22 -219 -33 -278 -61 -63 -29 -58 -30
41 -4 84 21 197 39 251 40 51 0 34 -8 -44 -20 -39 -6 -83 -15 -100 -20 -16 -5
-68 -19 -113 -30 -46 -12 -104 -30 -128 -41 -25 -10 -42 -14 -39 -9 23 37
-124 -7 -216 -66 -66 -41 -166 -122 -195 -157 -18 -22 -24 -25 -20 -12 6 17 4
17 -17 -5 -36 -37 -75 -145 -92 -257 -9 -54 -21 -128 -27 -165 -6 -39 -9 -110
-5 -170 4 -73 3 -96 -4 -78 -5 13 -13 75 -16 137 -6 109 -7 113 -25 97 -13
-12 -18 -31 -18 -66 0 -56 -15 -57 -23 -1 -4 37 7 194 18 250 5 27 5 27 -5 4
-6 -14 -14 -63 -19 -110 l-8 -86 -1 75 c-2 103 19 193 67 289 51 103 75 137
158 231 109 121 215 203 325 248 99 41 134 49 73 17 -103 -54 -155 -87 -155
-96 0 -6 -25 -41 -55 -79 -30 -38 -55 -72 -55 -75 0 -4 25 16 56 45 71 64 245
150 364 179 47 11 162 36 255 55 94 19 179 37 190 40 11 4 -2 -5 -30 -19 -27
-13 -42 -25 -33 -25 28 0 180 59 231 90 61 38 60 25 -4 -24 -28 -21 -48 -40
-46 -43 3 -2 27 7 54 21 107 54 160 196 118 317 l-15 44 20 -25 c10 -14 32
-47 47 -75z m575 47 c16 -13 19 -12 27 9 8 20 10 15 10 -28 1 -37 -3 -53 -12
-53 -16 0 -100 84 -92 92 9 9 48 -3 67 -20z m-1166 -27 c12 -17 12 -20 -2 -28
-16 -9 -35 9 -40 39 -3 18 27 10 42 -11z m281 -17 c-3 -8 -6 -5 -6 6 -1 11 2
17 5 13 3 -3 4 -12 1 -19z m-499 -100 c30 -11 68 -34 86 -50 l31 -29 -30 18
c-16 10 -38 19 -50 19 -11 1 -47 9 -80 18 -76 21 -168 21 -185 1 -7 -8 -18
-15 -24 -15 -6 0 -29 -5 -51 -11 -34 -10 -37 -13 -20 -20 11 -4 34 -8 50 -9
25 -1 18 -5 -35 -24 -160 -56 -200 -83 -274 -180 -61 -81 -87 -129 -127 -236
-29 -78 -37 -69 -18 20 16 74 4 73 -20 -2 l-20 -63 0 58 c-1 41 2 56 10 51 9
-5 10 1 5 20 -4 15 -2 26 4 26 5 0 9 3 8 8 -4 14 45 101 85 149 51 62 100 96
225 158 56 28 102 55 102 61 0 16 72 44 135 54 64 10 125 3 193 -22z m-261
-64 c-3 -3 -12 -4 -19 -1 -8 3 -5 6 6 6 11 1 17 -2 13 -5z m58 -54 c-59 -13
-126 -38 -150 -58 -20 -17 -20 -17 -1 5 24 28 110 62 156 61 l35 0 -40 -8z
m895 -299 c0 -15 -93 -49 -171 -61 -123 -20 -122 -7 1 24 63 16 124 32 135 37
27 11 35 11 35 0z m1240 -11 c11 -11 20 -32 20 -47 l0 -27 -16 22 c-19 27 -34
29 -27 3 3 -14 -2 -20 -21 -23 -23 -5 -26 -2 -26 21 -1 24 -2 24 -14 9 -18
-24 -26 -23 -26 4 0 53 71 77 110 38z m-477 -104 c32 -7 61 -17 65 -21 4 -3
-7 -3 -23 0 -29 7 -29 7 -10 -9 20 -17 19 -17 -7 -12 -92 20 -187 36 -210 36
-16 0 -28 5 -28 10 0 15 145 12 213 -4z m-2530 -28 c23 -12 33 -21 57 -53 15
-19 14 -19 -10 -2 -48 33 -51 18 -10 -43 39 -58 45 -85 15 -74 -7 3 -23 25
-34 49 -12 25 -37 59 -57 77 -32 30 -34 33 -18 45 22 16 29 16 57 1z m787 9
c0 -2 -12 -14 -27 -28 l-28 -24 24 28 c23 25 31 32 31 24z m1877 -22 c44 -19
75 -44 67 -56 -8 -14 -26 -11 -22 3 3 7 -20 25 -51 40 -60 30 -55 38 6 13z
m293 -16 c23 -1 23 -2 -5 -9 -49 -13 -65 -11 -65 6 0 12 6 15 23 10 12 -3 33
-6 47 -7z m-622 -35 c78 -26 154 -62 187 -89 11 -9 -4 -4 -33 10 -30 15 -56
24 -58 22 -2 -2 21 -20 51 -41 30 -20 55 -39 55 -42 0 -4 -10 0 -22 8 -139 89
-259 142 -357 158 -50 8 -47 8 24 4 44 -3 113 -17 153 -30z m-1618 -23 c-25
-36 -39 -42 -18 -8 8 12 18 28 22 35 5 7 10 11 13 8 3 -3 -5 -19 -17 -35z
m-121 -124 c-64 -132 -73 -172 -25 -121 l27 29 -32 -70 c-17 -38 -42 -99 -54
-135 l-24 -65 0 63 c-1 83 35 246 66 302 30 52 93 133 99 127 3 -2 -23 -61
-57 -130z m721 113 c-20 -13 -33 -13 -25 0 3 6 14 10 23 10 15 0 15 -2 2 -10z
m690 -24 c233 -64 438 -203 551 -375 53 -79 66 -119 22 -61 -50 63 -122 136
-150 150 -15 8 -46 29 -69 47 -22 18 -63 42 -90 54 -27 12 -58 32 -69 44 -15
18 -44 28 -127 44 -148 29 -228 28 -228 -4 0 -13 -72 -39 -272 -99 -83 -25
-155 -71 -194 -124 -6 -8 -16 -12 -22 -8 -7 4 -12 1 -12 -6 0 -10 -2 -10 -9 0
-6 10 -13 11 -27 4 -33 -18 -119 -54 -132 -56 -7 -1 -18 -8 -24 -14 -7 -7 -17
-12 -24 -12 -6 0 -17 -6 -23 -14 -7 -9 -23 -12 -39 -9 -66 12 -132 14 -166 5
-41 -12 -42 -16 14 68 55 82 87 115 175 187 88 72 110 85 243 137 148 59 250
76 427 72 122 -4 168 -9 245 -30z m-730 15 c0 -5 -20 -15 -45 -22 -25 -7 -45
-16 -45 -20 0 -4 -12 -9 -26 -12 -39 -7 -15 11 52 38 69 29 64 27 64 16z
m1956 -3 c4 -6 3 -8 -4 -4 -6 3 -13 -6 -17 -24 -4 -16 -11 -30 -16 -30 -12 0
-11 6 6 40 17 33 21 35 31 18z m-230 -20 c46 -53 46 -54 8 -66 -31 -9 -35 -9
-30 5 4 10 2 13 -8 10 -8 -3 -20 1 -26 9 -7 8 -28 14 -47 14 -30 0 -34 -2 -23
-15 10 -13 9 -15 -11 -15 -17 0 -20 3 -11 9 8 4 13 11 12 15 -3 15 7 22 55 38
28 9 53 17 56 17 3 1 14 -9 25 -21z m-2274 -109 c-38 -57 -84 -130 -102 -161
-19 -31 -36 -56 -37 -54 -14 13 104 218 167 289 55 64 45 34 -28 -74z m-397
29 c-27 -61 -55 -187 -55 -250 0 -91 22 -153 33 -95 2 12 5 -9 6 -48 1 -38 5
-87 10 -107 5 -21 5 -36 1 -33 -22 14 -70 216 -70 294 0 65 34 195 65 248 35
58 39 54 10 -9z m2772 34 c-25 -27 -21 -35 13 -30 24 4 30 1 25 -9 -3 -8 -5
-18 -5 -23 0 -5 -46 -23 -102 -40 -164 -50 -171 -47 -22 10 34 13 61 29 61 37
0 10 -7 13 -21 9 -15 -4 -9 5 19 29 44 38 57 45 32 17z m164 -5 c-6 -8 -8 -17
-4 -20 3 -4 -1 -7 -10 -7 -9 0 -21 -8 -26 -17 -6 -10 -11 -13 -11 -6 0 14 41
63 54 63 5 0 3 -6 -3 -13z m-1132 -96 c8 -5 -10 -10 -52 -13 -51 -3 -76 -11
-116 -36 -56 -34 -70 -27 -19 9 52 37 156 60 187 40z m609 -26 c21 -19 48 -54
61 -78 12 -23 34 -51 49 -60 25 -15 25 -16 6 -17 -13 0 -30 13 -45 34 -13 19
-48 62 -77 95 -59 66 -55 82 6 26z m716 -16 c11 -32 1 -75 -18 -82 -11 -4 -13
1 -9 24 5 33 -11 38 -55 15 -15 -7 -43 -17 -62 -21 l-35 -6 30 19 c17 11 43
34 60 51 37 39 75 39 89 0z m-1246 -20 c45 -16 132 -65 132 -75 0 -2 -12 -1
-28 2 -61 12 -108 -69 -64 -109 45 -41 132 -25 132 25 0 36 10 13 19 -43 9
-54 -3 -114 -20 -103 -5 3 -6 -2 -3 -10 12 -32 -124 -104 -179 -93 -19 4 -18
4 4 6 30 1 95 26 103 40 3 5 -12 3 -33 -5 -50 -17 -113 -1 -165 42 l-38 32 23
31 c19 26 21 34 11 55 -37 82 -152 62 -152 -26 0 -24 -4 -28 -30 -28 -29 0
-30 2 -31 43 0 32 -2 38 -9 22 -6 -13 -8 1 -6 42 l3 63 61 50 c39 31 76 51
100 55 20 4 42 8 47 10 17 5 67 -6 123 -26z m540 -89 c8 0 35 -21 61 -47 26
-27 56 -54 66 -60 18 -11 17 -12 -10 -7 -57 11 -137 58 -158 93 l-21 34 24 -6
c14 -4 31 -7 38 -7z m-398 -15 c7 -8 17 -12 24 -9 6 4 2 -3 -9 -15 -13 -13
-38 -23 -68 -26 -44 -6 -47 -5 -47 18 0 12 5 28 12 35 17 17 73 15 88 -3z
m-2192 -31 l30 -19 -103 2 c-60 2 -107 -1 -110 -7 -3 -6 4 -10 17 -11 13 -1
-5 -6 -39 -13 -157 -31 -248 -151 -258 -341 l-4 -80 14 69 c13 63 67 196 79
196 2 0 -6 -26 -19 -58 -36 -89 -49 -180 -36 -253 11 -67 68 -190 104 -229 43
-45 130 -125 123 -112 -12 21 -1 13 39 -29 l40 -41 -36 5 c-48 6 -74 21 -137
81 -60 57 -94 102 -141 190 -17 32 -31 52 -31 44 0 -21 27 -111 52 -171 11
-27 17 -51 15 -53 -11 -12 -64 78 -90 155 -53 153 -48 324 15 470 36 85 151
182 254 215 66 21 181 16 222 -10z m2863 -10 c17 -8 29 -17 27 -20 -3 -2 -22
5 -43 16 -22 11 -34 20 -27 20 7 0 27 -7 43 -16z m-952 -45 c17 -16 20 -24 10
-35 -8 -10 -15 -11 -24 -4 -9 8 -17 6 -29 -5 -22 -23 -50 -15 -54 15 -7 47 56
67 97 29z m1122 -64 c63 -30 111 -55 108 -55 -34 0 -239 90 -239 105 0 11 24
2 131 -50z m99 35 c0 -5 -4 -10 -10 -10 -5 0 -10 5 -10 10 0 6 5 10 10 10 6 0
10 -4 10 -10z m-776 -81 c55 -73 155 -261 191 -359 35 -92 40 -207 12 -255
-11 -19 -16 -22 -13 -10 20 92 16 178 -8 169 -8 -3 -17 11 -25 38 -17 56 -78
200 -112 262 -24 43 -28 46 -38 30 -10 -16 -10 -15 -6 11 5 28 5 28 -5 6 -14
-32 -51 -83 -57 -78 -2 3 7 28 21 56 14 28 26 63 25 78 -1 28 -1 27 -15 -7
l-14 -35 6 32 c3 20 -2 47 -15 77 -41 89 -21 83 53 -15z m-677 36 c7 -21 7
-37 2 -41 -16 -9 -76 -108 -87 -144 -7 -19 -13 -55 -13 -81 -2 -42 -4 -46 -36
-56 -18 -5 -33 -6 -33 -2 0 5 12 12 26 15 17 4 22 9 14 14 -9 6 -9 13 -1 28
20 37 13 80 -18 114 -24 27 -36 33 -69 33 -45 0 -74 -20 -92 -66 -16 -37 -6
-75 30 -110 15 -16 24 -31 19 -35 -13 -8 -68 27 -75 48 -14 45 -141 118 -206
118 -28 0 -38 5 -43 21 -4 11 -5 22 -2 25 7 8 525 148 563 153 6 0 15 -15 21
-34z m1163 -15 c132 -52 173 -73 176 -93 3 -19 -5 -17 -105 38 -43 23 -103 52
-134 64 -53 22 -68 31 -49 31 4 0 54 -18 112 -40z m-1930 -35 c57 -29 120 -92
120 -120 0 -19 -56 -85 -63 -74 -1 2 -9 24 -17 49 -16 48 -15 47 -91 34 -37
-6 -37 -6 -44 35 -4 23 -10 41 -14 41 -24 0 -131 -44 -131 -53 0 -7 4 -26 9
-44 9 -30 8 -31 -22 -37 -55 -11 -61 -19 -46 -59 8 -24 18 -34 28 -31 9 2 27
6 41 9 24 6 24 6 -3 -10 -15 -9 -32 -13 -37 -10 -6 4 -10 -8 -11 -27 l-1 -33
-13 35 c-13 33 -14 33 -11 6 1 -15 13 -37 27 -48 16 -13 18 -18 7 -14 -10 3
-24 3 -32 0 -23 -9 19 -51 71 -70 52 -20 153 -15 202 10 18 10 35 15 38 12 4
-3 -11 -14 -33 -23 -27 -12 -66 -18 -124 -18 -76 0 -91 3 -140 30 -183 101
-111 389 110 436 52 11 129 0 180 -26z m846 25 c-35 -11 -68 -39 -59 -53 3 -5
1 -7 -4 -4 -6 4 -14 0 -17 -9 -11 -30 -6 -37 14 -19 20 18 20 17 20 -19 0 -49
15 -74 53 -92 l32 -15 -40 5 c-28 4 -48 15 -69 38 l-29 32 7 -30 c6 -27 5 -28
-9 -10 -19 25 -19 79 0 117 19 36 70 69 105 68 24 -1 24 -1 -4 -9z m-1783 -44
c18 -7 42 -25 55 -38 l23 -25 -56 19 c-69 23 -121 16 -176 -24 -38 -27 -119
-139 -119 -165 0 -6 -5 -15 -12 -19 -18 -11 -2 53 28 111 42 80 90 123 164
146 38 11 58 10 93 -5z m107 -30 c0 -12 -5 -7 -19 24 -11 24 -11 24 3 6 9 -11
16 -24 16 -30z m1799 18 c40 -33 43 -83 6 -119 -13 -14 -30 -25 -37 -25 -7 1
-1 7 14 15 47 26 46 99 -2 125 -30 16 -47 12 -22 -6 14 -10 22 -26 22 -44 0
-58 -82 -81 -119 -34 -27 35 -26 59 4 89 34 35 93 34 134 -1z m421 -15 c0 -16
-4 -28 -9 -25 -8 5 -3 56 5 56 2 0 4 -14 4 -31z m600 1 c30 -16 51 -29 45 -29
-5 0 -35 13 -65 29 -30 16 -50 29 -45 29 6 0 35 -13 65 -29z m257 -16 c-3 -3
-12 -4 -19 -1 -8 3 -5 6 6 6 11 1 17 -2 13 -5z m96 -11 c-13 -2 -35 -2 -50 0
-16 2 -5 4 22 4 28 0 40 -2 28 -4z m-2453 -50 c0 -25 15 -39 25 -23 3 5 11 10
18 10 6 0 -4 -15 -21 -33 -18 -18 -29 -36 -26 -40 4 -4 0 -7 -9 -7 -9 0 -18 4
-22 9 -3 5 -20 13 -38 17 -17 4 -27 9 -20 11 9 3 9 10 1 28 -15 34 -5 51 39
62 42 10 53 3 53 -34z m2517 41 c-3 -3 -12 -4 -19 -1 -8 3 -5 6 6 6 11 1 17
-2 13 -5z m-1788 -40 c30 -38 27 -80 -8 -115 -29 -28 -71 -39 -71 -18 0 5 3 8
8 6 15 -10 52 13 67 42 14 28 14 34 1 60 -16 30 -52 45 -83 34 -56 -19 -70
-77 -30 -122 l22 -26 -27 23 c-34 31 -42 65 -23 101 17 35 27 39 82 40 34 1
46 -4 62 -25z m-1504 -27 c40 -40 50 -72 36 -110 -14 -35 -80 -66 -141 -67
-49 0 -70 13 -70 42 0 15 3 17 19 8 31 -16 57 -12 90 16 38 31 40 62 6 98 -29
32 -65 34 -112 5 -68 -42 -100 -164 -69 -264 20 -65 12 -71 -15 -10 -60 135
42 315 179 315 37 0 50 -6 77 -33z m-374 -98 c-2 -87 1 -139 12 -183 9 -34 18
-74 21 -91 l6 -30 -15 27 c-41 74 -59 255 -34 354 6 24 12 44 13 44 0 0 -1
-55 -3 -121z m1279 68 c7 -21 10 -40 7 -43 -11 -11 -77 -16 -77 -6 0 6 10 12
23 14 20 3 22 8 19 48 -3 51 9 46 28 -13z m265 43 c13 -6 4 -7 -26 -3 -79 9
-155 -32 -174 -94 -8 -29 7 -30 20 -1 19 41 30 29 29 -32 -1 -69 7 -80 69 -91
39 -7 38 -8 -12 -5 -47 3 -59 8 -83 35 -15 17 -28 25 -28 18 0 -7 6 -19 13
-27 10 -12 9 -12 -5 -1 -24 18 -32 72 -19 114 11 32 59 75 101 90 23 8 93 7
115 -3z m281 -29 c-4 -6 -16 -11 -27 -11 -21 0 -27 35 -6 43 16 6 41 -18 33
-32z m874 21 c0 -5 -7 -17 -15 -28 -14 -18 -14 -17 -4 9 12 27 19 34 19 19z
m520 -2 c8 -5 11 -10 5 -10 -5 0 -17 5 -25 10 -8 5 -10 10 -5 10 6 0 17 -5 25
-10z m-865 -71 c-23 -68 -28 -58 -7 14 9 31 18 52 20 47 2 -5 -4 -33 -13 -61z
m-296 -42 c45 -30 48 -56 3 -33 -44 23 -72 60 -78 102 l-5 39 19 -40 c11 -24
36 -52 61 -68z m-488 52 c23 -30 25 -97 4 -105 -8 -4 -12 -11 -8 -17 3 -6 1
-7 -6 -3 -8 5 -7 13 4 29 8 12 15 29 15 39 0 23 -40 65 -70 73 l-25 8 28 -26
c46 -44 30 -96 -35 -112 -53 -13 -103 74 -65 114 10 11 10 13 0 7 -7 -4 -13
-5 -13 -1 0 14 49 25 99 21 42 -2 57 -8 72 -27z m1171 -108 c-7 -20 -18 -45
-25 -55 -12 -17 -14 -14 -14 25 0 24 -8 59 -18 78 l-17 35 -30 -35 c-20 -23
-26 -26 -18 -11 6 13 28 42 48 64 l37 41 24 -53 c20 -45 22 -57 13 -89z m1091
84 c91 -100 68 -278 -43 -335 -74 -38 -198 -20 -235 34 -26 37 -16 37 53 1 97
-50 164 -45 200 15 10 17 10 20 1 9 -33 -38 -86 -49 -133 -28 -33 16 -45 44
-13 32 38 -14 96 -8 123 12 14 11 25 23 23 26 -2 3 1 12 8 20 7 8 15 34 19 58
5 29 10 38 15 29 15 -23 10 6 -11 67 -11 33 -30 70 -43 84 -18 21 -19 23 -2
11 11 -8 28 -24 38 -35z m-2633 -46 c0 -10 1 -22 1 -26 1 -5 -20 -16 -47 -25
-49 -18 -63 -13 -64 19 0 20 -15 23 -54 12 -51 -14 -58 -3 -11 17 42 17 87 12
79 -10 -8 -21 10 -27 45 -15 35 12 35 11 21 59 l-9 35 19 -24 c11 -13 20 -32
20 -42z m-88 32 c-4 -10 -7 -11 -10 -3 -2 7 -9 9 -14 6 -6 -4 -8 -3 -5 3 10
16 36 11 29 -6z m2671 -31 c59 -66 21 -171 -62 -169 l-36 1 32 9 c17 5 41 21
53 36 36 47 14 97 -66 151 -17 11 -15 12 16 7 21 -3 46 -17 63 -35z m-1847 -8
c-3 -5 -45 -19 -93 -32 -48 -13 -94 -28 -100 -33 -9 -6 -13 -6 -13 1 0 6 24
17 53 25 44 13 145 43 155 46 2 1 1 -3 -2 -7z m1291 -126 c57 -75 116 -200
145 -309 19 -67 23 -107 22 -222 0 -148 -16 -233 -55 -305 -11 -19 -17 -26
-14 -15 37 118 57 275 35 275 -5 0 -12 -17 -16 -37 -15 -81 -93 -213 -127
-213 -6 0 -1 10 10 23 80 86 127 303 89 410 l-13 39 -6 -65 c-6 -66 -45 -192
-72 -234 -9 -13 -23 -23 -33 -23 -12 0 -24 -18 -40 -59 -12 -32 -32 -67 -44
-77 -21 -19 -21 -19 -9 3 7 14 8 24 1 28 -5 3 -10 2 -10 -4 0 -14 -121 -143
-128 -136 -3 2 22 35 55 73 33 37 70 83 81 101 11 18 22 27 24 20 2 -6 4 5 4
26 0 21 5 40 12 43 7 2 12 16 12 31 0 15 5 32 10 37 6 6 14 67 17 135 6 105 8
118 16 84 5 -22 7 -89 5 -150 l-5 -110 24 51 c28 62 43 137 43 218 0 33 5 68
11 76 8 12 9 10 4 -7 -3 -13 -2 -23 3 -23 5 0 14 10 21 23 9 17 9 32 -3 70 -8
26 -10 47 -6 47 24 0 -23 96 -96 199 -56 79 -31 62 33 -23z m283 -105 c14 -25
50 -65 80 -90 48 -39 51 -43 25 -37 -110 28 -172 133 -165 281 2 36 4 32 19
-35 9 -41 28 -95 41 -119z m-2151 85 c11 -11 21 -25 21 -32 0 -7 10 -20 22
-28 18 -13 19 -16 5 -16 -9 0 -35 18 -58 41 -34 34 -40 37 -34 17 5 -18 4 -20
-4 -8 -6 8 -11 28 -11 43 0 20 -4 26 -12 21 -10 -6 -10 -4 0 7 19 21 14 34 -6
16 -10 -10 -23 -17 -28 -17 -5 0 5 11 21 24 l30 25 16 -37 c9 -20 26 -46 38
-56z m1772 -28 c31 -62 69 -188 69 -228 l-1 -25 -15 27 c-8 15 -26 71 -40 125
-14 54 -39 123 -55 153 -23 42 -25 49 -8 30 12 -14 34 -50 50 -82z m-2786 82
c-3 -5 -14 -10 -23 -9 -14 0 -13 2 3 9 27 11 27 11 20 0z m545 -36 c0 -41 63
-123 115 -152 l20 -11 -20 -1 c-17 0 -17 -2 -5 -10 29 -19 -5 -10 -40 10 l-35
21 33 -30 c38 -36 42 -50 7 -27 -13 9 -28 16 -32 16 -15 0 6 -204 30 -290 13
-47 27 -94 31 -105 8 -20 7 -20 -8 -1 -20 25 -20 14 -1 -25 9 -17 21 -27 27
-23 7 5 8 2 3 -6 -6 -10 -15 -4 -36 21 -48 58 -71 151 -88 359 -22 259 -23
282 -12 275 6 -3 11 -13 11 -21z m1945 -82 c5 -44 4 -43 -9 13 -8 33 -17 69
-20 80 -4 11 1 5 9 -13 9 -18 18 -54 20 -80z m-1668 82 c-3 -3 -12 -4 -19 -1
-8 3 -5 6 6 6 11 1 17 -2 13 -5z m-587 -52 c21 -17 22 -21 11 -55 -22 -65 -93
-101 -148 -75 -51 24 -41 91 20 128 40 25 88 25 117 2z m1874 -111 c7 -9 20
-28 27 -43 8 -14 36 -49 62 -77 61 -65 44 -67 -20 -3 -28 28 -68 87 -95 139
-52 99 -66 141 -18 54 17 -30 36 -62 44 -70z m-392 85 c4 3 9 -1 14 -8 4 -7 4
-10 -1 -6 -4 4 -20 1 -35 -7 -35 -18 -43 -10 -23 22 15 22 18 23 28 9 7 -9 14
-13 17 -10z m-1794 -56 c-1 -3 4 -18 10 -33 17 -39 15 -43 -9 -21 -30 27 -52
73 -44 92 5 15 9 13 25 -8 10 -13 18 -27 18 -30z m133 -118 c17 -25 43 -62 57
-81 43 -56 9 -31 -47 34 -60 71 -101 147 -101 189 0 27 4 23 30 -33 17 -35 44
-84 61 -109z m300 58 c34 -44 66 -80 70 -80 10 0 17 -47 9 -60 -5 -8 -25 9
-56 46 -86 100 -83 98 -104 79 -17 -16 -18 -20 -6 -44 15 -28 111 -121 126
-121 5 0 12 5 15 10 9 15 25 12 25 -5 0 -10 -6 -12 -17 -8 -16 6 -16 5 -4 -11
13 -16 12 -17 -15 -10 -53 13 -235 139 -234 162 1 4 23 18 50 31 38 18 53 33
62 58 7 18 13 33 14 33 1 0 30 -36 65 -80z m1649 24 c0 -9 -7 -22 -16 -28 -13
-10 -14 -19 -5 -53 9 -34 15 -40 31 -36 25 7 27 -15 3 -32 -22 -17 -10 -45 16
-38 14 4 21 1 21 -10 0 -16 -49 -33 -60 -20 -14 14 -61 206 -53 214 7 6 32 14
56 18 4 0 7 -6 7 -15z m-57 -115 c16 -61 26 -113 23 -116 -11 -11 -24 9 -36
54 -7 27 -14 41 -17 33 -14 -46 -14 -46 -35 -20 -15 17 -19 19 -15 7 14 -39
20 -97 9 -97 -15 0 -61 160 -62 213 0 31 37 20 51 -15 l13 -33 3 30 c6 44 11
55 26 55 8 0 23 -40 40 -111z m-142 -31 c24 -56 46 -106 47 -110 2 -4 -2 -8
-10 -8 -7 0 -26 26 -41 58 l-27 57 4 -67 c3 -50 0 -68 -10 -72 -8 -3 -14 -2
-14 2 -1 4 -7 58 -13 120 -7 62 -11 115 -8 117 16 17 34 -7 72 -97z m689 89
c0 -2 -12 -14 -27 -28 l-28 -24 24 28 c23 25 31 32 31 24z m-1801 -23 c79 -27
104 -43 90 -60 -13 -16 -34 -19 -24 -4 3 6 1 10 -5 10 -6 0 -8 6 -5 13 4 6 -3
1 -14 -11 l-21 -24 35 -42 c19 -24 35 -49 35 -56 0 -9 -5 -7 -15 6 -8 10 -15
15 -15 10 0 -5 -7 -2 -16 5 -9 7 -26 13 -38 14 -25 0 -52 49 -61 113 -7 47 -6
47 54 26z m-369 -15 c0 -6 -4 -7 -10 -4 -5 3 -10 11 -10 16 0 6 5 7 10 4 6 -3
10 -11 10 -16z m1330 -88 c23 -85 26 -92 47 -86 24 6 41 -11 26 -26 -6 -6 -22
-11 -37 -12 -27 -2 -29 2 -56 88 -32 99 -37 139 -17 133 6 -3 23 -46 37 -97z
m-70 67 c0 -7 3 -23 6 -34 4 -16 0 -23 -16 -27 -16 -4 -21 -11 -16 -22 3 -9 6
-23 6 -31 0 -8 10 -14 25 -14 16 0 25 -6 25 -15 0 -9 -9 -15 -21 -15 -13 0
-19 -5 -16 -12 18 -51 19 -60 2 -56 -13 2 -25 31 -46 103 -34 122 -34 123 -6
128 43 8 57 7 57 -5z m-523 -30 c-3 -7 -5 -2 -5 12 0 14 2 19 5 13 2 -7 2 -19
0 -25z m437 -30 c31 -111 45 -172 40 -180 -12 -19 -22 -5 -34 49 -14 56 -14
56 -22 25 -5 -18 -11 -32 -13 -32 -2 0 -12 12 -20 28 -16 27 -16 27 -11 2 15
-67 18 -100 8 -100 -6 0 -15 15 -21 33 -11 33 -41 171 -41 188 0 21 27 7 45
-23 l20 -33 3 35 c6 78 26 81 46 8z m-1539 -81 c84 -38 195 -96 195 -102 0 -5
-111 42 -210 87 -156 72 -187 88 -206 109 -15 17 -1 13 61 -19 44 -22 116 -56
160 -75z m572 51 c-2 -13 -4 -5 -4 17 -1 22 1 32 4 23 2 -10 2 -28 0 -40z
m561 -188 c-3 -51 -11 -100 -21 -124 -20 -44 -34 -44 -16 0 8 19 12 86 12 189
l-1 160 14 -70 c9 -41 14 -105 12 -155z m275 138 c42 -98 53 -138 39 -138 -5
0 -13 7 -16 16 -8 21 -41 13 -41 -10 0 -11 -5 -21 -11 -23 -14 -5 -21 32 -30
150 -6 74 -5 87 8 87 10 0 29 -31 51 -82z m-118 32 c9 -10 15 -26 12 -35 -9
-22 -24 -18 -31 7 -3 15 -9 19 -15 13 -11 -11 26 -175 40 -175 18 0 19 22 3
56 -14 30 -15 37 -4 44 21 13 27 5 40 -51 14 -59 6 -71 -45 -67 -28 3 -31 7
-47 73 -22 94 -22 132 0 144 24 14 26 14 47 -9z m-1180 -46 l30 -26 -33 18
c-18 11 -41 28 -50 38 -16 18 -16 18 3 8 11 -7 34 -24 50 -38z m15 24 c0 -5
-9 -4 -20 2 -11 6 -20 12 -20 14 0 2 9 2 20 -1 11 -3 20 -9 20 -15z m511 -206
c43 -73 59 -102 54 -102 -3 0 -20 24 -40 53 -34 52 -76 183 -74 236 0 14 9
-14 19 -62 10 -48 28 -104 41 -125z m2764 198 c3 -5 2 -10 -4 -10 -5 0 -18 -3
-28 -7 -16 -6 -16 -5 -4 10 15 19 27 22 36 7z m-3065 -53 c0 -6 -11 2 -25 17
-14 15 -25 30 -25 33 0 4 11 -4 25 -17 14 -13 25 -28 25 -33z m2361 -19 c-15
-60 -64 -155 -126 -243 -55 -78 -212 -227 -300 -286 -75 -49 -224 -131 -190
-105 11 9 53 42 94 74 124 96 259 260 332 405 40 79 52 73 15 -8 l-25 -55 29
22 c41 30 93 112 121 188 24 68 37 86 53 70 6 -6 5 -29 -3 -62z m-2990 45 c10
-11 10 -14 2 -9 -9 5 -12 0 -10 -16 1 -17 -4 -24 -20 -26 -30 -4 -43 36 -17
55 23 17 29 16 45 -4z m3648 -44 c16 -46 -3 -34 -28 19 -22 44 -22 46 -3 29
12 -11 25 -32 31 -48z m-145 -28 c-6 -6 -24 19 -24 34 1 6 7 1 15 -9 8 -11 12
-22 9 -25z m-2471 -56 c11 -27 29 -63 40 -80 l19 -30 -25 27 c-26 28 -68 127
-66 156 1 13 2 13 6 -3 3 -11 14 -42 26 -70z m-712 -2 c13 -16 12 -17 -3 -4
-10 7 -18 15 -18 17 0 8 8 3 21 -13z m1869 3 c0 -2 -9 -6 -20 -9 -11 -3 -20
-1 -20 4 0 5 9 9 20 9 11 0 20 -2 20 -4z m-2105 -54 c-7 -8 -76 29 -70 38 3 6
19 1 40 -13 18 -12 32 -23 30 -25z m3622 37 c8 -8 8 -20 1 -41 -14 -40 -50
-36 -59 7 -6 29 -8 27 -22 -15 -3 -8 -6 -4 -6 11 -1 14 4 30 11 37 15 15 60
16 75 1z m-1602 -60 c46 -27 86 -53 89 -57 3 -5 -94 -193 -109 -210 -3 -3
-155 78 -155 84 0 2 26 -8 58 -22 31 -14 62 -28 67 -30 10 -4 95 121 95 140 0
6 -32 28 -70 49 -53 29 -70 34 -70 23 0 -9 -14 -38 -31 -66 -25 -42 -36 -50
-60 -50 -16 0 -29 2 -29 5 0 3 21 48 47 100 55 110 43 107 168 34z m-1428 -9
c109 -52 143 -78 46 -34 -32 14 -93 39 -135 55 -43 17 -78 33 -78 36 0 13 72
-11 167 -57z m2740 -12 c-3 -7 -5 -2 -5 12 0 14 2 19 5 13 2 -7 2 -19 0 -25z
m-1637 -3 c-7 -9 -15 -13 -17 -11 -7 7 7 26 19 26 6 0 6 -6 -2 -15z m-577 -62
c-13 -2 -35 -2 -50 0 -16 2 -5 4 22 4 28 0 40 -2 28 -4z m1187 -178 c-30 -32
-220 -125 -317 -156 -40 -12 -70 -26 -67 -30 7 -12 -104 -42 -134 -36 -15 3
-70 -4 -122 -16 -112 -24 -321 -30 -341 -9 -11 10 -4 12 31 12 100 0 402 57
618 116 78 21 170 56 237 89 61 29 112 54 114 54 3 1 -6 -10 -19 -24z m-1927
-56 c34 -9 75 -38 133 -96 13 -13 19 -23 14 -23 -18 0 -257 118 -265 130 -8
13 41 8 118 -11z m2848 -70 c-5 -13 -10 -19 -10 -12 -1 15 10 45 15 40 3 -2 0
-15 -5 -28z m149 -89 c13 -11 21 -22 18 -25 -6 -6 -48 24 -48 36 0 13 4 12 30
-11z m-2185 -54 c77 -9 156 -18 175 -20 19 -2 -12 -2 -70 1 -120 5 -242 20
-273 34 -21 9 -20 9 3 5 14 -3 88 -12 165 -20z m1744 -7 c-33 -47 -120 -127
-151 -140 -16 -6 -28 -15 -28 -19 0 -13 -78 -40 -113 -40 -39 0 -111 19 -103
27 8 8 106 25 139 24 42 -2 143 56 212 121 33 32 61 57 63 58 2 0 -7 -14 -19
-31z m-1074 -19 c-3 -5 -18 -9 -33 -9 l-27 1 30 8 c17 4 31 8 33 9 2 0 0 -3
-3 -9z m295 -53 c-189 -85 -281 -140 -352 -210 -21 -21 -38 -32 -38 -25 0 7
28 39 63 73 65 63 132 101 257 147 76 27 116 36 70 15z m950 -23 c0 -8 -4 -12
-10 -9 -5 3 -10 10 -10 16 0 5 5 9 10 9 6 0 10 -7 10 -16z m-2260 -54 c10 -6
4 -10 -20 -13 -143 -21 -174 -28 -191 -43 -15 -14 -21 -14 -34 -4 -8 7 -21 10
-30 7 -8 -4 -17 -2 -19 2 -11 18 54 54 114 64 34 6 161 -4 180 -13z m1410 -34
c0 -2 -12 -11 -27 -20 l-28 -17 24 20 c23 21 31 25 31 17z m-550 -25 c-22 -12
-124 -29 -213 -36 -42 -3 -105 -15 -138 -25 -67 -22 -97 -24 -118 -11 -11 7 0
16 40 37 51 25 62 27 174 26 66 -1 140 3 165 7 62 12 109 13 90 2z m-666 -32
c32 -25 27 -38 -6 -15 -12 9 -34 16 -48 16 -20 0 -22 2 -10 10 22 14 34 12 64
-11z m1267 -90 c1 -83 -13 -197 -30 -241 -10 -27 -55 -71 -76 -74 -11 -2 -10
6 5 34 11 20 25 64 32 97 11 54 13 57 19 30 7 -30 7 -30 8 -3 0 15 -3 30 -9
33 -5 3 -10 25 -11 48 0 39 -17 99 -18 68 -1 -8 -4 -12 -7 -8 -3 3 -2 13 3 22
8 14 12 12 23 -15 7 -17 18 -59 25 -93 l11 -62 8 116 c5 64 5 127 2 140 -6 19
-5 21 3 8 6 -9 11 -54 12 -100z m122 97 c7 -8 31 -24 53 -35 41 -22 28 -28
-23 -11 -17 6 -35 22 -41 35 -13 28 -10 31 11 11z m-1444 -30 c9 -11 7 -15
-10 -19 -17 -5 -19 -9 -10 -26 17 -31 13 -34 -15 -12 -30 23 -64 27 -82 9 -9
-9 -12 -9 -12 0 0 14 32 32 59 32 14 0 19 5 15 15 -8 20 39 21 55 1z m526 -48
c-11 -6 -27 -16 -35 -22 -9 -6 -5 -1 8 12 13 12 28 22 35 22 7 0 3 -6 -8 -12z
m-580 -29 c10 -15 2 -19 -23 -12 -12 3 -19 9 -16 14 7 12 31 11 39 -2z m1062
5 c-3 -3 -12 -4 -19 -1 -8 3 -5 6 6 6 11 1 17 -2 13 -5z m-373 -77 c-26 -48
-44 -67 -44 -47 0 14 60 103 66 97 2 -2 -7 -25 -22 -50z m-184 40 c0 -2 -14
-16 -32 -33 -18 -16 -26 -20 -18 -9 19 27 50 53 50 42z m797 -69 c-2 -13 -4
-5 -4 17 -1 22 1 32 4 23 2 -10 2 -28 0 -40z m-247 9 c0 -1 -21 -3 -48 -4 -47
-1 -47 -1 -17 12 20 9 36 10 47 4 10 -5 18 -11 18 -12z m-620 -5 c0 -14 -39
-46 -47 -39 -3 4 2 16 12 27 19 21 35 26 35 12z m845 -89 c-9 -15 -14 -20 -11
-10 4 11 9 31 13 45 5 19 8 22 11 10 2 -9 -4 -29 -13 -45z m-65 -8 c0 -22 -61
-86 -97 -101 -77 -33 -171 -7 -207 56 l-20 35 35 -37 c41 -42 71 -52 139 -46
54 5 114 43 132 84 13 28 18 30 18 9z m-171 -42 c2 -2 0 -3 -6 -3 -6 0 -21 9
-34 21 l-24 20 30 -17 c17 -10 32 -19 34 -21z m-53 -169 c46 -12 82 -15 130
-11 77 7 80 1 6 -13 -72 -13 -153 2 -213 41 -27 17 -55 41 -61 52 -7 14 3 9
31 -15 28 -24 64 -42 107 -54z"/>
<path d="M2209 4244 c-14 -17 -5 -40 23 -58 20 -12 48 8 48 33 0 38 -46 54
-71 25z"/>
<path d="M2980 3067 c36 -18 36 -42 -1 -59 -54 -27 -108 4 -74 42 19 21 7 28
-13 8 -18 -18 -14 -56 8 -78 43 -43 130 -13 130 44 0 26 -33 56 -60 56 -8 0
-4 -6 10 -13z"/>
<path d="M3022 2873 c-23 -9 -44 -61 -32 -83 28 -53 91 -64 138 -25 29 24 52
20 36 -7 -4 -7 -3 -8 4 -4 17 10 15 24 -8 43 -11 10 -20 23 -20 29 0 34 -76
64 -118 47z m80 -30 c23 -21 23 -30 -3 -44 -17 -9 -20 -8 -13 3 6 10 5 11 -7
1 -9 -7 -20 -9 -29 -3 -9 5 -19 5 -26 -1 -20 -17 -27 10 -10 36 19 29 60 33
88 8z"/>
<path d="M3987 2739 c7 -7 15 -10 18 -7 3 3 -2 9 -12 12 -14 6 -15 5 -6 -5z"/>
<path d="M2816 2665 c-11 -8 -16 -15 -10 -15 5 0 18 7 28 15 11 8 16 15 10 15
-5 0 -18 -7 -28 -15z"/>
<path d="M1748 2682 c-48 -6 -34 -72 16 -77 24 -3 26 0 26 35 0 44 -4 47 -42
42z"/>
<path d="M4400 2260 c-9 -6 -10 -10 -3 -10 6 0 15 5 18 10 8 12 4 12 -15 0z"/>
<path d="M3756 1621 c-4 -7 -5 -15 -2 -18 9 -9 19 4 14 18 -4 11 -6 11 -12 0z"/>
<path d="M1111 2295 c-69 -59 -12 -113 67 -65 28 17 33 25 30 53 -3 28 -7 32
-34 35 -22 2 -40 -5 -63 -23z m56 -9 c0 -16 -44 -43 -54 -33 -8 9 26 47 42 47
6 0 12 -6 12 -14z"/>
<path d="M2548 2053 c7 -3 16 -2 19 1 4 3 -2 6 -13 5 -11 0 -14 -3 -6 -6z"/>
<path d="M2337 1905 c7 -46 8 -48 22 -44 6 3 2 20 -9 44 l-18 40 5 -40z"/>
<path d="M2682 4408 c-7 -7 -12 -18 -12 -26 0 -7 -4 -10 -10 -7 -6 3 -10 -4
-10 -18 0 -16 15 -39 45 -66 44 -41 46 -41 70 -25 33 21 45 45 45 84 l0 31
-22 -21 -23 -21 -14 33 c-19 47 -45 60 -69 36z"/>
<path d="M1405 4370 c-8 -14 3 -30 21 -30 8 0 14 9 14 20 0 21 -24 28 -35 10z"/>
<path d="M3375 4357 c-7 -15 -18 -22 -37 -22 -16 1 -28 -2 -28 -5 1 -17 20
-31 41 -28 28 4 59 52 44 67 -7 7 -14 3 -20 -12z"/>
<path d="M2977 4331 c6 -24 -38 -56 -67 -48 -11 3 -18 1 -14 -4 6 -10 84 -12
108 -3 20 8 21 38 0 58 -21 22 -33 20 -27 -3z"/>
<path d="M3605 4317 c-22 -12 -49 -37 -61 -54 -12 -18 -25 -29 -29 -25 -5 4
-5 -1 -2 -11 4 -10 7 -21 7 -24 0 -3 20 12 44 33 24 22 54 46 66 54 12 9 21
23 19 33 -4 15 -8 14 -44 -6z"/>
<path d="M1250 4310 c0 -5 5 -10 11 -10 5 0 7 5 4 10 -3 6 -8 10 -11 10 -2 0
-4 -4 -4 -10z"/>
<path d="M1790 4307 c0 -9 -7 -20 -15 -24 -13 -8 -13 -15 -2 -53 7 -25 17 -44
22 -43 14 4 18 114 6 126 -8 8 -11 6 -11 -6z"/>
<path d="M3970 4252 c-36 -38 -96 -97 -135 -131 -38 -35 -64 -60 -57 -56 7 4
19 2 26 -4 11 -9 15 -6 21 16 7 31 10 33 127 113 95 65 110 80 79 80 -24 0
-27 13 -7 29 11 10 17 8 26 -6 10 -17 11 -17 8 1 -5 35 -24 27 -88 -42z"/>
<path d="M3026 4214 c-4 -14 -5 -29 -2 -31 3 -3 8 7 12 21 3 15 4 29 1 32 -2
3 -8 -7 -11 -22z"/>
<path d="M3248 4213 c6 -2 18 -2 25 0 6 3 1 5 -13 5 -14 0 -19 -2 -12 -5z"/>
<path d="M2788 4179 c-3 -21 0 -33 9 -36 21 -8 45 18 33 37 -7 11 -10 11 -10
2 0 -7 -5 -10 -10 -7 -8 5 -7 11 1 21 9 11 8 14 -4 14 -9 0 -16 -12 -19 -31z"/>
<path d="M3651 4169 c-13 -10 -19 -19 -14 -19 13 0 49 27 43 33 -3 3 -16 -3
-29 -14z"/>
<path d="M1636 4171 c-14 -5 -16 -10 -7 -15 15 -9 41 -1 41 14 0 11 -7 12 -34
1z"/>
<path d="M4127 4153 c-9 -3 -26 -22 -37 -43 -11 -22 -40 -63 -63 -92 -60 -73
-81 -107 -73 -116 10 -10 168 165 195 217 14 26 5 40 -22 34z"/>
<path d="M770 4142 c0 -14 99 -142 111 -142 6 0 6 6 0 18 -16 28 -111 135
-111 124z"/>
<path d="M3862 4084 c3 -3 2 -22 -3 -42 -7 -34 -6 -35 7 -18 17 24 19 66 2 66
-6 0 -9 -2 -6 -6z"/>
<path d="M1121 4071 c-12 -8 -13 -12 -1 -25 7 -9 15 -14 18 -12 2 3 13 1 24
-5 25 -13 43 -2 27 17 -10 12 -14 12 -20 2 -6 -9 -9 -6 -9 10 0 23 -15 28 -39
13z"/>
<path d="M917 4013 c-4 -3 -7 -20 -6 -37 l1 -31 8 35 c9 36 8 45 -3 33z"/>
<path d="M968 3965 c-9 -19 -8 -29 6 -50 21 -32 39 -32 56 0 10 19 11 30 2 50
-15 33 -49 33 -64 0z"/>
<path d="M875 3917 c0 -26 6 -52 13 -59 18 -18 23 -5 10 33 -23 72 -25 74 -23
26z"/>
<path d="M3528 3917 c-4 -9 -13 -16 -20 -15 -7 2 -14 -7 -16 -19 -3 -20 1 -23
31 -23 23 0 34 5 34 15 0 8 -4 15 -8 15 -4 0 -9 10 -11 23 -3 19 -4 20 -10 4z"/>
<path d="M4110 3859 c-14 -6 -42 -21 -62 -35 -22 -15 -42 -23 -50 -18 -9 5
-10 4 -2 -5 8 -9 27 -3 79 23 37 20 70 38 73 41 8 8 -10 5 -38 -6z"/>
<path d="M3944 3777 c-17 -15 -23 -26 -16 -31 6 -3 23 4 38 17 17 15 23 26 16
31 -6 3 -23 -4 -38 -17z"/>
<path d="M4153 3733 c-39 -27 -53 -42 -53 -60 0 -23 0 -23 31 -7 18 9 43 27
57 41 l25 25 21 -21 c17 -17 18 -21 4 -21 -18 0 -27 -30 -23 -77 2 -27 -1 -33
-17 -33 -13 0 -17 4 -11 13 4 6 8 26 8 43 l0 31 -35 -15 c-38 -16 -87 -49 -59
-39 11 3 21 -3 29 -18 19 -35 69 -41 113 -13 34 22 75 69 45 53 -7 -5 -21 -15
-31 -23 -9 -8 -19 -13 -22 -10 -3 3 13 18 35 33 37 26 40 31 40 76 0 46 -1 48
-19 37 -15 -9 -24 -8 -45 5 -32 21 -31 22 -93 -20z"/>
<path d="M715 3750 c-3 -6 -3 -20 1 -32 6 -21 6 -21 20 3 7 13 13 27 14 32 0
11 -28 9 -35 -3z"/>
<path d="M3897 3649 c7 -7 15 -10 18 -7 3 3 -2 9 -12 12 -14 6 -15 5 -6 -5z"/>
<path d="M3490 3640 c0 -5 5 -10 11 -10 5 0 7 5 4 10 -3 6 -8 10 -11 10 -2 0
-4 -4 -4 -10z"/>
<path d="M4028 3603 c7 -3 16 -2 19 1 4 3 -2 6 -13 5 -11 0 -14 -3 -6 -6z"/>
<path d="M4280 3420 c-9 -6 -7 -11 9 -20 24 -12 56 -6 47 9 -8 13 -42 20 -56
11z"/>
<path d="M4380 3413 c-8 -3 -20 -11 -25 -18 -6 -7 -26 -22 -45 -34 -46 -28
-13 -29 48 -1 29 13 42 25 42 40 0 11 -1 20 -2 19 -2 0 -10 -3 -18 -6z"/>
<path d="M520 3394 c0 -11 -6 -14 -21 -9 -18 6 -20 5 -10 -14 7 -12 20 -21 30
-21 24 0 45 25 37 45 -7 20 -36 19 -36 -1z"/>
<path d="M4255 3370 c4 -6 11 -8 16 -5 14 9 11 15 -7 15 -8 0 -12 -5 -9 -10z"/>
<path d="M4487 3354 c-8 -8 1 -24 14 -24 5 0 9 7 9 15 0 15 -12 20 -23 9z"/>
<path d="M4354 3255 c-4 -8 -10 -13 -14 -10 -5 3 -11 1 -15 -4 -3 -6 4 -15 16
-22 18 -9 25 -9 34 5 7 10 19 14 29 10 21 -8 21 5 -1 22 -24 18 -42 17 -49 -1z"/>
<path d="M490 3172 c-30 -30 -30 -32 -15 -61 19 -37 19 -41 -1 -41 -31 0 -7
-25 27 -28 59 -5 122 66 74 84 -8 4 -15 14 -15 24 0 9 -9 25 -20 35 -19 17
-20 16 -50 -13z m30 -54 c0 -13 -23 -5 -28 10 -2 7 2 10 12 6 9 -3 16 -11 16
-16z"/>
<path d="M4427 3146 c4 -5 0 -7 -9 -4 -8 4 -15 0 -15 -7 0 -11 6 -11 29 1 33
17 34 20 9 20 -11 0 -17 -5 -14 -10z"/>
<path d="M407 3003 c-4 -3 -2 -12 4 -20 13 -15 49 -18 49 -3 0 6 -7 10 -16 10
-8 0 -12 5 -9 10 7 11 -18 14 -28 3z"/>
<path d="M380 2868 c0 -9 -3 -23 -6 -32 -4 -11 -1 -16 10 -16 24 0 31 29 12
48 -15 15 -16 15 -16 0z"/>
<path d="M4546 2835 c16 -25 44 -40 44 -25 0 6 -7 10 -16 10 -10 0 -14 6 -11
14 3 8 -2 16 -13 19 -18 5 -18 3 -4 -18z"/>
<path d="M4590 2771 c0 -6 4 -13 10 -16 6 -3 7 1 4 9 -7 18 -14 21 -14 7z"/>
<path d="M391 2268 c0 -13 4 -32 9 -43 7 -15 9 -10 9 23 1 23 -3 42 -9 42 -5
0 -10 -10 -9 -22z"/>
<path d="M280 2213 c0 -20 27 -76 32 -67 3 5 -3 25 -13 44 -11 19 -19 30 -19
23z"/>
<path d="M406 2165 c-3 -9 -6 -24 -5 -33 0 -9 5 -4 10 12 9 32 6 48 -5 21z"/>
<path d="M4596 2054 c-16 -14 -35 -23 -42 -20 -7 3 -16 1 -19 -5 -10 -16 22
-21 59 -9 35 11 49 29 38 48 -5 6 -18 1 -36 -14z"/>
<path d="M4614 1929 c-9 -15 11 -33 30 -26 9 4 13 13 10 22 -7 17 -30 20 -40
4z"/>
<path d="M1368 1543 c7 -3 16 -2 19 1 4 3 -2 6 -13 5 -11 0 -14 -3 -6 -6z"/>
<path d="M656 1501 c-3 -5 0 -14 7 -19 10 -8 13 -6 14 9 2 19 -11 26 -21 10z"/>
<path d="M1628 1453 c6 -2 18 -2 25 0 6 3 1 5 -13 5 -14 0 -19 -2 -12 -5z"/>
<path d="M860 1323 c0 -6 -24 -15 -53 -22 -73 -16 -127 -74 -127 -135 0 -18
-4 -24 -15 -20 -27 11 -17 -48 18 -106 78 -130 239 -136 334 -12 30 40 33 50
33 112 0 63 -3 73 -30 104 -17 19 -45 38 -62 41 -17 4 -46 16 -64 27 -19 11
-34 16 -34 11z m50 -50 c13 -13 11 -14 -20 -10 -19 2 -27 2 -18 0 27 -7 68
-62 68 -92 0 -19 -8 -32 -29 -44 -33 -19 -45 -22 -36 -7 4 6 -6 10 -24 10 -16
0 -34 6 -38 14 -14 23 -48 37 -61 24 -16 -16 -15 -5 3 38 9 22 26 40 47 49 18
8 27 14 20 15 -7 0 -26 -7 -42 -15 -17 -9 -30 -11 -30 -6 0 5 19 18 41 29 45
23 93 20 119 -5z"/>
<path d="M4478 1226 c-2 -34 1 -55 7 -53 13 5 19 87 7 99 -7 7 -11 -10 -14
-46z"/>
<path d="M1361 1125 c3 -2 44 -6 93 -8 49 -2 82 0 74 4 -13 9 -175 13 -167 4z"/>
<path d="M4190 1027 c0 -27 19 -40 39 -27 20 12 8 45 -17 48 -18 3 -22 -1 -22
-21z"/>
<path d="M3742 978 l-3 -33 22 21 c21 22 19 44 -4 44 -7 0 -14 -15 -15 -32z"/>
<path d="M3841 931 c-14 -25 -82 -46 -93 -28 -5 8 -8 5 -8 -9 0 -55 93 -86
124 -42 20 28 21 72 2 87 -12 10 -17 8 -25 -8z"/>
<path d="M3598 924 c18 -8 15 -44 -4 -51 -10 -4 -22 1 -29 10 -17 23 -25 21
-25 -6 0 -47 52 -64 85 -27 23 26 10 73 -20 77 -11 2 -14 0 -7 -3z"/>
<path d="M4370 886 c0 -13 -2 -45 -5 -72 -7 -66 10 -27 19 44 4 33 3 52 -4 52
-5 0 -10 -11 -10 -24z"/>
<path d="M1240 834 c0 -8 5 -12 10 -9 6 4 8 11 5 16 -9 14 -15 11 -15 -7z"/>
<path d="M1395 828 c-68 -13 -86 -33 -23 -25 51 7 128 36 93 35 -11 0 -42 -5
-70 -10z"/>
<path d="M3395 830 c-3 -5 1 -10 10 -10 9 0 13 5 10 10 -3 6 -8 10 -10 10 -2
0 -7 -4 -10 -10z"/>
<path d="M1064 769 c-28 -8 -56 -39 -36 -39 12 0 101 35 108 43 10 10 -34 7
-72 -4z"/>
<path d="M3280 720 c19 -38 40 -46 40 -16 0 13 -41 56 -53 56 -4 0 2 -18 13
-40z"/>
<path d="M3548 735 c-10 -10 14 -72 38 -102 l24 -28 -21 60 c-23 64 -32 79
-41 70z"/>
<path d="M915 700 c-13 -6 -15 -9 -5 -9 8 0 22 4 30 9 18 12 2 12 -25 0z"/>
<path d="M1530 690 c0 -5 5 -10 10 -10 6 0 10 5 10 10 0 6 -4 10 -10 10 -5 0
-10 -4 -10 -10z"/>
<path d="M1770 660 c-9 -6 -10 -10 -3 -10 6 0 15 5 18 10 8 12 4 12 -15 0z"/>
<path d="M2347 646 c-6 -15 1 -26 15 -26 11 0 10 27 -1 34 -5 3 -11 0 -14 -8z"/>
<path d="M3800 634 c0 -27 25 -43 42 -26 8 8 8 15 0 25 -7 8 -10 16 -7 18 2 3
-5 5 -15 6 -15 1 -20 -5 -20 -23z"/>
<path d="M1782 634 c-12 -8 -20 -20 -17 -25 9 -14 19 -10 38 16 20 28 12 32
-21 9z"/>
<path d="M2105 598 c-11 -6 -31 -18 -45 -26 -14 -9 -29 -17 -35 -19 -30 -7
-87 -31 -97 -41 -17 -17 3 -16 39 2 15 7 58 28 96 46 37 18 67 36 67 41 0 11
0 11 -25 -3z"/>
<path d="M3427 603 c-2 -4 0 -23 5 -41 10 -36 28 -34 28 2 0 24 -25 53 -33 39z"/>
<path d="M1074 569 c-8 -14 11 -33 25 -25 11 7 4 36 -9 36 -5 0 -12 -5 -16
-11z"/>
<path d="M1880 482 c0 -21 44 -47 79 -47 39 0 121 32 121 47 0 11 -17 10 -24
-1 -3 -5 -26 -12 -52 -16 -33 -5 -52 -2 -69 9 -26 17 -55 21 -55 8z"/>
<path d="M1710 449 c0 -5 5 -7 10 -4 6 3 10 8 10 11 0 2 -4 4 -10 4 -5 0 -10
-5 -10 -11z"/>
<path d="M2280 445 c-7 -8 -19 -15 -27 -15 -11 0 -11 -4 -3 -20 22 -40 75 -15
59 28 -10 26 -13 27 -29 7z"/>
</g>
</svg>
